<?xml version="1.0" encoding="UTF-8" standalone="no"?>
<!-- Created with Inkscape (http://www.inkscape.org/) -->

<svg
   xmlns:dc="http://purl.org/dc/elements/1.1/"
   xmlns:cc="http://creativecommons.org/ns#"
   xmlns:rdf="http://www.w3.org/1999/02/22-rdf-syntax-ns#"
   xmlns:svg="http://www.w3.org/2000/svg"
   xmlns="http://www.w3.org/2000/svg"
   xmlns:sodipodi="http://sodipodi.sourceforge.net/DTD/sodipodi-0.dtd"
   xmlns:inkscape="http://www.inkscape.org/namespaces/inkscape"
   width="90.808868mm"
   height="64.348862mm"
   viewBox="0 0 321.76371 228.00778"
   id="svg4426"
   version="1.1"
   inkscape:version="0.91 r13725"
   inkscape:export-filename="D:\OpenServer\domains\naturallook.flat\img\arm\studio-cofe-arm.png"
   inkscape:export-xdpi="167.75743"
   inkscape:export-ydpi="167.75743"
   sodipodi:docname="studio-cofe-arm.svg">
  <defs
     id="defs4428" />
  <sodipodi:namedview
     id="base"
     pagecolor="#ffffff"
     bordercolor="#666666"
     borderopacity="1.0"
     inkscape:pageopacity="0.0"
     inkscape:pageshadow="2"
     inkscape:zoom="1.4"
     inkscape:cx="133.02825"
     inkscape:cy="50.913901"
     inkscape:document-units="px"
     inkscape:current-layer="layer1"
     showgrid="false"
     fit-margin-top="0"
     fit-margin-left="0"
     fit-margin-right="0"
     fit-margin-bottom="0"
     inkscape:window-width="1280"
     inkscape:window-height="962"
     inkscape:window-x="-8"
     inkscape:window-y="462"
     inkscape:window-maximized="1" />
  <metadata
     id="metadata4431">
    <rdf:RDF>
      <cc:Work
         rdf:about="">
        <dc:format>image/svg+xml</dc:format>
        <dc:type
           rdf:resource="http://purl.org/dc/dcmitype/StillImage" />
        <dc:title></dc:title>
      </cc:Work>
    </rdf:RDF>
  </metadata>
  <g
     inkscape:label="Layer 1"
     inkscape:groupmode="layer"
     id="layer1"
     transform="translate(-153.40387,-178.35832)">
    <path
       d="m 232.92187,227.19581 a 66.6434,66.6434 0 0 1 66.6433,66.64339 66.6434,66.6434 0 1 1 -66.6433,-66.64339 z"
       style="fill:#443a39;fill-rule:evenodd"
       id="path4200"
       inkscape:connector-curvature="0" />
    <path
       d="m 411.17687,205.66581 0,83.37939 63.9907,0 0,-83.37939 -63.9907,0 z"
       style="fill:#e4c64d;fill-rule:evenodd"
       id="path4202"
       inkscape:connector-curvature="0" />
    <path
       d="m 411.17687,297.6248 0,83.3794 63.9907,0 0,-83.3794 -63.9907,0 z"
       style="fill:#e4c64d;fill-rule:evenodd"
       id="path4204"
       inkscape:connector-curvature="0" />
    <path
       d="m 411.17687,211.13981 0,9.2974 63.9907,0 0,-9.2974 -63.9907,0 z"
       style="fill:#fcdf69;fill-rule:evenodd"
       id="path4206"
       inkscape:connector-curvature="0" />
    <path
       d="m 411.17687,368.2543 0,9.2973 63.9907,0 0,-9.2973 -63.9907,0 z"
       style="fill:#fcdf69;fill-rule:evenodd"
       id="path4208"
       inkscape:connector-curvature="0" />
    <path
       d="m 411.17687,286.1598 0,-7.0531 63.9907,0 0,7.0531 -63.9907,0 z"
       style="fill:#dcbf4d;fill-rule:evenodd"
       id="path4210"
       inkscape:connector-curvature="0" />
    <path
       d="m 411.17687,307.935 0,-7.0532 63.9907,0 0,7.0532 -63.9907,0 z"
       style="fill:#dcbf4d;fill-rule:evenodd"
       id="path4212"
       inkscape:connector-curvature="0" />
    <path
       d="m 415.42147,287.7183 c -5.4346,3.3965 -9.9482,4.8345 -15.5101,4.3895 -8.9668,-0.7178 -22.9286,-5.2773 -22.7676,-15.44029 l 0.961,-60.6997 c 5.773,-14.6929 29.5993,-16.1666 39.6286,-6.1852 0.084,0.086 0.1689,0.1712 0.2506,0.2593 0.072,0.078 0.1437,0.1591 0.214,0.2424 0.07,0.083 0.1395,0.1692 0.2078,0.2577 0.068,0.088 0.1355,0.1791 0.2018,0.2727 0.066,0.094 0.1315,0.1896 0.1959,0.288 0.064,0.098 0.1275,0.1992 0.1899,0.3024 0.062,0.1035 0.1236,0.2092 0.1843,0.3172 l 2e-4,0 c 0.06,0.108 0.1199,0.2186 0.1786,0.3311 0.059,0.1128 0.1162,0.2282 0.1732,0.3455 0.057,0.1174 0.1126,0.2373 0.1675,0.3592 0.055,0.1219 0.1095,0.2463 0.1625,0.3728 0.053,0.1264 0.1051,0.2548 0.1567,0.3857 l 3e-4,0 c 0.051,0.131 0.1021,0.264 0.1517,0.3992 0.05,0.1352 0.099,0.2727 0.1465,0.4121 l 3e-4,0 c 0.048,0.1395 0.095,0.2812 0.1414,0.4247 0.046,0.1437 0.092,0.2891 0.1367,0.4368 0.045,0.1477 0.089,0.2973 0.1318,0.449 0.043,0.1516 0.086,0.3056 0.127,0.4612 0.042,0.1556 0.082,0.3129 0.1224,0.4725 0.04,0.1596 0.079,0.3209 0.1177,0.4842 0.039,0.1632 0.076,0.3285 0.1131,0.4955 l 3e-4,0 c 0.037,0.1669 0.073,0.3356 0.1085,0.5062 l 3e-4,0 c 0.035,0.1707 0.07,0.343 0.1043,0.5171 0.034,0.174 0.067,0.3501 0.1004,0.5275 0.033,0.1774 0.065,0.3569 0.096,0.5377 0.031,0.1809 0.062,0.3637 0.092,0.548 l 3e-4,0 c 0.03,0.1842 0.059,0.3702 0.088,0.5575 l 0.084,0.5673 3e-4,0 c 0.027,0.1904 0.054,0.3826 0.08,0.5765 l 0.076,0.5857 c 0.025,0.1967 0.049,0.3948 0.073,0.5944 l 2e-4,0 c 0.024,0.1995 0.046,0.4008 0.069,0.6032 0.023,0.2024 0.045,0.4062 0.066,0.6114 l 0.062,0.6197 3e-4,0 0.059,0.6276 0.056,0.6352 0.053,0.6429 3e-4,0 0.05,0.6497 0.047,0.6571 0.044,0.6636 2e-4,0 0.041,0.6701 3e-4,0 0.039,0.6763 0.036,0.6826 0.033,0.6883 3e-4,0 0.031,0.6936 0.029,0.6993 0.027,0.7041 0.024,0.7093 0.023,0.7137 0.02,0.7181 0.019,0.7222 0.017,0.7263 0.015,0.7299 0.014,0.7333 0.012,0.7367 0.01,0.7396 0.01,0.7424 0.01,0.7446 0.01,0.7473 0.01,0.7491 0,0.7509 0,0.7526 0,0.7538 0,0.7551 0,0.7557 c 0.025,17.5128 -0.7526,35.49489 -6.188,39.72219 l -1.4414,1.1211 z"
       style="fill:#e98e38;fill-rule:evenodd"
       id="path4214"
       inkscape:connector-curvature="0" />
    <path
       d="m 418.00667,379.4373 c -5.6879,3.518 -10.4119,5.0074 -16.2331,4.5465 -9.3848,-0.7434 -23.9975,-5.466 -23.829,-15.9925 l 1.0058,-62.8703 c 6.0421,-15.2183 30.9792,-16.7447 41.476,-6.4064 0.088,0.0895 0.1769,0.1773 0.2623,0.2686 0.076,0.0811 0.1504,0.1647 0.224,0.2511 0.074,0.0863 0.146,0.1752 0.2175,0.2669 0.072,0.0916 0.1418,0.1855 0.2112,0.2824 0.069,0.0969 0.1377,0.1964 0.205,0.2983 0.067,0.1019 0.1335,0.2064 0.1988,0.3133 0.065,0.1071 0.1293,0.2166 0.1928,0.3285 l 3e-4,0 c 0.063,0.1119 0.1255,0.2264 0.1869,0.3429 0.061,0.1169 0.1217,0.2364 0.1813,0.3579 0.059,0.1216 0.1178,0.2458 0.1753,0.372 0.058,0.1263 0.1146,0.2552 0.17,0.3861 0.056,0.131 0.1101,0.264 0.1641,0.3996 l 3e-4,0 c 0.054,0.1356 0.1068,0.2733 0.1587,0.4134 0.052,0.14 0.1033,0.2824 0.1534,0.4269 l 3e-4,0 c 0.05,0.1444 0.1,0.2912 0.148,0.4398 0.049,0.1489 0.096,0.2995 0.143,0.4524 0.047,0.153 0.093,0.308 0.138,0.4651 0.045,0.1571 0.09,0.3165 0.1329,0.4777 0.044,0.1612 0.086,0.3241 0.1282,0.4894 0.042,0.1653 0.083,0.3324 0.1231,0.5015 0.04,0.1691 0.08,0.3403 0.1184,0.5132 l 3e-4,0 c 0.039,0.1729 0.076,0.3476 0.1136,0.5244 l 3e-4,0 c 0.037,0.1767 0.074,0.3552 0.1092,0.5355 0.036,0.1803 0.071,0.3626 0.105,0.5464 0.034,0.1838 0.068,0.3697 0.1006,0.557 0.033,0.1873 0.065,0.3767 0.096,0.5675 l 3e-4,0 c 0.031,0.1908 0.062,0.3834 0.092,0.5775 l 0.088,0.5875 3e-4,0 c 0.029,0.1973 0.057,0.3964 0.084,0.5972 l 0.08,0.6066 c 0.026,0.2037 0.052,0.409 0.076,0.6157 l 3e-4,0 c 0.025,0.2067 0.049,0.4151 0.072,0.6247 0.024,0.2097 0.047,0.4208 0.069,0.6333 l 0.065,0.6419 3e-4,0 0.062,0.65 0.059,0.6579 0.055,0.6659 3e-4,0 0.052,0.673 0.049,0.6805 0.046,0.6874 3e-4,0 0.043,0.694 3e-4,0 0.04,0.7006 0.038,0.707 0.035,0.7128 3e-4,0 0.033,0.7185 0.03,0.7243 0.028,0.7293 0.025,0.7346 0.024,0.7393 0.021,0.7437 0.02,0.7481 0.017,0.7522 0.016,0.756 0.014,0.7595 0.012,0.7631 0.011,0.766 0.01,0.7689 0.01,0.7713 0.01,0.774 0.01,0.776 0,0.7777 0,0.7795 0,0.7807 0,0.7822 0,0.7827 c 0.026,18.139 -0.7877,36.7642 -6.4766,41.1427 l -1.5086,1.1611 z"
       style="fill:#e98e38;fill-rule:evenodd"
       id="path4216"
       inkscape:connector-curvature="0" />
    <path
       d="m 390.23617,216.82841 c 2.7527,-0.5689 8.369,-0.9488 13.6553,-0.891 5.084,0.056 11.6164,3.0612 12.5618,-0.1848 2.0049,-6.8822 -22.2585,-6.537 -26.3044,-4.5796 -4.0459,1.9573 -2.6654,6.2243 0.087,5.6554 z"
       style="fill:#f2ad51;fill-rule:evenodd"
       id="path4218"
       inkscape:connector-curvature="0" />
    <path
       d="m 391.19227,304.4521 c 2.7528,-0.5689 8.369,-0.9488 13.6554,-0.8909 5.0839,0.0555 11.6163,3.0611 12.5617,-0.1849 2.0049,-6.8822 -22.2585,-6.5369 -26.3044,-4.5796 -4.0459,1.9573 -2.6654,6.2243 0.087,5.6554 z"
       style="fill:#f2ad51;fill-rule:evenodd"
       id="path4220"
       inkscape:connector-curvature="0" />
    <path
       d="m 389.15307,282.0901 c 2.7527,0.5689 8.369,0.9488 13.6553,0.891 5.084,-0.0556 11.6164,-3.0612 12.5618,0.1848 2.0049,6.8822 -22.2585,6.537 -26.3044,4.5796 -4.0459,-1.9573 -2.6654,-6.2243 0.087,-5.6554 z"
       style="fill:#f2ad51;fill-rule:evenodd"
       id="path4222"
       inkscape:connector-curvature="0" />
    <path
       d="m 390.10917,369.7138 c 2.7527,0.569 8.369,0.9488 13.6554,0.891 5.0839,-0.0556 11.6163,-3.0612 12.5617,0.1848 2.0049,6.8822 -22.2585,6.537 -26.3044,4.5796 -4.0459,-1.9573 -2.6654,-6.2243 0.087,-5.6554 z"
       style="fill:#f2ad51;fill-rule:evenodd"
       id="path4224"
       inkscape:connector-curvature="0" />
    <path
       d="m 389.63357,226.40101 c 2.7527,-0.569 8.369,-0.9488 13.6553,-0.891 5.0839,0.0556 11.6164,3.0612 12.5617,-0.1848 2.005,-6.8822 -22.2585,-6.537 -26.3043,-4.5796 -4.0459,1.9573 -2.6655,6.2243 0.087,5.6554 z"
       style="fill:#f2ad51;fill-rule:evenodd"
       id="path4226"
       inkscape:connector-curvature="0" />
    <path
       d="m 390.58967,314.0247 c 2.7527,-0.5689 8.369,-0.9488 13.6553,-0.8909 5.084,0.0555 11.6164,3.0611 12.5618,-0.1849 2.0049,-6.8822 -22.2585,-6.5369 -26.3044,-4.5796 -4.0459,1.9573 -2.6654,6.2243 0.087,5.6554 z"
       style="fill:#f2ad51;fill-rule:evenodd"
       id="path4228"
       inkscape:connector-curvature="0" />
    <path
       d="m 389.95387,273.76191 c 2.7527,0.569 8.369,0.9488 13.6553,0.891 5.0839,-0.0556 11.6164,-3.0612 12.5617,0.1848 2.005,6.88219 -22.2584,6.53699 -26.3043,4.57959 -4.0459,-1.95729 -2.6655,-6.22429 0.087,-5.65539 z"
       style="fill:#f2ad51;fill-rule:evenodd"
       id="path4230"
       inkscape:connector-curvature="0" />
    <path
       d="m 390.90997,361.3857 c 2.7527,0.5689 8.369,0.9487 13.6553,0.8909 5.084,-0.0556 11.6164,-3.0611 12.5618,0.1848 2.0049,6.8822 -22.2585,6.537 -26.3044,4.5797 -4.0459,-1.9574 -2.6654,-6.2244 0.087,-5.6554 z"
       style="fill:#f2ad51;fill-rule:evenodd"
       id="path4232"
       inkscape:connector-curvature="0" />
    <path
       d="m 388.58377,236.54401 c 2.9959,-0.6664 9.1083,-1.1113 14.8616,-1.0436 5.533,0.0651 12.6425,3.5858 13.6713,-0.2165 2.1821,-8.0618 -24.2246,-7.6573 -28.6279,-5.3646 -4.4033,2.2928 -2.9008,7.2911 0.095,6.6247 z"
       style="fill:#f2ad51;fill-rule:evenodd"
       id="path4234"
       inkscape:connector-curvature="0" />
    <path
       d="m 389.53997,324.1677 c 2.9958,-0.6664 9.1082,-1.1113 14.8615,-1.0436 5.533,0.0651 12.6425,3.5858 13.6713,-0.2165 2.1821,-8.0618 -24.2246,-7.6573 -28.6279,-5.3645 -4.4032,2.2927 -2.9008,7.2911 0.095,6.6246 z"
       style="fill:#f2ad51;fill-rule:evenodd"
       id="path4236"
       inkscape:connector-curvature="0" />
    <path
       d="m 389.22727,263.11891 c 2.9959,0.6664 9.1083,1.1113 14.8615,1.0436 5.5331,-0.0651 12.6425,-3.5858 13.6714,0.2165 2.182,8.0617 -24.2246,7.6573 -28.6279,5.3645 -4.4033,-2.2928 -2.9009,-7.2911 0.095,-6.6246 z"
       style="fill:#f2ad51;fill-rule:evenodd"
       id="path4238"
       inkscape:connector-curvature="0" />
    <path
       d="m 390.18337,350.7426 c 2.9959,0.6664 9.1083,1.1113 14.8616,1.0436 5.533,-0.0651 12.6424,-3.5858 13.6713,0.2165 2.1821,8.0618 -24.2246,7.6573 -28.6279,5.3645 -4.4033,-2.2927 -2.9009,-7.291 0.095,-6.6246 z"
       style="fill:#f2ad51;fill-rule:evenodd"
       id="path4240"
       inkscape:connector-curvature="0" />
    <path
       d="m 388.02427,247.38801 c 2.9959,-0.0303 9.1085,0.1445 14.8615,0.2025 5.5327,0.0557 12.7499,1.9812 13.7787,-1.2891 2.1814,-6.935 -24.332,-6.5846 -28.7352,-4.6122 -4.4033,1.9723 -2.9009,5.729 0.095,5.6988 z"
       style="fill:#f2ad51;fill-rule:evenodd"
       id="path4242"
       inkscape:connector-curvature="0" />
    <path
       d="m 388.98037,335.0117 c 2.9959,-0.0303 9.1086,0.1445 14.8615,0.2025 5.5327,0.0557 12.7499,1.9812 13.7787,-1.2891 2.1815,-6.935 -24.3319,-6.5845 -28.7352,-4.6122 -4.4033,1.9723 -2.9009,5.7291 0.095,5.6988 z"
       style="fill:#f2ad51;fill-rule:evenodd"
       id="path4244"
       inkscape:connector-curvature="0" />
    <path
       d="m 389.49397,259.70761 c 2.9959,-0.0303 9.1086,0.1445 14.8616,0.2025 5.5327,0.0557 12.7498,1.9812 13.7787,-1.2891 2.1814,-6.935 -24.332,-6.5845 -28.7353,-4.6122 -4.4033,1.9724 -2.9008,5.7291 0.095,5.6988 z"
       style="fill:#f2ad51;fill-rule:evenodd"
       id="path4246"
       inkscape:connector-curvature="0" />
    <path
       d="m 390.45017,347.3313 c 2.9958,-0.0302 9.1085,0.1446 14.8615,0.2025 5.5327,0.0557 12.7498,1.9812 13.7787,-1.289 2.1814,-6.9351 -24.332,-6.5846 -28.7353,-4.6122 -4.4032,1.9723 -2.9008,5.729 0.095,5.6987 z"
       style="fill:#f2ad51;fill-rule:evenodd"
       id="path4248"
       inkscape:connector-curvature="0" />
    <path
       d="m 377.98537,223.49571 c -11.4052,0.2455 -18.1547,-3.9126 -28.3887,-8.9694 -16.8876,-7.9775 -34.1197,-15.5732 -50.6097,-24.3439 -6.2788,-3.3395 -8.657,-5.5171 -13.1329,-8.0079 -4.4759,-2.4908 -12.1522,-3.9274 -18.5783,-2.082 -2.6989,0.7747 -8.0065,2.5089 -10.8907,3.5235 -8.8064,3.0985 -17.4158,4.2086 -26.5862,6.2461 l -24.1837,10.0899 -8.1681,5.1251 -7.2071,5.4453 -8.0078,6.8868 -6.2462,5.2852 -4.6445,3.043 -3.6837,2.7226 c -1.2274,4.2968 5.7311,8.648 10.7666,6.9052 13.655,-12.6541 31.8274,-20.3754 51.7751,-20.3754 31.1377,0 57.9532,18.8099 70.0055,45.8371 1.1957,1.0627 1.3604,1.3484 3.5867,3.1881 2.2263,1.8397 6.6399,5.6276 9.7696,7.8477 3.1297,2.2201 5.7314,3.7865 8.9688,5.4454 14.279,7.31619 25.6706,5.52189 41.0003,3.36329 l 13.7404,-2.1869 0.7146,-54.98879 z"
       style="fill:#f7b594;fill-rule:evenodd"
       id="path4250"
       inkscape:connector-curvature="0" />
    <path
       d="m 378.03867,362.1051 c -11.4052,-0.2455 -18.3461,3.9339 -28.58,8.9906 -16.8877,7.9776 -34.1198,15.5733 -50.6098,24.344 -6.2787,3.3395 -8.657,5.517 -13.1329,8.0078 -4.4759,2.4908 -12.1521,3.9274 -18.5783,2.0821 -2.6988,-0.7747 -8.0064,-2.509 -10.8907,-3.5235 -8.8064,-3.0985 -17.4157,-4.2086 -26.5861,-6.2461 l -24.1838,-10.0899 -8.168,-5.1251 -7.2071,-5.4453 -8.0079,-6.8868 -6.2461,-5.2852 -4.6446,-3.043 -3.6836,-2.7227 c -1.2274,-4.2967 5.7311,-8.6479 10.7665,-6.9052 13.6551,12.6542 31.8274,20.3755 51.7751,20.3755 31.1378,0 57.9532,-18.8099 70.0056,-45.8371 1.1956,-1.0627 1.3603,-1.3484 3.5867,-3.1881 2.2263,-1.8397 6.6398,-5.6276 9.7696,-7.8477 3.1297,-2.2201 5.7313,-3.7866 8.9688,-5.4454 14.2789,-7.3162 25.6705,-5.5219 41.0003,-3.3633 l 15.5256,2.1847 -0.8793,54.9697 z"
       style="fill:#f7b594;fill-rule:evenodd"
       id="path4252"
       inkscape:connector-curvature="0" />
    <path
       d="m 230.19927,214.98981 a 76.7955,77.9054 0 0 1 76.7956,77.90539 76.7955,77.9054 0 1 1 -76.7956,-77.90539 z"
       style="fill:#aedde9;fill-rule:evenodd"
       id="path4254"
       inkscape:connector-curvature="0" />
    <path
       d="m 345.43257,236.62811 c 1.1316,0.6233 2.1654,0.4782 2.8829,0 2.5256,-1.6838 -2.7882,-4.7707 -3.7627,-5.3637 -25.9702,-15.8097 -59.5894,-16.9515 -85.9255,-33.8749 -0.6406,-0.2135 -1.8318,-0.932 -2.0622,-0.2991 -0.2546,0.6991 5.7316,6.7661 14.6577,10.4755 20.6288,8.5725 57.516,19.8672 74.2098,29.0622 z"
       style="fill:#fed1bf;fill-rule:evenodd"
       id="path4256"
       inkscape:connector-curvature="0" />
    <path
       d="m 345.29457,348.994 c 1.1316,-0.6233 2.1654,-0.4782 2.8828,0 2.5257,1.6838 -2.7881,4.7707 -3.7627,5.3637 -25.9701,15.8097 -59.5893,16.9515 -85.9255,33.8749 -0.6406,0.2134 -1.8317,0.932 -2.0622,0.299 -0.2545,-0.699 5.7317,-6.766 14.6577,-10.4754 20.6289,-8.5725 57.5161,-19.8672 74.2099,-29.0622 z"
       style="fill:#fed1bf;fill-rule:evenodd"
       id="path4258"
       inkscape:connector-curvature="0" />
    <path
       d="m 377.34417,272.82451 c -5.8926,0.4266 -11.4774,1.067 -17.8177,1.2804 -6.3402,0.2135 -15.0874,0.3484 -20.34,0 -5.2526,-0.3483 -7.0809,-0.5967 -11.0509,-2.082 -8.3449,-3.1221 -17.2196,-9.4774 -23.7033,-15.5353 -3.6689,-3.4279 -7.3369,-7.6303 -10.7305,-11.6915 -8.1678,-9.7753 -15.4398,-16.6351 -22.9025,-21.4611 -6.0214,-3.8939 -13.2682,-7.5081 -17.7775,-13.2931 -2.338,-2.9996 -1.1035,-4.9155 0.4805,-7.6875 0.7789,-1.2739 1.9646,-2.8976 2.3365,-3.8223 1.2411,-3.0855 -6.0341,4.4524 -6.7776,6.0305 -1.8014,3.8225 -1.038,7.5676 1.1631,10.8147 l 2.6444,3.0637 0,0 c 21.1102,6.6101 38.3372,22.2055 47.3349,42.3831 1.1957,1.0627 1.3604,1.3484 3.5867,3.1881 2.2263,1.8397 6.6399,5.6276 9.7696,7.8477 3.1297,2.2201 5.7314,3.7865 8.9688,5.4454 14.279,7.31619 25.6706,5.52189 41.0003,3.36329 l 13.7404,-2.1869 0.073,-5.65999 z"
       style="fill:#dea686;fill-rule:evenodd"
       id="path4260"
       inkscape:connector-curvature="0" />
    <path
       d="m 378.83017,312.6337 c -5.8927,-0.4266 -13.1015,-0.9031 -19.4417,-1.1165 -6.3403,-0.2135 -15.0874,-0.3484 -20.34,0 -5.2526,0.3483 -7.081,0.5966 -11.0509,2.082 -8.3449,3.1221 -17.2196,9.4774 -23.7033,15.5353 -3.6689,3.4279 -7.3369,7.6303 -10.7306,11.6915 -8.1677,9.7752 -15.4397,16.6351 -22.9025,21.4611 -6.0213,3.8939 -13.2681,7.5081 -17.7775,13.293 -2.338,2.9997 -1.1035,4.9156 0.4805,7.6876 0.779,1.2739 1.9647,2.8976 2.3366,3.8222 1.241,3.0856 -6.0341,-4.4523 -6.7776,-6.0304 -1.8015,-3.8225 -1.0381,-7.5676 1.163,-10.8147 l 2.6445,-3.0637 0,-0.003 c 21.1102,-6.6102 38.3371,-22.2055 47.3349,-42.3831 1.1956,-1.0627 1.3603,-1.3484 3.5867,-3.1881 2.2263,-1.8397 6.6398,-5.6276 9.7696,-7.8477 3.1297,-2.2201 5.7313,-3.7866 8.9688,-5.4454 14.2789,-7.3162 25.6705,-5.5219 41.0003,-3.3633 l 15.5256,2.1847 -0.088,5.4983 z"
       style="fill:#dea686;fill-rule:evenodd"
       id="path4262"
       inkscape:connector-curvature="0" />
    <path
       d="m 377.91457,228.94001 -7.3372,0.481 c -2.2955,-0.1602 -4.4414,0.003 -6.8868,-0.4805 -2.4455,-0.4836 -4.2554,-0.8203 -7.6876,-2.4023 -20.3283,-9.37 -40.5164,-20.304 -59.0981,-32.8323 -3.524,-2.376 -6.298,-4.8694 -8.8086,-6.2462 -2.5107,-1.3768 -4.3141,-1.6767 -6.086,-1.9219 -6.715,-0.9292 -13.4158,4.9363 -19.2189,7.2071 -9.4657,3.7038 -23.3289,3.7608 -32.152,5.2283 -17.524,2.9151 -33.7283,11.7433 -41.3603,18.6352 -6.9517,6.2773 -12.403,12.6748 -21.9416,12.9728 l 0.3203,-1.1212 3.6837,-2.7226 4.6445,-3.043 6.2462,-5.2852 8.0078,-6.8868 7.2071,-5.4453 8.1681,-5.1251 24.1837,-10.0899 c 9.1704,-2.0375 17.7798,-3.1476 26.5862,-6.2461 2.8842,-1.0146 8.1918,-2.7488 10.8907,-3.5235 6.4261,-1.8454 14.1024,-0.4088 18.5783,2.082 4.4759,2.4908 6.8541,4.6684 13.1329,8.0079 16.49,8.7707 33.7221,16.3664 50.6097,24.3439 10.234,5.0568 16.9835,9.2149 28.3887,8.9694 l -0.069,5.3479 0,0.0964 z"
       style="fill:#fed1bf;fill-rule:evenodd"
       id="path4264"
       inkscape:connector-curvature="0" />
    <path
       d="m 378.12657,356.6016 -7.6873,-0.4005 c -2.2977,-0.1193 -4.4413,-0.003 -6.8867,0.4805 -2.4455,0.4836 -4.2554,0.8203 -7.6876,2.4023 -20.3284,9.3699 -40.5164,20.304 -59.0981,32.8323 -3.5241,2.376 -6.298,4.8694 -8.8087,6.2461 -2.5106,1.3768 -4.314,1.6767 -6.086,1.9219 -6.715,0.9292 -13.4158,-4.9362 -19.2189,-7.207 -9.4657,-3.7038 -23.3288,-3.7608 -32.1519,-5.2283 -17.5241,-2.9151 -33.7283,-11.7433 -41.3603,-18.6352 -6.9517,-6.2773 -12.403,-12.6748 -21.9416,-12.9728 l 0.3203,1.1211 3.6836,2.7227 4.6446,3.043 6.2461,5.2852 8.0079,6.8868 7.2071,5.4453 8.168,5.1251 24.1838,10.0899 c 9.1704,2.0375 17.7797,3.1476 26.5861,6.2461 2.8843,1.0145 8.1919,2.7488 10.8907,3.5235 6.4262,1.8453 14.1024,0.4087 18.5783,-2.0821 4.4759,-2.4908 6.8542,-4.6683 13.1329,-8.0078 16.49,-8.7707 33.7221,-16.3664 50.6098,-24.344 10.2339,-5.0567 17.1748,-9.2361 28.58,-8.9906 l 0.079,-4.9442 0.01,-0.5593 z"
       style="fill:#fed1bf;fill-rule:evenodd"
       id="path4266"
       inkscape:connector-curvature="0" />
    <path
       d="m 281.45037,180.38251 c -4.2638,-1.2453 -9.5436,-1.6197 -14.1746,-0.29 -2.6989,0.7747 -8.0065,2.5089 -10.8907,3.5235 -8.8064,3.0985 -17.4158,4.2086 -26.5862,6.2461 l -18.7109,7.8066 9.1199,-0.7812 c 18.3473,-1.8247 34.2539,-2.9515 49.6409,-13.5094 2.1898,-1.5023 4.6854,-2.7691 7.3542,-3.1175 1.3918,-0.1817 2.8315,0.081 4.2474,0.1219 z"
       style="fill:#f4caaf;fill-rule:evenodd"
       id="path4268"
       inkscape:connector-curvature="0" />
    <path
       d="m 281.31237,405.2396 c -4.2639,1.2453 -9.5437,1.6197 -14.1747,0.29 -2.6988,-0.7747 -8.0064,-2.509 -10.8907,-3.5235 -8.8064,-3.0985 -17.4157,-4.2086 -26.5861,-6.2461 l -18.7109,-7.8066 9.1199,0.7812 c 18.3472,1.8247 34.2538,2.9514 49.6409,13.5094 2.1897,1.5023 4.6853,2.7691 7.3542,3.1175 1.3918,0.1817 2.8315,-0.0814 4.2474,-0.1219 z"
       style="fill:#f4caaf;fill-rule:evenodd"
       id="path4270"
       inkscape:connector-curvature="0" />
    <path
       d="m 169.71437,233.46401 c -0.9474,1.4537 -2.2264,3.0932 -2.8245,4.3512 -1.7648,3.712 0.4777,4.5579 3.1539,6.6538 l 0.083,-0.0978 c 1.1611,-1.4774 2.3743,-2.9106 3.6363,-4.2976 l 0.083,-0.0987 0.013,-0.006 c 1.4587,-1.5973 2.9806,-3.1345 4.5652,-4.6032 -2.9118,1.0078 -6.4667,-0.0221 -8.71,-1.9012 z"
       style="fill:#e49a85;fill-rule:evenodd"
       id="path4272"
       inkscape:connector-curvature="0" />
    <path
       d="m 169.57627,352.158 c -0.9473,-1.4536 -2.2263,-3.0931 -2.8244,-4.3511 -1.7649,-3.712 0.4776,-4.5579 3.1538,-6.6538 l 0.083,0.0978 c 1.1611,1.4774 2.3743,2.9106 3.6363,4.2976 l 0.083,0.0986 0.013,0.007 c 1.4588,1.5973 2.9807,3.1345 4.5652,4.6031 -2.9117,-1.0077 -6.4666,0.0221 -8.71,1.9012 z"
       style="fill:#e49a85;fill-rule:evenodd"
       id="path4274"
       inkscape:connector-curvature="0" />
    <path
       d="m 210.57687,217.55771 -2.2391,-12.3205 c -0.7747,-5.5528 -3.285,-14.2463 -0.2795,-19.4601 7.8058,-13.5405 18.6415,-6.3451 21.7406,4.085 l 2.6082,25.162 c -0.7336,-0.021 -1.4689,-0.034 -2.2076,-0.034 -6.7796,0 -13.3526,0.896 -19.6149,2.5699 l -0.01,0 z"
       style="fill:#95d0d2;fill-rule:evenodd"
       id="path4276"
       inkscape:connector-curvature="0" />
    <path
       d="m 232.92187,235.73691 c 30.9977,0 56.1353,26.0187 56.1353,58.10209 0,32.0837 -25.1376,58.1025 -56.1353,58.1025 -30.9974,0 -56.1351,-26.0188 -56.1351,-58.1025 0,-32.08339 25.1377,-58.10209 56.1351,-58.10209 z"
       style="fill:none"
       id="path4278"
       inkscape:connector-curvature="0" />
    <path
       d="m 232.92187,235.73691 c 30.9977,0 56.1353,26.0186 56.1353,58.10229 0,32.0836 -25.1376,58.1023 -56.1353,58.1023 -30.9974,0 -56.1351,-26.0187 -56.1351,-58.1023 0,-32.08369 25.1377,-58.10229 56.1351,-58.10229 z"
       style="fill:none"
       id="path4280"
       inkscape:connector-curvature="0" />
    <path
       d="m 232.92187,229.09611 c 34.5405,0 62.5512,28.9926 62.5512,64.74289 0,35.7507 -28.0107,64.7432 -62.5512,64.7432 -34.5403,0 -62.551,-28.9925 -62.551,-64.7432 0,-35.75029 28.0107,-64.74289 62.551,-64.74289 z"
       style="fill:#95cfd3;fill-rule:evenodd"
       id="path4282"
       inkscape:connector-curvature="0" />
    <path
       d="m 232.92187,235.73691 c 30.9977,0 56.1353,26.0186 56.1353,58.10229 0,32.0836 -25.1376,58.1023 -56.1353,58.1023 -30.9974,0 -56.1351,-26.0187 -56.1351,-58.1023 0,-32.08369 25.1377,-58.10229 56.1351,-58.10229 z"
       style="fill:#5c5152;fill-rule:evenodd"
       id="path4284"
       inkscape:connector-curvature="0" />
    <path
       d="m 232.92187,235.73691 c 21.8942,0 40.8628,12.9818 50.1171,31.9116 -16.6204,19.44899 -53.6485,34.00749 -97.2372,35.88319 -2.7567,0.1185 -5.4907,0.1831 -8.2009,0.1978 -0.5332,-3.2147 -0.8141,-6.5185 -0.8141,-9.8903 0,-32.08369 25.1377,-58.10229 56.1351,-58.10229 z"
       style="fill:#443a39;fill-rule:evenodd"
       id="path4286"
       inkscape:connector-curvature="0" />
    <path
       d="m 280.32057,274.74611 a 3.1175,3.1175 0 0 1 3.1175,3.1176 3.1175,3.1175 0 1 1 -3.1175,-3.1176 z"
       style="fill:#443a39;fill-rule:evenodd"
       id="path4288"
       inkscape:connector-curvature="0" />
    <path
       d="m 283.75777,288.4154 a 3.1175,3.1175 0 0 1 3.1176,3.1175 3.1175,3.1175 0 1 1 -3.1176,-3.1175 z"
       style="fill:#443a39;fill-rule:evenodd"
       id="path4290"
       inkscape:connector-curvature="0" />
    <path
       d="m 277.84247,297.6081 a 3.1175,3.1175 0 0 1 3.1175,3.1176 3.1175,3.1175 0 1 1 -3.1175,-3.1176 z"
       style="fill:#443a39;fill-rule:evenodd"
       id="path4292"
       inkscape:connector-curvature="0" />
    <path
       d="m 280.95997,311.3573 a 3.1175,3.1175 0 0 1 3.1176,3.1175 3.1175,3.1175 0 1 1 -3.1176,-3.1175 z"
       style="fill:#443a39;fill-rule:evenodd"
       id="path4294"
       inkscape:connector-curvature="0" />
    <path
       d="m 274.24527,321.829 a 3.1175,3.1175 0 0 1 3.1176,3.1176 3.1175,3.1175 0 1 1 -3.1176,-3.1176 z"
       style="fill:#443a39;fill-rule:evenodd"
       id="path4296"
       inkscape:connector-curvature="0" />
    <path
       d="m 258.89737,334.4591 a 3.1175,3.1175 0 0 1 3.1176,3.1175 3.1175,3.1175 0 1 1 -3.1176,-3.1175 z"
       style="fill:#443a39;fill-rule:evenodd"
       id="path4298"
       inkscape:connector-curvature="0" />
    <path
       d="m 217.01037,339.2553 a 3.1175,3.1175 0 0 1 3.1176,3.1175 3.1175,3.1175 0 1 1 -3.1176,-3.1175 z"
       style="fill:#443a39;fill-rule:evenodd"
       id="path4300"
       inkscape:connector-curvature="0" />
    <path
       d="m 194.30827,321.829 a 3.1175,3.1175 0 0 1 3.1176,3.1176 3.1175,3.1175 0 1 1 -3.1176,-3.1176 z"
       style="fill:#443a39;fill-rule:evenodd"
       id="path4302"
       inkscape:connector-curvature="0" />
    <path
       d="m 201.97767,332.0984 a 1.9998,1.9998 0 0 1 1.9999,1.9998 1.9998,1.9998 0 1 1 -1.9999,-1.9998 z"
       style="fill:#443a39;fill-rule:evenodd"
       id="path4304"
       inkscape:connector-curvature="0" />
    <path
       d="m 227.88187,341.3322 a 1.9998,1.9998 0 0 1 1.9998,1.9999 1.9998,1.9998 0 1 1 -1.9998,-1.9999 z"
       style="fill:#443a39;fill-rule:evenodd"
       id="path4306"
       inkscape:connector-curvature="0" />
    <path
       d="m 241.95077,337.0956 a 1.9998,1.9998 0 0 1 1.9998,1.9998 1.9998,1.9998 0 1 1 -1.9998,-1.9998 z"
       style="fill:#443a39;fill-rule:evenodd"
       id="path4308"
       inkscape:connector-curvature="0" />
    <path
       d="m 248.18587,341.0125 a 1.9998,1.9998 0 0 1 1.9998,1.9998 1.9998,1.9998 0 1 1 -1.9998,-1.9998 z"
       style="fill:#443a39;fill-rule:evenodd"
       id="path4310"
       inkscape:connector-curvature="0" />
    <path
       d="m 266.79527,324.9571 a 1.9998,1.9998 0 0 1 1.9999,1.9998 1.9998,1.9998 0 1 1 -1.9999,-1.9998 z"
       style="fill:#443a39;fill-rule:evenodd"
       id="path4312"
       inkscape:connector-curvature="0" />
    <path
       d="m 279.60787,317.2695 a 1.9998,1.9998 0 0 1 1.9999,1.9998 1.9998,1.9998 0 1 1 -1.9999,-1.9998 z"
       style="fill:#443a39;fill-rule:evenodd"
       id="path4314"
       inkscape:connector-curvature="0" />
    <path
       d="m 285.85407,301.5741 a 1.9998,1.9998 0 0 1 1.9998,1.9998 1.9998,1.9998 0 1 1 -1.9998,-1.9998 z"
       style="fill:#443a39;fill-rule:evenodd"
       id="path4316"
       inkscape:connector-curvature="0" />
    <path
       d="m 239.36897,221.59541 c 16.1745,1.4252 30.8253,8.1649 42.1982,18.4586 0.6157,0.5573 0.9323,1.2719 0.9323,2.1022 -2e-4,0.8306 -0.3177,1.5449 -0.9337,2.1019 l -0.1613,0.1463 c -1.0839,0.9802 -2.7184,0.9802 -3.8024,-3e-4 -10.4462,-9.4479 -23.8992,-15.6348 -38.7507,-16.9447 -0.7784,-0.0686 -1.4244,-0.4056 -1.9259,-1.0054 -0.5014,-0.5998 -0.7186,-1.2949 -0.6483,-2.0733 l 0.02,-0.2168 c 0.1403,-1.5529 1.5191,-2.7054 3.0722,-2.5685 z m 55.6773,34.8089 c 6.6018,10.9287 10.4037,23.73789 10.4037,37.43489 0,8.4603 -1.4525,16.5809 -4.1171,24.1299 -0.2644,0.7498 -0.7648,1.2985 -1.487,1.6313 -0.722,0.3325 -1.4644,0.3561 -2.2059,0.07 l -0.2022,-0.0779 c -1.4298,-0.5513 -2.1631,-2.1427 -1.6531,-3.5878 2.4466,-6.9347 3.7805,-14.3941 3.7805,-22.1655 0,-12.5805 -3.4908,-24.34569 -9.5521,-34.38489 -0.7861,-1.3019 -0.4051,-2.9916 0.8637,-3.8301 l 0.1803,-0.1194 c 0.6681,-0.4413 1.4051,-0.5762 2.186,-0.3999 0.7813,0.176 1.389,0.614 1.8032,1.2994 z m -12.557,90.36929 c -8.7786,8.2245 -19.6041,14.292 -31.6289,17.3526 -0.7699,0.1959 -1.5035,0.0847 -2.1807,-0.3302 -0.6772,-0.4153 -1.1095,-1.0185 -1.2841,-1.7935 l -0.047,-0.2109 c -0.3373,-1.4961 0.5797,-2.9917 2.0659,-3.3701 11.0444,-2.8131 20.9877,-8.3863 29.0517,-15.9404 1.1333,-1.0618 2.9197,-1.0108 3.9907,0.114 l 0.1476,0.155 c 0.5412,0.5684 0.8031,1.2515 0.7804,2.0359 -0.022,0.784 -0.3226,1.4513 -0.8952,1.9876 z m -49.1689,19.5925 c -0.1324,6e-4 -0.2656,10e-4 -0.3985,10e-4 -40.0493,0 -72.5281,-32.4788 -72.5281,-72.5281 0,-34.37949 23.9352,-63.17519 56.0457,-70.64049 0.7742,-0.18 1.5058,-0.0528 2.1745,0.377 0.669,0.4297 1.0879,1.0431 1.2458,1.8224 l 0.043,0.2117 c 0.3042,1.5021 -0.6435,2.9755 -2.1362,3.3228 -29.4999,6.8635 -51.4882,33.3201 -51.4882,64.90659 0,36.7999 29.8434,66.6433 66.6434,66.6433 0.1204,0 0.2409,-5e-4 0.3614,-0.001 1.5539,-0.009 2.8301,1.2433 2.8508,2.7969 l 0,0.2152 c 0.01,0.7841 -0.2613,1.4627 -0.8104,2.0225 -0.5491,0.5599 -1.222,0.8453 -2.0061,0.8501 z"
       style="fill:#f6f7f7;fill-rule:evenodd"
       id="path4318"
       inkscape:connector-curvature="0" />
    <path
       d="m 212.37237,217.10501 c -0.186,-2.0494 -0.8753,-4.2038 -0.5579,-6.1486 1.7272,-10.5803 15.7918,-9.7798 18.8652,-0.5596 l 0.72,4.6038 0,0 c -0.3991,-0.01 -0.7974,-0.015 -1.1979,-0.015 -6.1373,0 -12.1051,0.735 -17.8268,2.1155 l -3e-4,-3e-4 z"
       style="fill:#8ac0c2;fill-rule:evenodd"
       id="path4320"
       inkscape:connector-curvature="0" />
    <path
       d="m 209.98167,190.06481 c 2.3244,-3.3245 4.3032,-4.4025 8.63,-4.9607 2.306,-0.2973 4.707,-0.2114 6.9302,0.2183 0.1559,0.03 0.2792,0.1125 0.3662,0.2452 0.087,0.1327 0.114,0.2787 0.08,0.4337 l -0.096,0.4351 c -0.1293,0.5859 -0.69,0.9686 -1.2827,0.8756 -3.9827,-0.6244 -10.8933,-0.4575 -12.619,3.3208 -0.082,0.1806 -0.1644,0.36 -0.2554,0.5386 -0.076,0.1497 -0.1998,0.2492 -0.3626,0.2914 -0.1627,0.043 -0.3191,0.016 -0.4586,-0.078 l -0.7829,-0.5245 c -0.1313,-0.088 -0.2126,-0.2111 -0.2415,-0.3668 -0.029,-0.1553 0,-0.2996 0.093,-0.4291 z"
       style="fill:#f6f7f7;fill-rule:evenodd"
       id="path4322"
       inkscape:connector-curvature="0" />
  </g>
</svg>
