<?xml version="1.0" encoding="UTF-8" standalone="no"?>
<!-- Created with Inkscape (http://www.inkscape.org/) -->

<svg
   xmlns:dc="http://purl.org/dc/elements/1.1/"
   xmlns:cc="http://creativecommons.org/ns#"
   xmlns:rdf="http://www.w3.org/1999/02/22-rdf-syntax-ns#"
   xmlns:svg="http://www.w3.org/2000/svg"
   xmlns="http://www.w3.org/2000/svg"
   xmlns:sodipodi="http://sodipodi.sourceforge.net/DTD/sodipodi-0.dtd"
   xmlns:inkscape="http://www.inkscape.org/namespaces/inkscape"
   width="162.70898mm"
   height="78.636688mm"
   viewBox="0 0 576.5279 278.63393"
   id="svg5134"
   version="1.1"
   inkscape:version="0.91 r13725"
   sodipodi:docname="lamp-arm.svg"
   inkscape:export-filename="D:\OpenServer\domains\naturallook.flat\img\arm\lamp-arm.png"
   inkscape:export-xdpi="93.660004"
   inkscape:export-ydpi="93.660004">
  <defs
     id="defs5136" />
  <sodipodi:namedview
     id="base"
     pagecolor="#ffffff"
     bordercolor="#666666"
     borderopacity="1.0"
     inkscape:pageopacity="0.0"
     inkscape:pageshadow="2"
     inkscape:zoom="0.98994949"
     inkscape:cx="299.02939"
     inkscape:cy="87.893229"
     inkscape:document-units="px"
     inkscape:current-layer="layer1"
     showgrid="false"
     fit-margin-top="0"
     fit-margin-left="0"
     fit-margin-right="0"
     fit-margin-bottom="0"
     inkscape:window-width="1280"
     inkscape:window-height="962"
     inkscape:window-x="-8"
     inkscape:window-y="462"
     inkscape:window-maximized="1" />
  <metadata
     id="metadata5139">
    <rdf:RDF>
      <cc:Work
         rdf:about="">
        <dc:format>image/svg+xml</dc:format>
        <dc:type
           rdf:resource="http://purl.org/dc/dcmitype/StillImage" />
        <dc:title />
      </cc:Work>
    </rdf:RDF>
  </metadata>
  <g
     inkscape:label="Layer 1"
     inkscape:groupmode="layer"
     id="layer1"
     transform="translate(-83.164626,-73.045235)">
    <path
       d="m 180.17132,239.34564 0.8034,-9.1051 c 1.5412,-17.4666 -14.0973,-47.136 -19.696,-51.6456 -5.5987,-4.5096 -8.5346,1.713 -5.8473,3.6839 9.3719,6.8746 21.782,-8.1604 20.8825,-11.6818 l -1.5284,-5.9826 0.4235,-0.038 c 0.4731,2.4318 0.4167,3.2678 1.5911,5.8303 13.1624,7.3604 30.5818,-4.3112 24.1976,-7.4279 -4.6088,-2.2499 -6.2617,2.8188 -7.3014,15.3459 -1.7122,20.6286 -0.6358,35.5192 4.087,55.2464 -5.4012,3.2136 -11.2833,5.1148 -17.612,5.775 z"
       style="fill:none"
       id="path4144"
       inkscape:connector-curvature="0" />
    <path
       d="m 172.51612,239.55404 -4.5142,-32.2161 c -33.1101,-8.8293 -39.5317,-48.5801 -26.9065,-77.5162 12.6253,-28.9361 49.7795,-30.655505 69.8318,-14.7044 10.2135,8.1246 15.6881,21.8316 16.0889,36.2576 0.4499,16.1856 -5.7549,33.5676 -24.0999,50.6778 l 0.961,12.172 0.6137,14.4578 c -8.9323,7.8157 -19.4607,11.3103 -31.3844,10.895 l -0.5904,-0.024 z"
       style="fill:#f9da4e;fill-rule:evenodd"
       id="path4146"
       inkscape:connector-curvature="0" />
    <path
       d="m 199.84462,232.26384 -2.609,-15.561 -1.6016,-18.5783 c 7.6439,-5.2299 11.9515,-8.2483 16.6564,-16.4962 2.2816,-3.9997 4.608,-8.856 6.086,-13.6134 5.3147,-17.108 2.099,-34.6434 -9.129,-45.6449 -13.2378,-12.9705 -26.3673,-15.592 -47.5393,-13.3245 l 1.1064,-0.5375 c 15.8457,-6.5046 35.4098,-3.4957 48.1127,6.6093 10.2135,8.1246 15.6881,21.8316 16.0889,36.2576 0.4499,16.1856 -5.7549,33.5676 -24.0999,50.6778 l 0.961,12.172 0.6137,14.4578 c -1.5038,1.3159 -3.0529,2.5087 -4.6463,3.5813 z"
       style="fill:#f3cd0d;fill-rule:evenodd"
       id="path4148"
       inkscape:connector-curvature="0" />
    <path
       d="m 170.89642,227.99404 -2.8945,-20.6561 c -30.2513,-8.0671 -38.2204,-41.9451 -29.7422,-69.8048 2.2374,25.7862 5.8725,54.0828 31.9844,65.6407 l 0.6523,24.8202 z"
       style="fill:#f8e682;fill-rule:evenodd"
       id="path4150"
       inkscape:connector-curvature="0" />
    <path
       d="m 169.77952,180.29144 -19.5551,-15.8757 12.172,-2.4023 -1.4414,-15.8556 13.293,6.2461 3.5235,-16.6564 5.6055,15.0548 14.5744,-13.9337 -2.5626,14.5744 12.6525,-1.6016 -7.9943,12.7647 0,3e-4 c -0.9494,-0.2696 -1.7567,-0.1644 -2.4475,0.3186 l -5e-4,0 -6e-4,8e-4 c -0.6931,0.4848 -1.2694,1.3505 -1.7572,2.596 l 0,0 0,0.01 c -0.4936,1.2636 -0.8966,2.9191 -1.2365,4.9671 l 0,0.01 -0.012,0.077 c -0.038,0.2299 -0.075,0.4643 -0.1111,0.7041 l -0.01,0.057 c -5.0751,1.8425 -11.793,2.3482 -17.6652,-0.9354 -1.1744,-2.5625 -1.118,-3.3985 -1.5911,-5.8303 l -0.4235,0.038 1.5284,5.9826 c 0.4476,1.7529 -2.4029,6.3584 -6.5344,9.6944 z"
       style="fill:#faeb9c;fill-rule:evenodd"
       id="path4152"
       inkscape:connector-curvature="0" />
    <path
       d="m 180.17132,239.34564 0.8034,-9.1051 c 1.5412,-17.4666 -14.0973,-47.136 -19.696,-51.6456 -5.5987,-4.5096 -8.5346,1.713 -5.8473,3.6839 9.3719,6.8746 21.782,-8.1604 20.8825,-11.6818 l -1.5284,-5.9826 0.4235,-0.038 c 0.4731,2.4318 0.4167,3.2678 1.5911,5.8303 13.1624,7.3604 30.5818,-4.3112 24.1976,-7.4279 -4.6088,-2.2499 -6.2617,2.8188 -7.3014,15.3459 -1.7122,20.6286 -0.6358,35.5192 4.087,55.2464 -5.4012,3.2136 -11.2833,5.1148 -17.612,5.775 z"
       style="fill:none;stroke:#d79c07;stroke-width:2.12599993;stroke-linecap:butt;stroke-linejoin:miter;stroke-dasharray:none"
       id="path4154"
       inkscape:connector-curvature="0" />
    <path
       d="m 180.17132,239.34564 0.8034,-9.1051 c 1.5412,-17.4666 -14.0973,-47.136 -19.696,-51.6456 -5.5987,-4.5096 -8.5346,1.713 -5.8473,3.6839 9.3719,6.8746 21.782,-8.1604 20.8825,-11.6818 l -1.5284,-5.9826 0.4235,-0.038 c 0.4731,2.4318 0.4167,3.2678 1.5911,5.8303 13.1624,7.3604 30.5818,-4.3112 24.1976,-7.4279 -4.6088,-2.2499 -6.2617,2.8188 -7.3014,15.3459 -1.7122,20.6286 -0.6358,35.5192 4.087,55.2464 -5.4012,3.2136 -11.2833,5.1148 -17.612,5.775 z"
       style="fill:#f9e682;fill-rule:evenodd;stroke:#d79c07;stroke-width:2.12599993;stroke-linecap:butt;stroke-linejoin:miter;stroke-dasharray:none"
       id="path4156"
       inkscape:connector-curvature="0" />
    <path
       d="m 627.48612,313.16804 c -123.2748,0.43 -246.5496,0.86 -369.8244,1.2903 -7.3,0.73 -11.3706,2.2692 -16.3505,8.015 -1.3966,1.6115 -2.6172,3.5249 -3.8472,5.4502 -1.2299,1.9253 -2.351,4.0609 -3.5265,6.0913 -3.8804,6.3497 -11.1719,15.1405 -18.5947,17.3124 -2.3868,0.6979 -5.6424,0.3506 -7.7443,-0.9774 -0.9213,-0.582 -1.5562,-1.4414 -1.4236,-2.5932 0.2722,-2.3641 1.956,-2.7198 3.9702,-2.9953 8.4799,-1.16 18.0224,-23.4723 5.3105,-20.2272 -6.2504,1.5956 -11.1836,9.9643 -18.3878,12.1893 -3.8764,1.1973 -12.4781,4.1949 -16.2241,1.1984 -1.7589,-1.4068 -1.4655,-5.2015 0.2806,-6.4394 5.2073,-3.6913 10.6427,-2.5781 16.1827,-7.3863 2.4052,-2.0877 3.7625,-4.4606 4.7968,-7.357 -4.2845,-0.1712 -7.3669,0.6231 -10.072,1.1191 -6.2181,1.1401 -14.9902,0.3132 -19.8244,-4.0768 -1.3289,-1.2064 -2.5353,-2.8743 -3.4373,-4.4764 -0.902,-1.6022 -1.5024,-3.3849 -1.9185,-5.0361 -0.6143,-2.4372 -0.7727,-5.273 -0.3192,-7.751 0.5341,-2.9123 4.7628,-2.6014 5.9947,-0.7223 1.2989,1.9817 1.1226,4.3387 4.8762,6.9545 2.6762,1.8647 11.137,2.0594 13.989,1.279 0.9209,-0.2517 2.6407,-1.1446 3.1175,-2.1583 2.4489,-5.2081 -4.3594,-5.7934 -7.5141,-8.6332 -1.6055,-1.4448 -3.0747,-2.6101 -5.5156,-5.7554 -2.4409,-3.1454 -4.5947,-9.3439 -5.0361,-14.8683 -0.1595,-1.9996 -0.3605,-4.1307 -0.2398,-5.9154 0.1208,-1.7847 0.5023,-3.3451 0.9593,-4.7163 1.0808,-3.2445 4.1394,-5.8716 7.516,-5.5635 l -0.6188,-2.8239 -2.2382,0 -0.7194,-4.2366 -2.2383,-0.3997 -0.5595,-6.6348 c 12.1668,0.553 17.1062,-5.6968 26.1856,-13.6412 l 6.9919,9.8918 -0.2336,1.4933 c 5.0004,-3.4926 15.7644,2.3255 18.3535,5.2109 1.9976,2.2261 4.8892,4.7532 6.4744,6.3919 3.7508,3.8766 6.0984,4.9654 11.4309,5.7554 l 35.8918,1.0392 347.1066,-0.09 -3.0203,54.7931 z m -438.6005,-53.4118 c 0.3603,1.8848 -0.1284,4.2446 -0.051,5.9831 0.1896,4.2503 0.7135,6.4335 2.3182,10.3119 10.9995,13.951 34.9126,8.9132 32.934,-10.0721 -0.3067,-2.9452 -1.6276,-6.7465 -3.4373,-9.1128 -2.4894,-3.2553 -8.418,-4.3203 -10.8768,-7.3576 l -0.4516,2.8871 -1.8385,0.3197 -0.2398,5.036 -5.5956,1.0392 -12.7613,0.9655 z"
       style="fill:#000000;fill-rule:evenodd;fill-opacity:0.13675214"
       id="path4158"
       inkscape:connector-curvature="0" />
    <path
       d="m 204.49092,228.68254 1.2027,7.1221 -2.162,13.8214 -1.8385,0.3198 -0.2398,5.036 -5.5956,1.0392 -13.5108,1.0222 -2.7964,-0.3827 -1.279,-5.8354 -2.2382,0 -0.7194,-4.2367 -2.2383,-0.3997 -0.5595,-6.6347 c 12.1668,0.553 22.8954,-2.9271 31.9748,-10.8715 z"
       style="fill:#d6d5d3;fill-rule:evenodd"
       id="path4160"
       inkscape:connector-curvature="0" />
    <path
       d="m 204.49092,228.68254 1.2027,7.1221 -2.162,13.8214 -1.8385,0.3198 -0.2398,5.036 -2.7978,0.5196 -15.1464,1.0689 0.01,-0.2514 15.1784,-1.6172 0.1582,-3.3587 c -5.0281,0.3492 -9.8572,0.8575 -14.8791,0.4422 5.332,-0.8799 10.6461,-1.8403 16.1223,-3.2565 l 0.1202,-3.5379 c -6.616,0.4961 -13.8279,1.6577 -20.4134,0.8445 6.6764,-0.7118 13.7055,-2.1439 19.6515,-4.3824 l -0.684,-8.4864 0,-3e-4 c 1.974,-1.2469 3.8817,-2.6736 5.722,-4.2837 z"
       style="fill:#7e8ca6;fill-rule:evenodd"
       id="path4162"
       inkscape:connector-curvature="0" />
    <path
       d="m 620.28072,309.68484 c -123.2748,0.43 -246.5496,0.86 -369.8243,1.2903 -7.3001,0.73 -11.3707,2.2692 -16.3506,8.015 -1.3966,1.6115 -2.6172,3.5249 -3.8471,5.4502 -1.23,1.9253 -2.3511,4.0609 -3.5266,6.0913 -3.8804,6.3496 -11.1719,15.1404 -18.5947,17.3123 -2.3868,0.6979 -5.6424,0.3507 -7.7443,-0.9773 -0.9212,-0.582 -1.5562,-1.4415 -1.4235,-2.5932 0.2721,-2.3641 1.9559,-2.7198 3.9702,-2.9953 8.4798,-1.16 18.0224,-23.4723 5.3104,-20.2272 -6.2504,1.5956 -11.1835,9.9643 -18.3878,12.1892 -3.8764,1.1974 -12.4781,4.195 -16.2241,1.1985 -1.7589,-1.4068 -1.4655,-5.2015 0.2806,-6.4394 5.2073,-3.6913 10.6427,-2.5781 16.1828,-7.3863 2.4052,-2.0877 3.7624,-4.4606 4.7967,-7.357 -4.2845,-0.1712 -7.3669,0.623 -10.072,1.1191 -6.2181,1.1401 -14.9902,0.3132 -19.8244,-4.0768 -1.3289,-1.2064 -2.5353,-2.8743 -3.4373,-4.4765 -0.902,-1.6021 -1.5024,-3.3848 -1.9185,-5.036 -0.6142,-2.4372 -0.7727,-5.273 -0.3192,-7.751 0.5341,-2.9124 4.7628,-2.6014 5.9947,-0.7223 1.2989,1.9817 1.1226,4.3387 4.8762,6.9545 2.6762,1.8646 11.137,2.0594 13.989,1.279 0.921,-0.2517 2.6407,-1.1446 3.1175,-2.1583 2.4489,-5.2081 -4.3594,-5.7934 -7.5141,-8.6332 -1.6055,-1.4448 -3.0747,-2.6101 -5.5156,-5.7555 -2.4409,-3.1453 -4.5947,-9.3438 -5.036,-14.8682 -0.1596,-1.9996 -0.3606,-4.1307 -0.2398,-5.9154 0.1207,-1.7847 0.5022,-3.3451 0.9592,-4.7163 1.3416,-4.0271 5.7302,-7.1047 9.9921,-4.7962 2.8395,1.5378 1.5571,5.8161 1.6787,8.5533 0.1896,4.2502 0.7135,6.4335 2.3182,10.3118 10.9995,13.951 34.9126,8.9133 32.934,-10.072 -0.3067,-2.9452 -1.6276,-6.7465 -3.4373,-9.1128 -3.1861,-4.1667 -12.0072,-4.7449 -11.9741,-10.4636 0.08,-13.7367 17.5326,-4.9076 20.9276,-1.1242 1.9976,2.2261 4.8892,4.7532 6.4744,6.3919 3.7508,3.8766 6.0984,4.9654 11.431,5.7554 l 35.8917,1.0392 347.1066,-0.09 -3.0203,54.7931 z"
       style="fill:#f5bcac;fill-rule:evenodd"
       id="path4164"
       inkscape:connector-curvature="0" />
    <path
       d="m 659.69252,316.69744 -11.0231,0 0,7.0563 -28.9959,-3.0555 4.4566,-80.844 24.344,1.1211 0.1602,3.8437 11.0582,0 0,71.8784 z"
       style="fill:#da6459;fill-rule:evenodd"
       id="path4166"
       inkscape:connector-curvature="0" />
    <path
       d="m 648.63422,244.81904 0.035,71.8784 3.168,0 0,-71.8784 -3.2032,0 z"
       style="fill:#c15d4e;fill-rule:evenodd"
       id="path4168"
       inkscape:connector-curvature="0" />
    <path
       d="m 205.69362,235.80464 c 5.4114,-1.5846 14.3722,3.3925 16.7037,5.9907 1.9976,2.2261 4.8892,4.7532 6.4744,6.3919 3.7508,3.8766 6.0984,4.9654 11.431,5.7554 l 35.8917,1.0392 347.1066,-0.09 -0.635,11.5202 -310.6547,0.6412 c -16.1368,-0.3206 -32.2736,-0.6412 -48.4104,-0.9617 -19.3898,-1.9117 -28.5262,-2.1167 -41.1191,-17.2282 -4.1335,-5.3736 -6.6421,-7.7714 -12.5994,-10.8759 l -4.1888,-2.1827 z"
       style="fill:#efac9d;fill-rule:evenodd"
       id="path4170"
       inkscape:connector-curvature="0" />
    <path
       d="m 620.52932,305.17014 c -124.1609,0.3208 -241.6065,0.6244 -365.7677,0.9456 -13.1678,0.1548 -18.8918,3.2698 -23.4533,9.7892 l -7.2827,10.4082 c 5.335,-12.8891 9.9827,-22.4543 25.1359,-22.5813 l 38.2836,-0.3212 333.3444,-2.9639 -0.2602,4.7234 z"
       style="fill:#f7c4b7;fill-rule:evenodd"
       id="path4172"
       inkscape:connector-curvature="0" />
    <path
       d="m 620.82352,299.83214 27.8385,2.2371 0,7.0345 -28.2161,-2.48 0.3742,-6.7916 z"
       style="fill:#e36c67;fill-rule:evenodd"
       id="path4174"
       inkscape:connector-curvature="0" />
    <path
       d="m 625.57722,321.32054 0.1545,4.2179 28.508,3.043 0,-6.4063 5.4528,0 0,-5.4777 -11.0231,0 0,7.0563 -23.0922,-2.4332 z"
       style="fill:#000000;fill-rule:evenodd;fill-opacity:0.13725491"
       id="path4176"
       inkscape:connector-curvature="0" />
    <path
       d="m 169.77952,180.29144 -19.5551,-15.8757 12.172,-2.4023 -1.4414,-15.8556 13.293,6.2461 3.5235,-16.6564 5.6055,15.0548 14.5744,-13.9337 -2.5626,14.5744 12.6525,-1.6016 -7.9943,12.7647 0,3e-4 c -0.9494,-0.2696 -1.7567,-0.1644 -2.4475,0.3186 l -5e-4,0 -6e-4,8e-4 c -0.6931,0.4848 -1.2694,1.3505 -1.7572,2.596 l 0,0 0,0.01 c -0.4936,1.2636 -0.8966,2.9191 -1.2365,4.9671 l 0,0.01 -0.012,0.077 c -0.038,0.2299 -0.075,0.4643 -0.1111,0.7041 l -0.01,0.057 c -5.0751,1.8425 -11.793,2.3482 -17.6652,-0.9354 -1.1744,-2.5625 -1.118,-3.3985 -1.5911,-5.8303 l -0.4235,0.038 1.5284,5.9826 c 0.4476,1.7529 -2.4029,6.3584 -6.5344,9.6944 z"
       style="fill:none;stroke:#d79c07;stroke-width:2.12599993;stroke-linecap:butt;stroke-linejoin:miter;stroke-dasharray:none"
       id="path4178"
       inkscape:connector-curvature="0" />
    <path
       d="m 180.17132,239.34564 0.8034,-9.1051 c 1.5412,-17.4666 -14.0973,-47.136 -19.696,-51.6456 -5.5987,-4.5096 -8.5346,1.713 -5.8473,3.6839 9.3719,6.8746 21.782,-8.1604 20.8825,-11.6818 l -1.5284,-5.9826 0.4235,-0.038 c 0.4731,2.4318 0.4167,3.2678 1.5911,5.8303 13.1624,7.3604 30.5818,-4.3112 24.1976,-7.4279 -4.6088,-2.2499 -6.2617,2.8188 -7.3014,15.3459 -1.7122,20.6286 -0.6358,35.5192 4.087,55.2464 -5.4012,3.2136 -11.2833,5.1148 -17.612,5.775 z"
       style="fill:none;stroke:#d79c07;stroke-width:2.12599993;stroke-linecap:butt;stroke-linejoin:miter;stroke-dasharray:none"
       id="path4180"
       inkscape:connector-curvature="0" />
    <path
       d="m 180.17132,239.34564 0.8034,-9.1051 c 1.5412,-17.4666 -14.0973,-47.136 -19.696,-51.6456 -5.5987,-4.5096 -8.5346,1.713 -5.8473,3.6839 9.3719,6.8746 21.782,-8.1604 20.8825,-11.6818 l -1.5284,-5.9826 0.4235,-0.038 c 0.4731,2.4318 0.4167,3.2678 1.5911,5.8303 13.1624,7.3604 30.5818,-4.3112 24.1976,-7.4279 -4.6088,-2.2499 -6.2617,2.8188 -7.3014,15.3459 -1.7122,20.6286 -0.6358,35.5192 4.087,55.2464 -5.4012,3.2136 -11.2833,5.1148 -17.612,5.775 z"
       style="fill:none"
       id="path4182"
       inkscape:connector-curvature="0" />
    <path
       d="m 101.79712,130.21014 -18.247803,-5.1461"
       style="fill:none;stroke:#ffffff;stroke-width:2.83459997;stroke-linecap:butt;stroke-linejoin:miter;stroke-dasharray:none"
       id="path4184"
       inkscape:connector-curvature="0" />
    <path
       d="m 237.34502,85.515435 13.1097,-12.4702"
       style="fill:#ffffff;fill-rule:evenodd"
       id="path4190"
       inkscape:connector-curvature="0" />
    <path
       d="m 262.49482,170.02124 16.8166,4.9649"
       style="fill:#ffffff;fill-rule:evenodd;stroke:#ffffff;stroke-width:2.83459997;stroke-linecap:butt;stroke-linejoin:miter;stroke-dasharray:none"
       id="path4194"
       inkscape:connector-curvature="0" />
    <path
       d="m 114.02882,193.88474 -13.9337,13.7735"
       style="fill:none;stroke:#ffffff;stroke-width:2.83459997;stroke-linecap:butt;stroke-linejoin:miter;stroke-dasharray:none"
       id="path4196"
       inkscape:connector-curvature="0" />
  </g>
</svg>
