<?xml version="1.0" encoding="UTF-8" standalone="no"?>
<!-- Created with Inkscape (http://www.inkscape.org/) -->

<svg
   xmlns:dc="http://purl.org/dc/elements/1.1/"
   xmlns:cc="http://creativecommons.org/ns#"
   xmlns:rdf="http://www.w3.org/1999/02/22-rdf-syntax-ns#"
   xmlns:svg="http://www.w3.org/2000/svg"
   xmlns="http://www.w3.org/2000/svg"
   xmlns:sodipodi="http://sodipodi.sourceforge.net/DTD/sodipodi-0.dtd"
   xmlns:inkscape="http://www.inkscape.org/namespaces/inkscape"
   width="52.180943mm"
   height="116.86399mm"
   viewBox="0 0 184.8931 414.085"
   id="svg7276"
   version="1.1"
   inkscape:version="0.91 r13725"
   sodipodi:docname="cake-arm.svg">
  <defs
     id="defs7278" />
  <sodipodi:namedview
     id="base"
     pagecolor="#ffffff"
     bordercolor="#666666"
     borderopacity="1.0"
     inkscape:pageopacity="0.0"
     inkscape:pageshadow="2"
     inkscape:zoom="3.959798"
     inkscape:cx="142.33111"
     inkscape:cy="188.79526"
     inkscape:document-units="px"
     inkscape:current-layer="layer1"
     showgrid="false"
     fit-margin-top="0"
     fit-margin-left="0"
     fit-margin-right="0"
     fit-margin-bottom="0"
     inkscape:window-width="1280"
     inkscape:window-height="962"
     inkscape:window-x="-8"
     inkscape:window-y="462"
     inkscape:window-maximized="1" />
  <metadata
     id="metadata7281">
    <rdf:RDF>
      <cc:Work
         rdf:about="">
        <dc:format>image/svg+xml</dc:format>
        <dc:type
           rdf:resource="http://purl.org/dc/dcmitype/StillImage" />
        <dc:title></dc:title>
      </cc:Work>
    </rdf:RDF>
  </metadata>
  <g
     inkscape:label="Layer 1"
     inkscape:groupmode="layer"
     id="layer1"
     transform="translate(346.73226,168.96601)">
    <path
       d="m -215.50993,176.30629 c 4.79,-20.128 12.4263,-36.9918 20.8959,-55.9752 2.0854,-4.674 6.0613,-16.3034 8.3163,-21.2207 2.2546,-4.9175 4.0008,-5.6577 5.1619,-8.1731 1.1607,-2.5152 1.0034,-4.2052 1.7203,-6.7391 0.7175,-2.5339 1.3595,-5.3456 2.581,-8.4597 1.2217,-3.1142 3.2961,-7.4047 4.7318,-10.1804 1.4358,-2.7757 2.9291,-4.2052 3.8713,-6.4522 0.9422,-2.247 1.1948,-4.54 1.7209,-6.8825 1.0562,-4.7055 2.6677,-8.7937 3.8713,-13.335 0.5298,-1.999 0.6928,-4.3317 0.7169,-5.7351 0.024,-1.4037 0.3753,-1.9488 -0.5735,-2.5809 -0.9487,-0.6325 -2.7201,-0.6713 -4.1581,-0.5738 -3.8316,0.2597 -5.7413,2.1419 -8.4597,4.5885 -1.4349,1.2914 -3.1918,2.7348 -4.445,4.3013 -1.2535,1.5667 -1.5514,2.0755 -3.011,5.0187 -1.4598,2.9432 -4.1105,9.057 -5.7356,12.6179 -1.6251,3.5605 -3.0107,6.4275 -4.0147,8.7465 -1.0041,2.3188 -1.323,3.964 -2.0075,5.1619 -0.6846,1.1977 -1.3615,1.3136 -2.0072,1.8638 -0.6461,0.5502 -1.1753,1.2963 -1.8641,1.4341 -0.6888,0.1374 -0.9632,0.9493 -1.7206,-0.7172 -0.7575,-1.6662 -1.8136,-4.2381 -2.581,-8.7463 -0.7673,-4.5085 -2.1274,-9.7376 -2.0075,-18.2101 0.1199,-8.4722 2.0551,-24.8054 2.7244,-32.4048 0.6693,-7.5996996 0.7648,-8.4593996 1.2903,-13.19159956 0.5259,-4.73180004 1.4579,-10.94280044 1.8641,-15.19880044 0.4065,-4.2556 0.5496,-8.1643 0.5734,-10.3235 0.024,-2.1594 -0.117,-1.5942 -0.43,-2.5809 -0.3129,-0.987 -0.9799,-2.2941 -1.4337,-3.2981 -0.4541,-1.0038 -0.7019,-1.9642 -1.2904,-2.7241 -0.5887,-0.7603 -1.3558,-1.3728 -2.1509,-1.7206 -0.7954,-0.3479 -1.565,-0.4612 -2.4375,-0.2869 -0.8728,0.1743 -1.6209,0.3056 -2.581,1.2903 -0.9603,0.9851 -2.3108,3.0682 -3.0109,4.445 -0.7007,1.3768 -0.5496,1.5052 -1.1472,3.7281 -0.5975,2.223 -1.8632,6.6861 -2.4375,9.6069 -0.5746,2.9209 -0.5494,5.2784 -1.0038,7.8860004 -0.4543,2.6076 -1.0989,5.2804 -1.7206,7.74290004 -0.6216,2.46239996 -1.4567,4.51219996 -2.0075,7.02589996 -0.5505,2.5135 -0.8359,3.4617 -1.2903,8.0293996 -0.4544,4.5678 -1.1713,15.3658 -1.4338,19.357 -0.263,3.9914 0.3175,3.4764 -0.1437,4.5884 -0.8042,1.9403 -6.8258,2.5314 -7.1691,-0.1434 -0.3487,-2.7173 -0.1672,-6.4763 -0.2869,-14.1951 -0.1193,-7.7187 -0.191,-22.3434996 -0.43,-32.1181996 -0.2389,-9.7747004 -0.5717,-21.2202004 -1.0037,-26.5263004 -0.3884,-4.771 -3.9643,-8.4966 -8.8898,-8.6032 -4.1788,-0.0901 -6.1296,3.2491 -6.309,6.3091 -0.3841,6.5557 -0.7169,28.9834004 -1.0038,35.8461004 -0.2868,6.8629 -0.5734,2.7442 -0.7169,5.3053 -0.1434,2.5614 -0.2148,5.6149 -0.1431,10.0368996 0.071,4.4223 0.4541,11.9965 0.5734,16.4894 0.1194,4.4929 0.5032,8.3078 0.1432,10.4669 -0.2789,1.6748 -3.1904,2.5989 -4.1579,1.1472 -0.9263,-1.3889 -2.1965,-4.534 -3.1546,-7.3125 -0.9582,-2.7785 -1.5531,-5.9258 -2.581,-9.32 -1.0278,-3.3942 -1.6007,-5.4956 -3.5847,-11.0407 -3.2559,-9.1017996 -7.4075,-29.8222 -13.9082,-36.8501 -0.8926,-0.9649 -1.8499,-1.751 -2.7243,-2.1507 -0.8745,-0.3996 -1.3902,-0.3143 -2.2941,-0.1434 -0.9043,0.1709 -2.1433,0.6891 -3.011,1.1472 -0.8682,0.4581 -1.5874,0.94 -2.1509,1.5772 -0.5638,0.6372 -0.9505,1.0448 -1.1472,2.1506 -0.1964,1.1058 -0.4343,2.1541 0,4.3019 0.4343,2.1472 1.601,4.97 2.5809,8.4594004 0.98,3.4895 2.342,8.9377 3.2982,12.4745 2.8374,10.4994996 5.6996,20.6857996 8.8897,31.1146996 1.243,4.0638 1.8635,6.5937 2.4375,9.0332 0.5737,2.4395 0.7883,3.8202 1.0038,5.5919 0.2151,1.7716 0.6054,3.7964 0.2865,5.0185 -0.4688,1.798 -3.3854,2.7053 -4.5881,1.2906 -4.9918,-5.8734 -10.1126,-14.5455 -14.1951,-21.221 -3.1447,-5.1424 -5.2058,-10.3683 -8.89,-15.3423 -1.4377,-1.9411 -2.2345,-2.8182 -3.2978,-3.5847 -1.0633,-0.7662 -1.9355,-0.7866 -2.8675,-0.8603 -0.9324,-0.0734 -1.8128,0.0834 -2.5813,0.4303 -0.7682,0.347 -1.3912,0.8311 -1.8638,1.5772 -0.4725,0.7461 -0.9102,1.5304 -0.8606,2.7244 0.05,1.1939 0.1174,1.6189 1.1472,4.1581 1.0301,2.5393 3.2499,7.3123 5.0185,11.0407 1.7685,3.7284 3.8177,7.7476 5.5922,11.3275 1.7742,3.5793 3.2077,6.4979 5.0539,10.15 5.1899,10.2654 9.602,21.2848 13.4844,32.1324 1.6307,4.5567 2.34,9.6985 4.0164,14.6319 1.6761,4.9332 4.6834,11.0852 6.025,14.9185 5.6611,16.175 4.4666,34.8519 1.7737,53.1913 l -13.5049,-0.9942 -3.2068,29.4659 6.6135,0.0904 -0.5102,43.8976 67.3792,0 0.5001,-43.0098 3.6045,-0.1134 1.3385,-24.7575 -12.6635,-0.932 z"
       style="fill:#000000;fill-rule:evenodd;fill-opacity:0.11764706"
       id="path416"
       inkscape:connector-curvature="0" />
    <path
       d="m -271.92953,-162.04071 c 13.9288,0 25.2246,10.2918 25.2246,22.9828 0,12.6907 -11.2958,22.9824 -25.2246,22.9824 -13.9292,0 -25.225,-10.2917 -25.225,-22.9824 0,-12.691 11.2958,-22.9828 25.225,-22.9828 z m 1.8416,14.4142 c 5.1293,0 9.2892,3.6578 9.2892,8.168 0,4.5102 -4.1599,8.168 -9.2892,8.168 -5.1293,0 -9.2891,-3.6578 -9.2891,-8.168 0,-4.5102 4.1598,-8.168 9.2891,-8.168 z"
       style="fill:#000000;fill-rule:evenodd;fill-opacity:0.11764706"
       id="path418"
       inkscape:connector-curvature="0" />
    <path
       d="m -326.03643,-86.29361 c -1.3479,0 -2.4134,-1.959 -1.1991,-2.7178 0.2129,-0.1333 1.5186,-0.3195 1.5188,-0.3198 0.024,-0.0235 -1.1823,-0.9638 -1.1191,-1.5188 0.066,-0.5774 0.8501,-1.3589 1.5188,-1.3589 2.1694,0 0.5159,0.2874 0.3997,-1.1191 -0.1919,-2.3233 2.1413,-1.6214 3.2774,-1.5188 0.2637,0.0235 -0.4249,-1.0004 -0.3197,-1.9185 0.1692,-1.4797 2.5486,-1.0729 3.5172,-0.8793 0,-1.7255 -1.1917,-1.4947 0.7994,-2.9577 0.9992,-0.7344 2.8556,0.2744 2.6379,-0.0799 -0.3949,-0.6418 0.2517,-1.302 0.4796,-1.7586 0.4448,-0.8915 1.3723,-0.8127 2.2383,-0.4797 0.7378,0.2835 1.8385,1.9205 1.8385,0.3997 0,-2.0072 3.1964,-1.8762 3.5172,-0.3997 0.4048,1.8641 0.584,-0.3441 1.0392,-0.7993 0.9272,-0.9272 2.6666,0.4433 3.1975,1.1191 0.8782,-0.8782 2.8046,-2.3913 4.2367,-0.9593 1.6911,1.6912 -0.137,2.0569 2.5579,0.5596 0.8867,-0.4927 2.2618,-0.0465 2.7978,0.5596 0.8961,1.0136 0.085,2.6889 1.1192,1.5188 1.9921,-2.2539 3.7706,1.5644 4.098,2.969 0.3946,-1.1838 3.8503,0.5198 3.8503,2.2915 0,1.0208 -0.6134,1.5279 -0.5216,1.4474 0.6248,-0.5457 1.5449,-0.2163 2.206,0.0402 0.7599,0.2945 1.7923,2.1878 1.3234,3.0555 -0.2851,0.5284 -1.0159,0.6029 -0.04,0.6029 2.4667,0 2.8338,2.3182 1.1231,3.7792 1.2282,0.3092 2.0772,0.4504 2.6869,1.6483 0.2427,0.4762 0.565,1.9981 -0.04,2.3318 -0.6591,0.3631 -1.1597,0.2202 0.04,0.5227 0.8147,0.2055 1.5135,0.525 1.8049,1.3266 0.4609,1.2688 -0.7793,2.1232 -1.6844,2.6938 0.5587,0.5626 1.8046,0.6227 1.8046,1.7288 0,1.1248 0.2692,2.0444 -0.9224,2.4523 -0.417,0.1428 -1.0704,0.1723 -0.2407,0.4824 0.7174,0.2679 0.9626,0.7881 0.9626,1.5679 0,1.2237 -1.4748,1.6373 -2.4063,2.0103 0,0.6897 0.8031,1.5117 0.5616,2.4523 -0.235,0.9138 -0.5273,1.4876 -1.5242,1.4876 -0.4561,0 -0.8694,-0.3773 -0.5213,0.201 0.2851,0.4731 0.9479,1.0544 1.0026,1.6483 0.1395,1.5134 -1.6807,1.7949 -2.7672,1.6081 0.2285,0.9272 0.01,1.9945 -0.6817,2.6133 -1.0041,0.9022 -1.5854,1.1089 -2.9276,0.8844 0.6477,0.8719 0.1377,2.0143 -0.4011,2.734 -0.5834,0.7787 -1.5126,0.7801 -2.4064,0.4824 -0.4739,-0.1579 -0.9793,-1.2571 -0.8022,-0.4422 0.1525,0.7002 0,1.4083 -0.5213,1.8896 -0.8725,0.8073 -2.1688,0.2577 -3.1283,-0.1207 0,1.483 -0.9624,2.4925 -2.4463,2.4925 -1.2084,0 -1.334,-1.685 -1.5239,0.0805 -0.089,0.8265 -0.8419,1.4675 -1.7246,1.2866 -1.067,-0.2183 -1.3087,-2.1263 -1.4839,-0.7639 -0.1729,1.3433 -3.4189,0.9184 -3.2083,-0.764 -0.05,0.3966 -0.4096,1.0177 -0.8022,1.0857 -0.3858,0.0666 -0.8178,-0.089 -1.2033,-0.1208 -0.5712,-0.0467 -0.9119,-0.636 -1.243,-1.1256 0,1.2314 -1.921,1.7351 -2.5668,0.7639 -0.2058,-0.3098 -0.1686,-1.277 -0.5615,-1.0051 -0.739,0.5119 -1.2033,1.2574 -2.3261,0.4422 -0.3093,-0.2248 -0.762,-0.7637 -0.762,-1.1659 0,-0.3691 -3.3287,0.5247 -3.3287,-2.0103 0,-0.0638 -2.0418,0.4563 -2.5265,-0.8039 -0.5899,-1.533 0.7523,-0.7603 -0.9227,-0.8442 -1.6591,-0.0833 -0.4345,-2.3321 -1.7243,-2.3321 -2.3151,0 -2.4233,-2.3317 -1.6444,-2.3317 -1.1012,-0.04 -1.3496,0.0493 -2.0843,-0.2614 -0.6522,-0.2761 -1.19,-0.8943 -0.9825,-1.6483 0.07,-0.2543 0.5015,-0.7059 0.5015,-0.8643 -1.1594,-0.4414 -2.3718,-0.5369 -3.0493,-1.5276 -0.3027,-0.4425 -0.079,-1.2464 0.4009,-1.4876 1.2602,-0.6327 -0.7291,-0.7745 -1.2031,-1.4877 -0.5266,-0.792 -0.7942,-1.6007 0.1202,-2.2915 -0.5666,-0.0896 -2.4383,-0.9567 -1.6843,-1.8493 0.3138,-0.3719 1.8218,-0.6299 1.8448,-0.7639 0.016,-0.0925 -1.9483,-1.2484 -2.2057,-1.6081 -0.4858,-0.6784 0.8147,-1.3811 1.2433,-1.4877 1.2935,-0.3217 -3.1595,-2.9993 -0.2007,-3.6986 2.0619,-0.4876 -1.6279,-2.7417 1.7246,-3.1759 0.1335,-0.0173 -0.138,-0.4244 -0.2004,-0.4825 -1.2104,-1.1245 0.6565,-2.0906 1.7932,-2.0098 z"
       style="fill:#000000;fill-rule:evenodd;fill-opacity:0.11764706"
       id="path420"
       inkscape:connector-curvature="0" />
    <path
       d="m -334.81793,-90.04351 c -1.3478,0 -2.4134,-1.959 -1.199,-2.7179 0.2129,-0.1332 1.5185,-0.3194 1.5188,-0.3197 0.024,-0.0236 -1.1823,-0.9638 -1.1191,-1.5188 0.066,-0.5774 0.8501,-1.359 1.5188,-1.359 2.1693,0 0.5159,0.2875 0.3997,-1.1191 -0.1919,-2.3233 2.1413,-1.6214 3.2774,-1.5188 0.2636,0.0235 -0.4249,-1.0003 -0.3198,-1.9185 0.1693,-1.4797 2.5487,-1.0729 3.5173,-0.8793 0,-1.7254 -1.1917,-1.4947 0.7993,-2.9576 0.9992,-0.7345 2.8557,0.2743 2.638,-0.08 -0.3949,-0.6417 0.2517,-1.3019 0.4796,-1.7586 0.4447,-0.8915 1.3722,-0.8127 2.2382,-0.4796 0.7379,0.2834 1.8386,1.9205 1.8386,0.3997 0,-2.0072 3.1963,-1.8763 3.5172,-0.3997 0.4048,1.864 0.5839,-0.3441 1.0392,-0.7994 0.9272,-0.9272 2.6665,0.4433 3.1975,1.1191 0.8781,-0.8781 2.8046,-2.3913 4.2366,-0.9592 1.6912,1.6911 -0.1369,2.0568 2.558,0.5595 0.8867,-0.4926 2.2618,-0.0464 2.7978,0.5596 0.896,1.0137 0.084,2.6889 1.1191,1.5188 1.9922,-2.2538 3.7707,1.5644 4.0981,2.969 0.3945,-1.1837 3.8503,0.5199 3.8503,2.2915 0,1.0208 -0.6135,1.5279 -0.5216,1.4474 0.6247,-0.5457 1.5449,-0.2163 2.2059,0.0403 0.76,0.2945 1.7924,2.1877 1.3235,3.0554 -0.2852,0.5284 -1.0159,0.603 -0.04,0.603 2.4668,0 2.8338,2.3181 1.1231,3.7791 1.2283,0.3093 2.0773,0.4504 2.687,1.6484 0.2426,0.4762 0.5649,1.9981 -0.04,2.3317 -0.659,0.3632 -1.1596,0.2203 0.04,0.5227 0.8147,0.2056 1.5134,0.525 1.8048,1.3267 0.4609,1.2687 -0.7792,2.1231 -1.6843,2.6937 0.5587,0.5627 1.8045,0.6228 1.8045,1.7289 0,1.1248 0.2693,2.0443 -0.9224,2.4522 -0.417,0.1429 -1.0704,0.1724 -0.2407,0.4825 0.7175,0.2679 0.9627,0.788 0.9627,1.5678 0,1.2237 -1.4749,1.6373 -2.4063,2.0104 0,0.6896 0.803,1.5117 0.5615,2.4522 -0.235,0.9139 -0.5272,1.4876 -1.5242,1.4876 -0.4561,0 -0.8694,-0.3773 -0.5213,0.201 0.2852,0.4731 0.9479,1.0545 1.0026,1.6483 0.1395,1.5135 -1.6806,1.7949 -2.7671,1.6081 0.2284,0.9273 0.01,1.9945 -0.6818,2.6133 -1.004,0.9023 -1.5854,1.1089 -2.9276,0.8844 0.6477,0.8719 0.1378,2.0143 -0.4011,2.734 -0.5834,0.7787 -1.5126,0.7801 -2.4063,0.4825 -0.474,-0.1579 -0.9794,-1.2572 -0.8022,-0.4422 0.1525,0.7001 0,1.4082 -0.5213,1.8896 -0.8725,0.8073 -2.1688,0.2576 -3.1283,-0.1208 0,1.4831 -0.9624,2.4925 -2.4463,2.4925 -1.2084,0 -1.334,-1.6849 -1.5239,0.0805 -0.089,0.8266 -0.8419,1.4675 -1.7246,1.2867 -1.067,-0.2183 -1.3088,-2.1263 -1.484,-0.764 -0.1729,1.3434 -3.4188,0.9184 -3.2082,-0.7639 -0.05,0.3965 -0.4096,1.0176 -0.8022,1.0856 -0.3858,0.0667 -0.8178,-0.089 -1.2033,-0.1207 -0.5712,-0.0468 -0.9119,-0.6361 -1.243,-1.1256 0,1.2313 -1.9211,1.735 -2.5668,0.7639 -0.2058,-0.3098 -0.1687,-1.277 -0.5615,-1.0052 -0.739,0.512 -1.2034,1.2575 -2.3262,0.4422 -0.3092,-0.2248 -0.7619,-0.7636 -0.7619,-1.1659 0,-0.369 -3.3287,0.5247 -3.3287,-2.0103 0,-0.0638 -2.0418,0.4564 -2.5266,-0.8039 -0.5898,-1.533 0.7524,-0.7602 -0.9226,-0.8442 -1.6592,-0.0833 -0.4346,-2.332 -1.7243,-2.332 -2.3151,0 -2.4234,-2.3318 -1.6444,-2.3318 -1.1013,-0.04 -1.3496,0.0493 -2.0843,-0.2613 -0.6523,-0.2761 -1.19,-0.8944 -0.9825,-1.6484 0.07,-0.2543 0.5014,-0.7058 0.5014,-0.8643 -1.1594,-0.4413 -2.3717,-0.5369 -3.0492,-1.5276 -0.3027,-0.4425 -0.079,-1.2464 0.4008,-1.4876 1.2603,-0.6327 -0.7291,-0.7744 -1.203,-1.4876 -0.5267,-0.792 -0.7943,-1.6007 0.1202,-2.2915 -0.5667,-0.0896 -2.4384,-0.9567 -1.6844,-1.8494 0.3138,-0.3719 1.8219,-0.6298 1.8448,-0.7639 0.016,-0.0924 -1.9482,-1.2484 -2.2056,-1.6081 -0.4859,-0.6783 0.8147,-1.381 1.2433,-1.4876 1.2934,-0.3218 -3.1595,-2.9994 -0.2007,-3.6987 2.0619,-0.4875 -1.628,-2.7416 1.7246,-3.1759 0.1335,-0.0173 -0.1381,-0.4243 -0.2005,-0.4825 -1.2103,-1.1245 0.6566,-2.0905 1.7932,-2.0097 z"
       style="fill:#fee0bd;fill-rule:evenodd"
       id="path422"
       inkscape:connector-curvature="0" />
    <path
       d="m -277.62183,-168.96601 c 13.3597,0 24.194,10.838 24.194,24.2019 0,13.3639 -10.8343,24.2019 -24.194,24.2019 l -0.1193,-0.001 c 12.5283,-0.0643 22.6698,-10.8765 22.6698,-24.2005 0,-0.4428 -0.012,-0.8827 -0.034,-1.3195 -0.6032,11.3638 -9.3773,20.3831 -20.1099,20.3831 -11.1231,0 -20.1441,-9.6874 -20.1441,-21.6326 0,-11.4857 8.3401,-20.882 18.8697,-21.5887 -0.396,-0.0249 -0.7943,-0.0402 -1.1954,-0.0434 l 0.063,-8e-4 z m -1.2807,16.6039 c 4.1627,0 7.5382,3.206 7.5382,7.1592 0,3.9529 -3.3755,7.1589 -7.5382,7.1589 -4.1624,0 -7.5382,-3.206 -7.5382,-7.1589 0,-3.9532 3.3758,-7.1592 7.5382,-7.1592 z m -2.6901,31.4734 c -11.4709,-1.8955 -20.2232,-11.8644 -20.2232,-23.8754 0,-12.0109 8.7523,-21.9798 20.2232,-23.8754 -10.8014,1.8959 -19.0428,11.8645 -19.0428,23.8754 0,12.011 8.2414,21.9796 19.0428,23.8754 z"
       style="fill:#e7ce8e;fill-rule:evenodd"
       id="path424"
       inkscape:connector-curvature="0" />
    <path
       d="m -277.85343,-168.96601 c 0.4578,0 0.9122,0.0159 1.3635,0.0442 -10.5296,0.7067 -18.8697,10.103 -18.8697,21.5887 0,11.9452 9.021,21.6326 20.1441,21.6326 10.7326,0 19.5067,-9.0193 20.1099,-20.3831 0.022,0.4368 0.034,0.8767 0.034,1.3195 0,13.3639 -10.2022,24.2019 -22.7821,24.2019 -12.5799,0 -22.782,-10.838 -22.782,-24.2019 0,-13.3639 10.2021,-24.2019 22.782,-24.2019 z"
       style="fill:#efc3d7;fill-rule:evenodd"
       id="path426"
       inkscape:connector-curvature="0" />
    <path
       d="m -276.49643,-168.92241 0.01,6e-4 c -0.073,0.005 -0.1446,0.0116 -0.2172,0.0173 l 0,-0.003 0.2058,-0.0154 z m -13.8739,7.3421 -0.089,0.1088 0.088,-0.1083 0,-5e-4 z m -0.1939,0.2401 c -0.064,0.0805 -0.1273,0.1612 -0.1899,0.2429 0.063,-0.0817 0.1258,-0.1624 0.1899,-0.2429 z m -1.4222,2.0236 -0.022,0.0369 -5e-4,2e-4 0.023,-0.0371 z"
       style="fill:#efc3d7;fill-rule:evenodd"
       id="path428"
       inkscape:connector-curvature="0" />
    <path
       d="m -275.21553,-168.96601 c 11.1232,0 20.1442,9.6874 20.1442,21.6329 0,11.9452 -9.021,21.6326 -20.1442,21.6326 -11.1231,0 -20.1441,-9.6874 -20.1441,-21.6326 0,-11.9455 9.021,-21.6329 20.1441,-21.6329 z m 3.8501,23.8439 c -0.046,3.9155 -3.4028,7.0781 -7.5371,7.0781 -4.1624,0 -7.5382,-3.206 -7.5382,-7.1589 0,-2.3037 1.1475,-4.3546 2.9288,-5.6642 1.4494,-1.8408 3.6958,-3.0228 6.2181,-3.0228 4.3702,0 7.9137,3.5481 7.9137,7.9231 0,4.3747 -3.5435,7.9228 -7.9137,7.9228 -0.2699,0 -0.5366,-0.0139 -0.7994,-0.0402 3.7823,-0.3751 6.7289,-3.3492 6.7289,-6.9611 l 0,-0.0768 z"
       style="fill:#ec9dbd;fill-rule:evenodd"
       id="path430"
       inkscape:connector-curvature="0" />
    <path
       d="m -278.90243,-152.36211 c 4.1625,0 7.5382,3.2059 7.5382,7.1591 0,3.9531 -3.3757,7.159 -7.5382,7.159 -4.1626,0 -7.5383,-3.2059 -7.5383,-7.159 0,-3.9532 3.3757,-7.1591 7.5383,-7.1591 z"
       style="fill:none"
       id="path432"
       inkscape:connector-curvature="0" />
    <path
       d="m -277.29383,-153.88991 c 4.3702,0 7.9137,3.5481 7.9137,7.9231 0,4.3747 -3.5435,7.9228 -7.9137,7.9228 -0.2699,0 -0.5366,-0.0139 -0.7994,-0.0402 3.7823,-0.3751 6.7289,-3.3492 6.7289,-6.9611 l 0,-0.0779 0,-0.0797 c 0,-3.9532 -3.3755,-7.1592 -7.5382,-7.1592 -1.7359,0 -3.3349,0.5579 -4.6094,1.495 1.4494,-1.8408 3.6958,-3.0228 6.2181,-3.0228 z"
       style="fill:#e093b5;fill-rule:evenodd"
       id="path434"
       inkscape:connector-curvature="0" />
    <path
       d="m -255.07193,-144.91721 c -1.4261,1.0885 -2.6093,2.2607 -4.2123,3.377 -3.1768,2.2121 -6.3538,4.4248 -7.7947,6.1418 -0.9938,1.184 -0.4195,2.1467 0.02,2.8831 0.584,0.9777 1.0412,1.7427 -0.082,2.52 -1.2161,0.8416 -1.9378,-0.0505 -2.7618,-1.0689 l 0,-0.003 c -0.5111,-0.6318 -1.0899,-1.3473 -1.7379,-1.2158 -0.9032,0.1832 -2.0886,0.8167 -3.1935,1.6036 -1.181,0.8416 -2.2394,1.8386 -2.742,2.6374 -0.2721,0.432 0.2429,1.0607 0.6831,1.5976 0.2756,0.3361 0.5327,0.6494 0.6852,0.9824 0.3297,0.7195 0.2452,1.3227 -0.7135,1.7626 -1.2138,0.5562 -2.1651,-0.3353 -3.1482,-1.2571 -0.7236,-0.6784 -1.4754,-1.3828 -2.0446,-1.0256 l -4.8855,3.532 c -0.2313,-0.1069 -0.4694,-0.2016 -0.701,-0.3082 l -0.7682,-0.3693 5.6018,-4.0502 c 1.4945,-0.9379 2.6521,0.1472 3.7664,1.1917 0.6095,0.5718 1.2005,1.1251 1.5568,1.0157 -0.096,-0.1579 -0.263,-0.3614 -0.4399,-0.5772 -0.7384,-0.9005 -1.6022,-1.9544 -0.7881,-3.2473 0.5984,-0.9508 1.8003,-2.0968 3.1184,-3.0359 1.2464,-0.8878 2.6258,-1.6107 3.7361,-1.836 1.4848,-0.3011 2.3505,0.7673 3.1147,1.7124 l 0,-0.001 c 0.3844,0.4751 0.7217,0.8913 0.8575,0.7974 0.035,-0.0241 -0.1247,-0.2914 -0.3282,-0.6321 -0.6642,-1.1117 -1.5313,-2.5645 0.1071,-4.5164 1.5659,-1.8658 4.8189,-4.1313 8.0714,-6.3964 1.6109,-1.122 3.6541,-3.0229 5.0145,-4.0612 l 0.01,1.847 z"
       style="fill:#fde4ea;fill-rule:evenodd"
       id="path436"
       inkscape:connector-curvature="0" />
    <path
       d="m -258.75163,-159.79961 c -0.5694,0.3348 -1.2789,0.593 -1.9082,0.8816 -1.1427,0.5235 -2.2865,1.0476 -2.7941,1.7407 -0.2943,0.4017 0.015,1.4431 0.2372,2.1867 0.1899,0.6383 0.3393,1.1401 0.1171,1.5321 -0.2648,0.4677 -0.6639,0.5797 -1.2733,0.2347 -0.5406,-0.3061 -1.0565,-0.7997 -1.5716,-1.2923 -0.7503,-0.7178 -1.5015,-1.4363 -1.904,-1.1475 l -6.5792,4.6993 c -0.2174,-0.1369 -0.4397,-0.2982 -0.6528,-0.4105 -0.2271,-0.1128 -0.4391,-0.2386 -0.6815,-0.3381 l 7.0886,-5.0964 c 1.3547,-0.9723 2.5297,0.1513 3.7035,1.2744 l 0.1771,0.169 c -0.2236,-0.8932 -0.3452,-1.9061 0.1982,-2.6476 0.7223,-0.9859 2.0355,-1.588 3.348,-2.1892 0.5978,-0.2741 1.1727,-0.4595 1.6773,-0.756 l 0.8177,1.1591 z"
       style="fill:#fde4ea;fill-rule:evenodd"
       id="path438"
       inkscape:connector-curvature="0" />
    <path
       d="m -286.32533,-143.95031 c -0.5366,0.4519 -0.7517,0.6183 -1.3218,1.0182 -1.0723,0.7529 -2.1452,1.5064 -2.6271,2.3236 -0.2364,0.4011 -0.018,1.0905 0.1774,1.7028 0.3838,1.207 0.7143,2.2476 -0.7412,2.6895 -1.1452,0.3475 -2.0126,-0.6863 -2.8602,-1.6965 -0.5394,-0.6432 -1.0658,-1.2708 -1.2101,-1.1515 l -4.8634,4.0485 c -0.09,-0.2228 -0.1896,-0.4388 -0.2798,-0.6614 l -0.2775,-0.7171 4.5181,-3.7608 c 1.2263,-1.0156 2.2003,0.1443 3.1978,1.334 0.5511,0.6571 1.1154,1.3295 1.3652,1.2538 0.087,-0.0264 -0.043,-0.4365 -0.1942,-0.9122 -0.2855,-0.8963 -0.6061,-1.9054 -0.05,-2.8491 0.6364,-1.0794 1.834,-1.9205 3.0308,-2.7607 0.5647,-0.3962 1.5874,-1.2665 2.0412,-1.6486 -0.036,0.3124 0,0.6449 -0.01,0.9595 0.023,0.2835 0.033,0.4408 0.1023,0.828 z"
       style="fill:#fde4ea;fill-rule:evenodd"
       id="path440"
       inkscape:connector-curvature="0" />
    <path
       d="m -273.88543,-168.91951 c -0.8212,0.5437 -2.6777,1.5639 -3.5938,2.0404 -1.7243,0.8968 -3.4495,1.7946 -4.1729,2.9454 -0.4025,0.6401 0.1267,1.639 0.5882,2.5095 0.1817,0.343 0.3557,0.6716 0.4864,0.9959 0.4045,1.0026 0.398,1.8192 -0.7699,2.2898 -1.3875,0.5595 -2.4468,-0.7126 -3.509,-1.9891 -0.7625,-0.9164 -1.5287,-1.8368 -2.0009,-1.5695 -0.9738,0.551 -2.005,1.0009 -3.0357,1.4502 -1.9573,0.8535 -3.9155,1.7076 -5.2605,3.2048 l -4.0762,3.8911 0.5479,-1.4317 0.5332,-1.186 1.9434,-2.2201 c 1.5463,-1.7212 3.6474,-2.6377 5.7476,-3.5536 0.9969,-0.4345 1.9947,-0.8699 2.9029,-1.3838 1.4993,-0.8484 2.6442,0.5269 3.7834,1.8961 0.7317,0.8793 1.4613,1.7557 1.8978,1.5797 0.1145,-0.0459 0.078,-0.22 -0.016,-0.4518 -0.1001,-0.2486 -0.2594,-0.5491 -0.4258,-0.8632 -0.6387,-1.2047 -1.3711,-2.5874 -0.5326,-3.9211 0.9306,-1.48 2.8235,-2.4653 4.7154,-3.4495 0.8923,-0.4641 0.7594,-0.3195 1.5007,-0.8102 l 1.3793,-0.0198 c 0.4564,0.003 0.9011,0.011 1.3669,0.0465 z"
       style="fill:#fde4ea;fill-rule:evenodd"
       id="path442"
       inkscape:connector-curvature="0" />
    <path
       d="m -316.77423,-87.65391 c 3.4024,0 3.6193,-6.0027 3.6193,-8.7846 0,-1.0675 -0.3345,-3.8965 0.3197,-4.6363 2.8131,-3.1825 3.3324,8.3134 8.3135,8.3134 6.014,0 7.9126,-2.213 4.1567,4.1567 -3.9631,6.7218 16.8962,14.7085 -0.1599,14.7085 -11.8207,0 -3.7499,9.2545 -8.3934,13.5093 -3.3193,3.0413 -2.4808,-10.152 -6.3949,-10.152 -1.4616,0 -6.4673,4.6709 -7.2743,0.9593 -0.7109,-3.2709 3.3455,-4.7067 0.6395,-8.2336 -0.1729,-0.225 -11.0908,-8.873 -5.2758,-8.873 2.2997,0 4.7738,0.1599 6.9545,-0.3197 0.6811,-0.1497 3.094,-0.5414 3.4951,-0.648 z"
       style="fill:#efcf9d;fill-rule:evenodd"
       id="path444"
       inkscape:connector-curvature="0" />
    <path
       d="m -322.34773,-93.00121 c -0.9771,0 -1.8391,-0.3016 -1.7586,-1.4389 0.046,-0.6519 0.7325,-1.7311 1.1991,-2.1583 0.2851,-0.2613 1.1247,-0.394 1.4388,-0.0799 0.6129,0.6129 0.5596,1.4723 0.5596,2.3182 0,0.9391 -1.0426,0.9694 -1.4389,1.3589 z"
       style="fill:#efcf9d;fill-rule:evenodd"
       id="path446"
       inkscape:connector-curvature="0" />
    <path
       d="m -329.06243,-72.69721 c -1.1684,-0.809 -1.6787,-1.2158 -1.6787,-2.7178 0,-0.9919 0.8708,-1.359 1.7586,-1.359 0.836,0 1.1625,0.0536 1.5988,0.7195 0.3566,0.5448 1.0474,1.9902 0.3997,2.6379 -0.5482,0.5482 -1.0724,0.8416 -2.0784,0.7194 z"
       style="fill:#efcf9d;fill-rule:evenodd"
       id="path448"
       inkscape:connector-curvature="0" />
    <path
       d="m -299.32583,-65.98251 c -0.052,-0.6766 -0.5596,-0.9309 -0.5596,-1.7586 0,-0.3461 -0.176,-1.1299 0,-1.3589 0.6616,-0.8595 1.6033,-0.7994 2.7179,-0.7994 1.0156,0 1.0684,0.5153 1.4388,1.279 0.5055,1.0426 0.6353,2.6379 -1.0391,2.6379 -0.813,0 -1.7776,0.18 -2.558,0 z"
       style="fill:#efcf9d;fill-rule:evenodd"
       id="path450"
       inkscape:connector-curvature="0" />
    <g
       transform="translate(-1523.8183,-157.31761)"
       id="g452">
      <path
         d="m 1329.698,0.6018 17.5413,15.3522 c 1.0417,0.9116 3.4949,3.1759 1.6615,5.119 l -17.5561,18.6066 -12.8451,14.4506 c -1.6852,1.8957 -4.8613,1.0135 -6.0194,-0.2724 l -16.5104,-18.3312 c -0.9263,-1.0284 -0.9087,-2.6878 0.2037,-3.8388 l 29.701,-30.7334 c 1.1124,-1.1509 2.7817,-1.2642 3.8235,-0.3526 z"
         style="fill:#000000;fill-rule:evenodd;fill-opacity:0.11764706"
         id="path454"
         inkscape:connector-curvature="0" />
      <path
         d="m 1324.9179,-0.3874 16.8293,16.1296 c 0.9995,0.9577 3.3477,3.3306 1.4283,5.1888 L 1324.7962,38.7249 1311.311,52.58 c -1.7692,1.8176 -4.9022,0.7927 -6.001,-0.5443 l -15.6647,-19.0588 c -0.879,-1.0693 -0.7864,-2.7262 0.377,-3.8257 l 31.06,-29.3592 c 1.1634,-1.0995 2.8361,-1.1372 3.8356,-0.1794 z"
         style="fill:#edc99a;fill-rule:evenodd"
         id="path456"
         inkscape:connector-curvature="0" />
      <path
         d="m 1324.1225,-1.2639 16.8293,16.1296 c 0.9994,0.9578 3.3477,3.3306 1.4283,5.1888 l -18.3793,17.7939 -13.4852,13.8551 c -1.7692,1.8176 -4.9022,0.7927 -6.001,-0.5443 l -15.6647,-19.0588 c -0.879,-1.0693 -0.7864,-2.7262 0.377,-3.8257 l 31.06,-29.3592 c 1.1634,-1.0995 2.8361,-1.1372 3.8356,-0.1794 z"
         style="fill:#f3d6ad;fill-rule:evenodd"
         id="path458"
         inkscape:connector-curvature="0" />
      <path
         d="m 1302.5565,35.2349 2.3981,-18.2256 0.07,-0.5338 0.5304,-0.0754 17.4263,-2.478 0.8637,-0.123 -0.058,0.8705 -1.1191,16.7867 -0.036,0.5347 -0.5264,0.1102 -18.7052,3.9169 -0.9743,0.2039 0.1298,-0.9871 z m 3.7287,-17.5093 -2.198,16.7046 17.2049,-3.6026 1.0253,-15.3819 -16.0322,2.2799 z"
         style="fill:#f8fbeb;fill-rule:evenodd"
         id="path460"
         inkscape:connector-curvature="0" />
      <path
         d="m 1306.7906,31.4229 1.1192,-11.5109 0.052,-0.5375 0.5261,-0.0938 11.1912,-1.9984 0.8793,-0.1571 -0.049,0.8935 -0.6395,11.6708 -0.031,0.5695 -0.5667,0.0893 -11.6708,1.8385 -0.8988,0.1415 0.088,-0.9054 z m 2.473,-10.8411 -0.9788,10.0681 10.205,-1.6075 0.5593,-10.2079 -9.7855,1.7473 z"
         style="fill:#f8fbeb;fill-rule:evenodd"
         id="path462"
         inkscape:connector-curvature="0" />
      <path
         d="m 1310.061,27.7058 2.1183,-0.4382 0.3351,-1.0052 0.097,-0.2902 0.2991,0.0524 3.1974,0.5596 -0.1218,0.6973 -2.8982,-0.5071 -0.303,0.9087 -0.065,0.1939 -0.1999,0.0414 -2.3182,0.4796 -0.1411,-0.6922 z"
         style="fill:#f8fbeb;fill-rule:evenodd"
         id="path464"
         inkscape:connector-curvature="0" />
      <path
         d="m 1310.6815,21.7837 2.4222,-0.0712 0.1151,-0.7477 0.05,-0.3269 0.3274,0.0267 2.9577,0.2398 -0.056,0.7058 -2.6299,-0.2132 -0.1097,0.7124 -0.045,0.2914 -0.2957,0.0088 -2.7178,0.0799 -0.019,-0.7058 z"
         style="fill:#f8fbeb;fill-rule:evenodd"
         id="path466"
         inkscape:connector-curvature="0" />
      <path
         d="m 1300.7806,27.3515 c -0.3038,-0.0482 -0.7188,-0.0173 -1.1378,0.0136 l 0,3e-4 c -1.1925,0.0887 -2.4106,0.1791 -3.0985,-1.0488 -0.167,-0.298 -0.2855,-0.6285 -0.3535,-0.9703 -0.1236,-0.6214 -0.08,-1.2946 0.1389,-1.895 0.2296,-0.6299 0.6494,-1.1835 1.2676,-1.5301 l 0,0 c 0.2474,-0.1384 0.5235,-0.2432 0.8268,-0.3036 l 0,-6e-4 c 0.1681,-0.0334 0.2886,-0.0598 0.4048,-0.0847 1.3765,-0.2977 2.4676,-0.5332 3.1887,1.0975 0.1063,0.2407 0.1542,0.4794 0.1542,0.711 0,0.4606 -0.1868,0.8736 -0.4762,1.2126 -0.2568,0.2999 -0.5993,0.5417 -0.9556,0.6993 -0.3192,0.1409 -0.6607,0.2203 -0.9745,0.2203 l 0,-1.4173 c 0.1196,0 0.2619,-0.0358 0.4042,-0.0984 0.1749,-0.0774 0.3373,-0.1896 0.4516,-0.3229 0.081,-0.0947 0.1332,-0.197 0.1332,-0.2936 0,-0.0431 -0.01,-0.0905 -0.032,-0.1406 -0.2537,-0.5738 -0.8467,-0.4459 -1.5945,-0.2841 -0.1531,0.0329 -0.3115,0.0675 -0.4269,0.0905 l 0,0 c -0.1562,0.0308 -0.2936,0.0822 -0.4121,0.1482 l 5e-4,0.0011 c -0.3024,0.1695 -0.5122,0.4519 -0.6309,0.7773 -0.1296,0.3555 -0.154,0.7611 -0.078,1.1415 0.039,0.1962 0.1057,0.3838 0.1987,0.5496 0.2475,0.4417 1.0111,0.385 1.7584,0.3294 l 0,0 c 0.4944,-0.0365 0.9845,-0.0731 1.4621,0.0026 l -0.2217,1.3952 z"
         style="fill:#f8fbeb;fill-rule:evenodd"
         id="path468"
         inkscape:connector-curvature="0" />
      <path
         d="m 1293.2464,32.9488 c 0.5397,-0.0831 1.154,0.3623 1.7303,0.7801 0.2699,0.1956 0.5295,0.3838 0.6486,0.4328 0.043,0.0179 0.104,0.0406 0.1788,0.0669 0.5862,0.2067 1.2892,0.3002 1.9015,0.1851 0.5196,-0.0972 0.9669,-0.356 1.1682,-0.8455 l 0,-0.0029 0.027,-0.068 0,-0.0028 c 0.1366,-0.3878 0.1312,-0.8005 0.021,-1.1912 -0.1111,-0.3937 -0.3257,-0.7642 -0.608,-1.0695 l 0,0 c -0.2812,-0.3044 -0.629,-0.5439 -1.0074,-0.6772 -0.3648,-0.1287 -0.7608,-0.157 -1.1534,-0.0459 -0.05,0.0139 -0.095,0.0335 -0.1344,0.0567 -0.119,0.07 -0.1993,0.1905 -0.2412,0.3311 -0.053,0.176 -0.05,0.3795 0,0.5732 0.024,0.0864 0.06,0.1714 0.1066,0.2497 0.129,0.2185 1.1611,0.2174 1.6852,0.2168 l 0,-0.0028 0.072,0 0,1.4173 -0.072,0 0,-0.0028 c -0.7971,8e-4 -2.3655,0.0031 -2.903,-0.9085 -0.1083,-0.1837 -0.1925,-0.3827 -0.2506,-0.5876 -0.1258,-0.4462 -0.1287,-0.9284 3e-4,-1.3595 0.1398,-0.4672 0.4292,-0.8802 0.8779,-1.1447 0.1417,-0.0836 0.2996,-0.1519 0.4723,-0.2007 0.6899,-0.1953 1.3779,-0.1482 2.006,0.0732 0.599,0.2109 1.143,0.5836 1.5778,1.0542 l 0,0.0014 c 0.4328,0.4689 0.7619,1.0375 0.9331,1.6435 0.1863,0.6585 0.1917,1.3649 -0.048,2.0438 l -8e-4,-3e-4 c -0.02,0.0581 -0.039,0.1058 -0.054,0.1432 l 0,-3e-4 c -0.4127,1.0012 -1.2543,1.516 -2.2136,1.6957 -0.8677,0.163 -1.838,0.0399 -2.6322,-0.2401 -0.069,-0.0244 -0.1514,-0.0561 -0.2452,-0.0947 -0.2852,-0.1174 -0.6069,-0.3506 -0.9423,-0.5939 -0.3472,-0.2517 -0.6613,-0.5292 -0.6893,-0.5249 l -0.2104,-1.4009 z"
         style="fill:#f8fbeb;fill-rule:evenodd"
         id="path470"
         inkscape:connector-curvature="0" />
      <path
         d="m 1310.3059,41.7532 c -0.043,-0.049 -0.1681,-0.1877 -0.2727,-0.3036 l 0,-0.0011 c -0.6715,-0.7416 -0.9085,-1.0055 -0.9085,-2.3315 0,-0.8487 0.3702,-1.5809 0.9306,-2.1342 0.5942,-0.5859 1.4145,-0.9681 2.2247,-1.061 l 0,-3e-4 c 0.5907,-0.0675 1.1868,0.0048 1.7464,0.1621 0.6443,0.1806 1.2435,0.4745 1.7291,0.7926 0.4099,0.2684 0.6973,0.629 0.8929,1.0301 0.218,0.4465 0.3181,0.9428 0.3478,1.4077 0.073,1.1472 -0.5247,1.8436 -1.3209,2.175 -0.6182,0.2571 -1.3672,0.2659 -1.9692,0.078 -0.7209,-0.2251 -1.2762,-0.7277 -1.3357,-1.45 -0.05,-0.6029 0.2744,-1.3022 1.2075,-2.0069 l 0.8527,1.1293 c -0.4833,0.3649 -0.6608,0.612 -0.6486,0.7614 0.01,0.0751 0.1511,0.1548 0.3447,0.2152 0.3124,0.0975 0.6959,0.0952 1.006,-0.0338 0.2736,-0.1139 0.4785,-0.3622 0.4519,-0.7798 -0.019,-0.2987 -0.08,-0.6103 -0.2095,-0.8759 -0.091,-0.1862 -0.2188,-0.3503 -0.3946,-0.4654 -0.3801,-0.2489 -0.8444,-0.478 -1.3362,-0.6157 -0.3949,-0.1111 -0.8079,-0.163 -1.2039,-0.1179 l 0,0 c -0.5066,0.0575 -1.0199,0.2968 -1.3913,0.6627 -0.3036,0.2996 -0.5043,0.6877 -0.5043,1.1268 0,0.79 0.1406,0.9459 0.5389,1.3858 l 0,0 c 0.063,0.0692 0.1238,0.1367 0.284,0.3201 l -1.063,0.9303 z"
         style="fill:#f8fbeb;fill-rule:evenodd"
         id="path472"
         inkscape:connector-curvature="0" />
      <path
         d="m 1304.8084,45.9113 c 0,0.4507 0.216,0.779 0.5354,1.0049 0.4944,0.3492 1.2189,0.4978 1.8842,0.4978 0.5395,0 1.0732,-0.2234 1.4757,-0.5925 0.3776,-0.3466 0.6359,-0.8195 0.6659,-1.3509 0.015,-0.2719 -0.1049,-0.6044 -0.3101,-0.9363 -0.2378,-0.385 -0.5814,-0.7501 -0.9666,-1.0253 -0.3583,-0.2557 -0.7407,-0.4264 -1.0851,-0.4456 -0.1746,-0.01 -0.3393,0.0212 -0.4802,0.1049 -0.068,0.0538 -0.1378,0.2372 -0.1828,0.4572 -0.043,0.2109 -0.052,0.4144 0,0.5213 l 0.029,0.0422 -3e-4,3e-4 c 0.3595,0.4683 0.8161,0.5564 1.395,0.6673 l 0.1967,0.0382 -0.2659,1.3896 -0.1967,-0.0383 c -0.8921,-0.1709 -1.5922,-0.3056 -2.283,-1.2407 l -0.019,-0.025 -0.032,-0.047 -0.014,-0.0247 c -0.2653,-0.4291 -0.3016,-1.0295 -0.191,-1.5656 0.1102,-0.5365 0.3827,-1.0567 0.7285,-1.3124 l 0.025,-0.0167 0.035,-0.0238 0.025,-0.0165 c 0.4077,-0.2517 0.855,-0.3478 1.3113,-0.322 0.6259,0.0354 1.2649,0.3047 1.8267,0.7058 0.5349,0.3819 1.0139,0.893 1.3487,1.4347 0.3504,0.5666 0.5531,1.184 0.5205,1.756 -0.053,0.9244 -0.4862,1.7326 -1.12,2.3142 -0.6582,0.6038 -1.5381,0.9689 -2.4333,0.9689 -0.9167,0 -1.9457,-0.2259 -2.6983,-0.758 -0.6794,-0.4802 -1.1386,-1.1854 -1.1386,-2.162 l 1.4173,0 z"
         style="fill:#f8fbeb;fill-rule:evenodd"
         id="path474"
         inkscape:connector-curvature="0" />
      <path
         d="m 1330.8103,24.9602 c -0.572,0.5338 -1.294,0.8209 -1.9522,0.8209 -0.2659,0 -0.527,-0.0468 -0.7693,-0.1423 -0.2546,-0.1001 -0.4856,-0.2528 -0.6792,-0.4603 -0.3433,-0.3677 -0.557,-0.8924 -0.557,-1.5801 0,-0.6531 0.3775,-1.1633 0.8985,-1.5216 0.5556,-0.3821 1.3097,-0.5942 1.8556,-0.5942 0.9661,0 1.6427,0.3515 2.0999,0.9159 0.5057,0.6236 0.6942,1.4749 0.6942,2.3658 0,1.0596 -0.4396,1.8814 -1.1092,2.4871 -0.7551,0.6829 -1.7991,1.067 -2.8023,1.1909 l -0.1718,-1.406 c 0.7478,-0.0924 1.5083,-0.362 2.0274,-0.8314 0.3855,-0.3487 0.6386,-0.8246 0.6386,-1.4406 0,-0.5987 -0.1015,-1.1395 -0.3733,-1.4746 -0.1942,-0.2401 -0.5145,-0.3897 -1.0035,-0.3897 -0.3076,0 -0.7353,0.1213 -1.0528,0.3396 -0.1644,0.1131 -0.284,0.2406 -0.284,0.3588 0,0.3002 0.067,0.5015 0.1749,0.6168 0.043,0.0465 0.098,0.0822 0.1587,0.1061 0.072,0.0283 0.1591,0.0425 0.2546,0.0425 0.3183,0 0.6834,-0.1537 0.989,-0.4388 l 0.9632,1.0352 z"
         style="fill:#f8fbeb;fill-rule:evenodd"
         id="path476"
         inkscape:connector-curvature="0" />
      <path
         d="m 1333.4406,15.645 c -0.052,0.7393 -0.067,1.2254 0.071,1.4218 0.1171,0.1659 0.4904,0.2347 1.2685,0.2347 0,0 9e-4,3e-4 6e-4,3e-4 0.1057,-0.0235 0.227,-0.2432 0.3345,-0.5227 0.1553,-0.4042 0.2321,-0.8915 0.2321,-1.2659 0,-0.1095 -0.01,-0.1993 -0.019,-0.262 l 0,-0.0028 c 0,-0.019 -0.01,-0.0431 -0.018,-0.0709 l 0,-0.0028 c -0.1306,-0.4618 -0.6471,-0.7214 -1.2537,-0.8501 -0.7404,-0.1576 -1.5877,-0.1157 -2.1841,0.0014 -0.104,0.0204 -0.1953,0.042 -0.2707,0.0632 -0.2472,0.07 -0.5939,0.2574 -0.9377,0.5162 -0.3254,0.2449 -0.6341,0.5468 -0.8348,0.8635 -0.146,0.2298 -0.2245,0.4518 -0.1761,0.6236 0.014,0.049 0.039,0.0992 0.076,0.1488 l -1.1293,0.847 c -0.1477,-0.1965 -0.2492,-0.4028 -0.3087,-0.6137 -0.1718,-0.6083 -0.01,-1.2152 0.3421,-1.7643 0.2931,-0.4623 0.7297,-0.8926 1.1835,-1.2342 0.4824,-0.3628 1.0018,-0.6352 1.4026,-0.7486 0.121,-0.0341 0.2497,-0.0652 0.3812,-0.091 0.7433,-0.146 1.8071,-0.1962 2.7494,0.0042 1.0757,0.2282 2.0165,0.7767 2.321,1.8493 l 8e-4,-2e-4 c 0.016,0.0564 0.032,0.1202 0.045,0.1899 l 6e-4,0 c 0.031,0.1565 0.046,0.3387 0.046,0.5335 0,0.5128 -0.1097,1.1919 -0.332,1.7699 -0.2696,0.7005 -0.7197,1.2787 -1.3827,1.4088 l 0,0 c -0.09,0.0173 -0.1788,0.027 -0.267,0.027 -1.2946,0 -2.0075,-0.2449 -2.4256,-0.838 -0.3968,-0.5623 -0.3994,-1.284 -0.3257,-2.33 l 1.4117,0.0941 z"
         style="fill:#f8fbeb;fill-rule:evenodd"
         id="path478"
         inkscape:connector-curvature="0" />
      <path
         d="m 1324.294,4.2313 c -0.034,-0.256 0,-0.485 0.077,-0.688 0.1687,-0.4224 0.5108,-0.6664 0.94,-0.7818 0.3053,-0.0819 0.6639,-0.0927 1.0162,-0.0587 0.6273,0.0615 1.2955,0.2863 1.5971,0.4958 l 0,-0.002 c 0.6134,0.4275 0.8756,0.9443 0.8847,1.4797 0.01,0.3977 -0.1364,0.7764 -0.3827,1.1143 -0.2132,0.2923 -0.5051,0.5556 -0.8379,0.7708 -0.8725,0.5638 -2.1158,0.843 -3.0447,0.4915 -1.5429,-0.5834 -2.4117,-1.5095 -2.8358,-2.6785 -0.4022,-1.1103 -0.3745,-2.4026 -0.1392,-3.808 l 1.3952,0.2324 c -0.1987,1.1874 -0.233,2.2493 0.073,3.0937 0.2849,0.7852 0.8971,1.4182 2.0052,1.8372 0.4992,0.1888 1.2339,-0.0048 1.7822,-0.3589 0.1955,-0.1264 0.3571,-0.2676 0.4614,-0.4107 0.071,-0.0975 0.1129,-0.1891 0.1117,-0.2617 l 0,-0.0028 c 0,-0.0865 -0.085,-0.199 -0.2815,-0.3362 l 0,-0.0028 c -0.1391,-0.097 -0.5207,-0.2087 -0.9226,-0.2478 -0.1953,-0.019 -0.3813,-0.0164 -0.5179,0.0201 0,6e-4 0,-0.0031 0,-0.0093 l -0.018,-0.0658 -1.3623,0.1775 z m 1.3632,-0.1778 0.025,0.0102 c 0,0.0097 3e-4,9e-4 0,-0.007 0,-0.008 0,-0.0083 0,0.007 l -0.025,-0.0102 -9e-4,3e-4 0.018,0.0658 c 0,-0.0167 0.011,-0.0499 0.014,-0.0629 l 0.01,-0.0077 -0.035,0.0045 z"
         style="fill:#f8fbeb;fill-rule:evenodd"
         id="path480"
         inkscape:connector-curvature="0" />
      <path
         d="m 1318.6449,9.0045 c 0,0.0822 0.01,0.1296 0.023,0.1486 0.016,0.0215 0.074,0.0374 0.1553,0.0473 l 0,0.0026 c 0.165,0.0207 0.3739,-0.0057 0.5919,-0.0641 0.4305,-0.1154 0.835,-0.3342 0.9986,-0.555 l 0.012,-0.0207 0,-0.0029 c 0.057,-0.1244 -0.025,-0.3514 -0.1613,-0.5913 -0.1888,-0.3313 -0.4737,-0.638 -0.7271,-0.8257 -0.068,-0.0504 -0.1284,-0.0884 -0.1752,-0.1097 -0.2092,-0.0955 -0.4827,-0.1531 -0.7897,-0.1729 -0.5944,-0.0388 -1.275,0.066 -1.8641,0.3053 -0.5315,0.2157 -0.9703,0.532 -1.1523,0.9312 -0.048,0.1063 -0.079,0.2228 -0.087,0.3486 0,0.0454 0,0.1066 0,0.184 0,0.614 0.1794,1.3294 0.5202,1.8989 0.2967,0.4964 0.7137,0.8686 1.222,0.9017 l 0,0 0.08,0.0014 0,1.4174 c -0.046,0 -0.1046,-0.0026 -0.1743,-0.0071 l 0,-3e-4 c -1.0386,-0.0689 -1.8255,-0.722 -2.3434,-1.588 -0.4751,-0.7937 -0.7248,-1.7815 -0.7248,-2.624 0,-0.078 0,-0.1695 0.01,-0.2724 0.02,-0.3013 0.095,-0.5842 0.2143,-0.847 0.3467,-0.7605 1.0652,-1.3153 1.9051,-1.6563 0.7824,-0.3178 1.6901,-0.4572 2.4843,-0.4051 0.4717,0.0309 0.9156,0.1299 1.2881,0.2999 0.1378,0.0627 0.2846,0.1517 0.4297,0.2594 0.3901,0.2891 0.8272,0.758 1.1149,1.2634 0.3396,0.5956 0.4915,1.2685 0.2183,1.872 l 0,6e-4 c -0.043,0.0958 -0.099,0.1902 -0.1664,0.2809 -0.3464,0.4671 -1.0593,0.8912 -1.768,1.0811 -0.3773,0.1009 -0.7718,0.1426 -1.1316,0.0978 l -2e-4,0.0023 c -0.4445,-0.0556 -0.8366,-0.241 -1.1073,-0.595 -0.1998,-0.2616 -0.3169,-0.5944 -0.3169,-1.0069 l 1.4174,0 z"
         style="fill:#f8fbeb;fill-rule:evenodd"
         id="path482"
         inkscape:connector-curvature="0" />
    </g>
    <path
       d="m -313.03963,-85.15221 c -0.4061,-1.9777 -0.2242,-3.3264 1.3163,-4.7666 1.7001,-1.5894 4.1333,-1.752 5.4316,-0.3633 2.3523,2.5161 1.6249,7.9114 0.8966,13.3069 -5.4319,0.3636 -10.8639,0.7266 -13.2161,-1.7895 -1.2983,-1.3888 -0.9725,-3.8055 0.7276,-5.395 1.5402,-1.4398 2.8981,-1.5306 4.844,-0.9925 z"
       style="fill:#b32223;fill-rule:evenodd"
       id="path484"
       inkscape:connector-curvature="0" />
    <path
       d="m -312.59973,-84.62351 c -0.3825,-1.8625 -0.2111,-3.1327 1.2396,-4.4889 1.6011,-1.4969 3.8926,-1.65 5.1153,-0.3422 2.2152,2.3696 1.5302,7.4506 0.8444,12.5318 -5.1156,0.3424 -10.2312,0.6843 -12.4464,-1.6853 -1.2227,-1.3078 -0.9159,-3.5838 0.6853,-5.0807 1.4504,-1.356 2.7292,-1.4415 4.5618,-0.9347 z"
       style="fill:#d0182e;fill-rule:evenodd"
       id="path486"
       inkscape:connector-curvature="0" />
    <path
       d="m -320.96213,-160.55481 c -1.0125,-0.2712 -0.9785,-2.7572 -0.2806,-3.4574 0.7894,-0.7925 1.0771,-0.8997 2.2459,-0.2815 1.1293,0.597 1.6353,2.9963 0.8022,3.9399 -0.5999,0.6789 -2.1515,0.4193 -2.7675,-0.201 z"
       style="fill:#000000;fill-rule:evenodd;fill-opacity:0.11764706"
       id="path488"
       inkscape:connector-curvature="0" />
    <path
       d="m -321.73623,-161.04771 c -1.0126,-0.2713 -0.9786,-2.7573 -0.2807,-3.4574 0.7895,-0.7926 1.0772,-0.8997 2.2459,-0.2815 1.1293,0.597 1.6353,2.9962 0.8022,3.9399 -0.5998,0.6789 -2.1515,0.4192 -2.7674,-0.201 z"
       style="fill:#e6a1be;fill-rule:evenodd"
       id="path490"
       inkscape:connector-curvature="0" />
    <path
       d="m -320.60103,-144.03101 c 0.3532,-0.8864 0.718,-1.4474 1.7646,-1.4474 1.2674,0 1.9346,0.8053 1.4437,2.01 -0.1715,0.4207 -0.2469,0.8116 -0.6015,1.0857 -1.0962,0.8487 -3.242,-0.0539 -2.6068,-1.6483 z"
       style="fill:#000000;fill-rule:evenodd;fill-opacity:0.11764706"
       id="path492"
       inkscape:connector-curvature="0" />
    <path
       d="m -321.30483,-144.91721 c 0.3532,-0.8864 0.718,-1.4473 1.7646,-1.4473 1.2673,0 1.9346,0.8053 1.4436,2.01 -0.1715,0.4207 -0.2469,0.8116 -0.6015,1.0857 -1.0961,0.8487 -3.242,-0.0539 -2.6067,-1.6484 z"
       style="fill:#ffeccb;fill-rule:evenodd"
       id="path494"
       inkscape:connector-curvature="0" />
    <path
       d="m -343.03583,-50.65241 c 2.2916,-0.938 4.3025,-0.1185 5.8153,1.809 1.3204,1.683 1.0205,5.2433 -1.6444,5.3071 -3.0889,0.0742 -9.2336,-5.0434 -4.1709,-7.1161 z"
       style="fill:#000000;fill-rule:evenodd;fill-opacity:0.11764706"
       id="path496"
       inkscape:connector-curvature="0" />
    <path
       d="m -344.80153,-51.89771 c 2.2916,-0.938 4.3024,-0.1185 5.8153,1.8091 1.3204,1.6829 1.0205,5.2432 -1.6444,5.307 -3.0889,0.0743 -9.2336,-5.0434 -4.1709,-7.1161 z"
       style="fill:#f5d0a5;fill-rule:evenodd"
       id="path498"
       inkscape:connector-curvature="0" />
    <path
       d="m -301.97313,-103.09681 c 8.8775,3.6142 15.1175,12.1479 15.1175,22.0981 0,7.8054 -3.8401,14.7387 -9.7813,19.1097 4.0556,-4.0028 6.8023,-9.4289 7.5045,-15.5095 0.1173,-0.9481 0.1785,-1.9133 0.1785,-2.8924 l 0,-0.0953 0,-0.1017 c 0,-9.7878 -5.2724,-18.2943 -13.0192,-22.6089 z"
       style="fill:#efcf9d;fill-rule:evenodd"
       id="path500"
       inkscape:connector-curvature="0" />
    <path
       d="m -311.16973,-57.87221 c -9.5686,0.5622 -18.8758,-4.4515 -23.1617,-13.4313 -3.3622,-7.0442 -2.883,-14.9554 0.5959,-21.4592 -1.9358,5.3593 -2.0775,11.4393 -0.092,17.2294 0.3026,0.9062 0.663,1.8037 1.0848,2.6873 l 0.042,0.0854 0.043,0.0924 c 4.216,8.8332 12.6384,14.239 21.4882,14.796 z"
       style="fill:#efcf9d;fill-rule:evenodd"
       id="path502"
       inkscape:connector-curvature="0" />
    <path
       d="m -279.10553,201.53389 50.4274,0.3931 c 0.9559,-7.5994 1.6476,-15.6689 2.8677,-22.7983 4.3538,-25.4405 13.2083,-44.9326 23.2284,-67.3909 2.0855,-4.6743 6.0616,-16.3036 8.3163,-21.221 2.2547,-4.9174 4.001,-5.6577 5.1619,-8.173 1.1609,-2.5152 1.0035,-4.2053 1.7206,-6.7391 0.717,-2.5337 1.3593,-5.3456 2.5809,-8.4597 1.2216,-3.114 3.296,-7.4045 4.7317,-10.1803 1.4358,-2.7758 2.9292,-4.2055 3.8714,-6.4523 0.9422,-2.2469 1.1948,-4.5399 1.7206,-6.8825 1.0563,-4.7056 2.6678,-8.7937 3.8714,-13.3348 0.53,-1.9993 0.6929,-4.3317 0.717,-5.7354 0.024,-1.4037 0.3751,-1.9486 -0.5736,-2.581 -0.9487,-0.6323 -2.72,-0.671 -4.1582,-0.5735 -3.8314,0.2596 -5.7411,2.1417 -8.4597,4.5883 -1.4348,1.2914 -3.1916,2.735 -4.4449,4.3016 -1.2533,1.5666 -1.5514,2.0752 -3.0111,5.0185 -1.4597,2.9432 -4.1104,9.0572 -5.7354,12.6178 -1.625,3.5607 -3.0107,6.4276 -4.0148,8.7465 -1.004,2.3189 -1.3229,3.9641 -2.0074,5.1619 -0.6844,1.1978 -1.3616,1.3138 -2.0074,1.864 -0.6458,0.5502 -1.1751,1.2962 -1.864,1.4338 -0.6889,0.1377 -0.9632,0.9495 -1.7206,-0.7169 -0.7573,-1.6663 -1.8135,-4.2381 -2.5809,-8.7465 -0.7674,-4.5083 -2.1273,-9.7375 -2.0074,-18.2099 0.1199,-8.4724 2.0552,-24.8055 2.7243,-32.4049996 0.6691,-7.5995 0.7647,-8.4594 1.2905,-13.1914 0.5257,-4.7320004 1.4575,-10.9429004 1.864,-15.1988004 0.4064,-4.2559 0.5496,-8.1646 0.5735,-10.3237 0.024,-2.1592 -0.1172,-1.594 -0.4301,-2.581 -0.3129,-0.9869 -0.9799,-2.294 -1.4339,-3.2978 -0.454,-1.0039 -0.7019,-1.9642 -1.2904,-2.7243 -0.5885,-0.7602 -1.3555,-1.3728 -2.1508,-1.7207 -0.7953,-0.3478 -1.565,-0.4612 -2.4376,-0.2867 -0.8726,0.1744 -1.6206,0.3055 -2.5809,1.2904 -0.9603,0.985 -2.3106,3.0682 -3.0111,4.445 -0.7004,1.3768 -0.5496,1.5051 -1.1471,3.728 -0.5975,2.2229 -1.863,6.686 -2.4375,9.6068 -1.0315,5.2439 -2.0046,10.2665 -2.7243,15.6289004 -1.5211,11.3323 -2.7909,24.5719996 -4.7317,34.4123996 -0.7739,3.9243 -0.6452,3.4361 -1.106,4.5481 -0.8044,1.9403 -5.8634,2.5715 -6.2067,-0.1031 -0.3487,-2.7172 -0.1673,-6.4763 -0.2867,-14.1951 -0.1195,-7.7188996 -0.1912,-22.3434996 -0.4302,-32.1183 -0.239,-9.7748 -0.5716,-21.2201 -1.0037,-26.5262 -0.3884,-4.7711 -3.9642,-8.4966 -8.8899,-8.6031 -4.1788,-0.0904 -6.1296,3.2489 -6.3089,6.3089 -0.3841,6.5557 -0.7168,28.9833 -1.0037,35.8463004 -0.2869,6.8629 -0.5734,2.7441 -0.7169,5.3052 -0.1435,2.5612 -0.215,5.61470004 -0.1434,10.037 0.072,4.4222 0.4541,11.9963996 0.5735,16.4892996 0.1195,4.4928 0.5032,8.3077 0.1434,10.4671 -0.2789,1.6744 -3.1906,2.5986 -4.1581,1.147 -0.926,-1.389 -2.1965,-4.5341 -3.1545,-7.3126 -0.9581,-2.7784 -1.5532,-5.9258 -2.5809,-9.32 -1.0278,-3.3942 -1.6009,-5.4953 -3.5847,-11.0406996 -3.2561,-9.1018 -7.4077,-29.8220004 -13.9083,-36.8499004 -0.8927,-0.965 -1.8498,-1.7511 -2.7243,-2.1508 -0.8745,-0.3997 -1.3901,-0.3144 -2.2942,-0.1434 -0.904,0.171 -2.143,0.6891 -3.0111,1.1471 -0.868,0.4581 -1.5871,0.9401 -2.1508,1.5772 -0.5636,0.6372 -0.9505,1.0451 -1.147,2.1508 -0.1965,1.1058 -0.4342,2.1541 0,4.3016 0.4342,2.1474 1.601,4.9701 2.5809,8.4597 0.9799,3.4895 2.3419,8.9377004 3.2978,12.4745004 2.8377,10.4995 5.7,20.6855996 8.8899,31.1144996 1.2431,4.0639 1.8636,6.5937 2.4376,9.0333 0.5739,2.4396 0.7883,3.8204 1.0037,5.592 0.2154,1.7716 0.6056,3.7962 0.2867,5.0185 -0.4689,1.7978 -3.3857,2.7053 -4.5883,1.2904 -4.992,-5.8733 -10.1125,-14.5452 -14.1951,-21.2209 -3.1448,-5.1422 -5.2056,-10.3684 -8.8899,-15.3422 -1.4379,-1.9412 -2.2346,-2.8181996 -3.2978,-3.5846996 -1.0633,-0.7665 -1.9357,-0.7867 -2.8677,-0.8603 -0.9321,-0.0735 -1.8127,0.0833 -2.581,0.4302 -0.7682,0.3468 -1.3915,0.8313 -1.864,1.5772 -0.4725,0.7459996 -0.91,1.5302996 -0.8603,2.7242996 0.05,1.194 0.1172,1.619 1.1471,4.1582 1.0299,2.5392 3.2499,7.3123 5.0185,11.0406 1.7685,3.7284 3.8176,7.7479 5.592,11.3275 1.7744,3.5795 3.2077,6.4981 5.0541,10.1501 5.1899,10.2656 9.6021,21.2848 13.4841,32.1325 1.6308,4.5567 2.3404,9.6984 4.0166,14.6317 1.6762,4.9333 4.6831,11.0852 6.0248,14.9186 9.6726,27.637 -0.6659,62.5775 -4.3034,90.6594 z"
       style="fill:#f7b594;fill-rule:evenodd"
       id="path504"
       inkscape:connector-curvature="0" />
    <path
       d="m -310.67863,24.08869 c 0.5791,1.2438 1.1631,2.4837 1.7048,3.6255 1.7685,3.7284 3.8177,7.7476 5.5922,11.3275 1.7742,3.5793 3.2077,6.4979 5.0539,10.15 5.1899,10.2654 9.602,21.2848 13.4844,32.1324 1.6307,4.5567 2.34,9.6985 4.0164,14.6319 1.6761,4.9331 4.6834,11.0852 6.025,14.9185 5.8142,16.6124 4.3971,35.8636 1.552,54.6783 5.7384,-0.413 5.79,-5.2767 5.79,-22.1723 0,-17.2809 -4.0643,-34.3406 -10.5789,-53.5357 -8.115,-23.9097 -20.0341,-49.633 -32.6398,-65.7561 z"
       style="fill:#fed1bf;fill-rule:evenodd"
       id="path506"
       inkscape:connector-curvature="0" />
    <path
       d="m -307.39073,8.3703904 c -0.8775,-0.4993 -1.6382,-0.5233 -2.4433,-0.5868 -0.9321,-0.0735 -1.8127,0.0833 -2.581,0.4302 -0.7682,0.3468 -1.3915,0.8313 -1.864,1.5772 -0.4725,0.7459996 -0.91,1.5302996 -0.8603,2.7242996 0.037,0.8795 0.083,1.3418 0.5164,2.5393 3.4207,3.7253 9.2083,7.2716 9.2083,-0.3119 0,-2.3175 -0.637,-4.6164 -1.9761,-6.3722996 z"
       style="fill:#fed1bf;fill-rule:evenodd"
       id="path508"
       inkscape:connector-curvature="0" />
    <path
       d="m -239.05013,201.84609 10.372,0.0809 c 0.9559,-7.5994 1.6476,-15.6689 2.8677,-22.7983 4.3538,-25.4405 13.2083,-44.9326 23.2284,-67.3909 2.0855,-4.6743 6.0616,-16.3036 8.3163,-21.221 2.2547,-4.9174 4.001,-5.6577 5.1619,-8.173 0.984,-2.1321 1.021,-3.6714 1.4461,-5.6342 -18.7519,33.9213 -49.8532,72.4131 -49.8532,110.4766 0,4.7496 -1.253,9.9637 -1.5392,14.6599 z m 62.8509,-151.3337 c 0.2225,-0.5306 0.4066,-1.0639 0.5648,-1.5997 0.1592,-0.6023 0.3104,-1.2026 0.4504,-1.8002 l -1.0152,3.3999 z"
       style="fill:#dea686;fill-rule:evenodd"
       id="path510"
       inkscape:connector-curvature="0" />
    <path
       d="m -172.43883,36.39589 c 0.6343,-2.0073 1.2763,-4.0058 1.8316,-6.1008 0.53,-1.9993 0.6929,-4.3317 0.717,-5.7354 0.024,-1.4037 0.3751,-1.9486 -0.5736,-2.581 -0.7558,-0.5038 -2.0341,-0.6308 -3.2498,-0.6122 -3.3928,0.9459 -3.4856,4.3498 -4.011,7.6076 -0.9024,5.5954 1.792,8.0099 5.2858,7.4218 z"
       style="fill:#fed1bf;fill-rule:evenodd"
       id="path512"
       inkscape:connector-curvature="0" />
    <path
       d="m -207.36993,-38.42311 c -0.1822,-0.3888 -0.3622,-0.7674 -0.5174,-1.1103 -0.454,-1.0039 -0.7019,-1.9642 -1.2904,-2.7243 -0.5885,-0.7602 -1.3555,-1.3728 -2.1508,-1.7207 -0.7953,-0.3478 -1.565,-0.4612 -2.4376,-0.2867 -0.8726,0.1744 -1.6206,0.3055 -2.5809,1.2904 -0.491,0.5036 -1.0841,1.2944 -1.64,2.131 -1.515,2.6713 -1.7555,8.3351 -0.1061,10.7069 1.4269,2.0515 5.7535,0.8422 7.3126,-0.717 1.3738,-1.3737 2.6767,-4.3634 3.4106,-7.5693 z"
       style="fill:#fed1bf;fill-rule:evenodd"
       id="path514"
       inkscape:connector-curvature="0" />
    <path
       d="m -240.78823,-47.83111 c -1.5351,-2.55 -4.2307,-4.2488 -7.5337,-4.3202 -1.9776,-0.0427 -3.4558,0.6828 -4.4838,1.7831 0.012,1.4057 -0.3782,10.6304 0.013,11.1981 1.3768,1.9956 4.9734,3.3365 7.7428,2.0074 3.2867,-1.5775 3.2157,-6.1626 4.0148,-9.4634 0.1004,-0.4147 0.1813,-0.8156 0.2465,-1.205 z"
       style="fill:#fed1bf;fill-rule:evenodd"
       id="path516"
       inkscape:connector-curvature="0" />
    <path
       d="m -282.70623,-30.54851 c -0.1515,-0.1818 -0.3041,-0.3585 -0.4582,-0.5252 -0.8927,-0.965 -1.8498,-1.7511 -2.7243,-2.1508 -0.8745,-0.3997 -1.3901,-0.3144 -2.2942,-0.1434 -0.904,0.171 -2.143,0.6891 -3.0111,1.1471 -0.868,0.4581 -1.5871,0.9401 -2.1508,1.5772 -0.3049,0.3447 -0.558,0.6224 -0.7573,0.9795 -1.7578,6.5245 9.2168,15.41 11.199,3.9722 0.2938,-1.6958 0.3968,-3.3702 0.1969,-4.8566 z"
       style="fill:#fed1bf;fill-rule:evenodd"
       id="path518"
       inkscape:connector-curvature="0" />
    <path
       d="m -283.73643,245.11899 0.61,-52.4911 -6.6135,-0.0904 3.2068,-29.4659 75.7188,5.5732 -1.3385,24.7575 -3.6045,0.1134 -0.5999,51.6033 -67.3792,0 z"
       style="fill:#da6459;fill-rule:evenodd"
       id="path520"
       inkscape:connector-curvature="0" />
    <path
       d="m -215.75753,191.11289 -67.3689,-0.8175 -0.038,2.9693 67.3685,0.8503 0.038,-3.0021 z"
       style="fill:#c15d4e;fill-rule:evenodd"
       id="path522"
       inkscape:connector-curvature="0" />
    <path
       d="m -266.98993,164.39619 -2.4261,26.0654 -6.5931,-0.0801 2.6582,-26.4163 6.361,0.431 z"
       style="fill:#e36c67;fill-rule:evenodd"
       id="path524"
       inkscape:connector-curvature="0" />
  </g>
</svg>
