<?xml version="1.0" encoding="UTF-8" standalone="no"?>
<!-- Created with Inkscape (http://www.inkscape.org/) -->

<svg
   xmlns:dc="http://purl.org/dc/elements/1.1/"
   xmlns:cc="http://creativecommons.org/ns#"
   xmlns:rdf="http://www.w3.org/1999/02/22-rdf-syntax-ns#"
   xmlns:svg="http://www.w3.org/2000/svg"
   xmlns="http://www.w3.org/2000/svg"
   xmlns:sodipodi="http://sodipodi.sourceforge.net/DTD/sodipodi-0.dtd"
   xmlns:inkscape="http://www.inkscape.org/namespaces/inkscape"
   width="90.808868mm"
   height="65.907463mm"
   viewBox="0 0 321.76371 233.53038"
   id="svg8009"
   version="1.1"
   inkscape:version="0.91 r13725"
   sodipodi:docname="cofe-arm.svg">
  <defs
     id="defs8011" />
  <sodipodi:namedview
     id="base"
     pagecolor="#ffffff"
     bordercolor="#666666"
     borderopacity="1.0"
     inkscape:pageopacity="0.0"
     inkscape:pageshadow="2"
     inkscape:zoom="1.4"
     inkscape:cx="230.90094"
     inkscape:cy="44.873117"
     inkscape:document-units="px"
     inkscape:current-layer="layer1"
     showgrid="false"
     fit-margin-top="0"
     fit-margin-left="0"
     fit-margin-right="0"
     fit-margin-bottom="0"
     inkscape:window-width="1280"
     inkscape:window-height="962"
     inkscape:window-x="-8"
     inkscape:window-y="462"
     inkscape:window-maximized="1" />
  <metadata
     id="metadata8014">
    <rdf:RDF>
      <cc:Work
         rdf:about="">
        <dc:format>image/svg+xml</dc:format>
        <dc:type
           rdf:resource="http://purl.org/dc/dcmitype/StillImage" />
        <dc:title></dc:title>
      </cc:Work>
    </rdf:RDF>
  </metadata>
  <g
     inkscape:label="Layer 1"
     inkscape:groupmode="layer"
     id="layer1"
     transform="translate(843.73899,27.260133)">
    <path
       d="m -788.80079,-0.85114212 c -0.7852,-4.70439998 -1.3107,-9.89979988 0.7455,-13.46659988 7.8058,-13.5405 18.6415,-6.3451 21.7406,4.085 9.1704,-2.0375 17.7798,-3.1476 26.5861,-6.2461 2.8843,-1.0145 8.1919,-2.7488 10.8908,-3.5235 0.084,-0.0244 0.1692,-0.0479 0.2539,-0.0709 l 0.1154,-0.0309 0.157,-0.0411 0.1166,-0.0297 0.012,-0.0031 0.2203,-0.0539 0.036,-0.0085 0.048,-0.0111 0.2095,-0.0476 0.1012,-0.0224 0.1661,-0.0351 0.1559,-0.0321 0.2166,-0.0425 0.069,-0.0127 0.2257,-0.0411 0.071,-0.0125 0.2628,-0.0437 0.023,-0.0036 0.049,-0.0074 0.2339,-0.0354 0.063,-0.0091 0.2043,-0.0284 0.1044,-0.0139 0.227,-0.028 0,-3e-4 0.1523,-0.0173 0.1533,-0.017 0.1074,-0.0111 0.2682,-0.0258 0.01,-8e-4 0.04,-0.0034 0.2365,-0.0193 0.092,-0.0071 0.1868,-0.013 0.106,-0.0071 c 0.095,-0.0062 0.1914,-0.0113 0.2869,-0.0161 l 0.01,-6e-4 0.2784,-0.0125 0.065,-0.0025 0.2228,-0.0071 0.063,-0.002 0.01,0 0.037,-9e-4 0.2622,-0.0051 0.035,-5e-4 0.2469,-0.002 0.049,-3e-4 0.056,0 0.2287,0.0011 0.032,3e-4 0.032,6e-4 0.2614,0.0042 0.051,0.0012 0.2888,0.0079 3e-4,0 0.019,6e-4 0.2279,0.0088 0.022,0.0011 0.1154,0.0051 0.214,0.0111 0.052,0.0028 0.2773,0.017 0.018,0.0011 0.06,0.0046 0.2268,0.0167 0.053,0.0042 0.2846,0.0239 0,2e-4 0.033,0.0029 0.2248,0.0215 0.055,0.0054 0.1698,0.0179 0.1412,0.0153 0.037,0.0042 0.1868,0.0221 0.082,0.0097 0,3e-4 0.091,0.0116 0.1721,0.0221 0.1264,0.0173 0.1151,0.0158 0.1542,0.0222 0,2e-4 0.2202,0.0332 0.127,0.0201 0.1627,0.0261 0.091,0.0153 0.256,0.0442 0.01,0.0015 0.01,0.0017 0.2163,0.0394 0.074,0.0138 0.036,0.0071 0.2064,0.04 0.056,0.0108 0.057,0.0116 0.2135,0.0439 0.025,0.0054 0.027,0.0057 0.2302,0.0499 0.073,0.0161 0.1684,0.0383 0.1097,0.0252 0.2089,0.0496 0.059,0.0142 0.066,0.0165 0.15,0.0374 0.1142,0.0292 0.024,0.0062 0.205,0.0539 0.012,0.0031 0.015,0.0039 0.224,0.061 0.097,0.0272 0.146,0.0417 0.079,0.0224 0.033,0.0099 c 1.6529,0.4827 3.1533,1.0964 4.4036,1.7921 4.4759,2.4908 6.8542,4.6683 13.1329,8.0077999 16.49,8.7707 33.7221,16.3664 50.6098,24.3440001 10.2339,5.0567 16.9835,9.2148 28.3887,8.9694 l -9e-4,0.0572 0.1202,-7.5852 c 4.7826,-12.1720001 21.9552,-15.27140012 33.4089,-10.3020001 l 62.6247,0 0,83.3793991 -60.9789,0 c -3.3599,1.8321 -6.4534,2.8548 -9.8073,3.0889 5.9595,0.2552 11.7493,2.1138 15.8578,5.4908 l 54.9284,0 0,83.379403 -58.8609,0 c -4.5374,2.3867 -8.6371,3.3647 -13.5039,2.9795 -9.3847,-0.7433 -23.9973,-5.4661 -23.8289,-15.9926 l 1.0057,-62.8701 c 3.3035,-8.320803 12.2556,-12.548403 21.4075,-12.981603 -0.1479,-0.009 -0.2968,-0.0198 -0.4464,-0.0317 -8.4147,-0.6735 -21.2273,-4.7305 -22.6406,-13.6264 l 0,0.003 -13.7404,2.1869 c -15.3298,2.1586 -26.7214,3.9529 -41.0003,-3.3633 -3.2375,-1.6588 -5.8391,-3.2253 -8.9688,-5.445399 -3.1298,-2.2201 -7.5433,-6.008 -9.7696,-7.8477 -2.2264,-1.8397 -2.3911,-2.1254 -3.5867,-3.1881 -0.2276,-0.5102 -0.4615,-1.0174 -0.7002,-1.5211 4.8002,10.171 7.49,21.561499 7.49,33.589399 0,11.245403 -2.3539,21.932803 -6.5829,31.589103 0.9074,-0.8286 1.2484,-1.23 3.2417,-2.8772 2.2263,-1.8397 6.6399,-5.6276 9.7696,-7.8477 3.1298,-2.2201 5.7314,-3.7865 8.9688,-5.4454 14.279,-7.3162 25.6706,-5.5219 41.0004,-3.3633 l 15.5256,2.1847 -0.8793,54.9697 c -11.4052,-0.2455 -18.3461,3.9339 -28.58,8.9907 -16.8877,7.9775 -34.1198,15.5732 -50.6098,24.3439 -6.2788,3.3395 -8.657,5.5171 -13.1329,8.0079 -1.2504,0.6956 -2.7508,1.3093 -4.4036,1.792 l -0.034,0.01 -0.079,0.0224 -0.146,0.0417 -0.097,0.0272 -0.2239,0.061 -0.015,0.004 -0.012,0.003 -0.2049,0.0538 -0.024,0.006 -0.1143,0.0292 -0.1499,0.0375 -0.066,0.0164 -0.059,0.0142 -0.2089,0.0496 -0.1097,0.0252 -0.1684,0.0383 -0.073,0.0161 -0.2301,0.0499 -0.027,0.006 -0.025,0.005 -0.2134,0.0439 -0.057,0.0116 -0.056,0.0108 -0.2064,0.04 -0.036,0.007 -0.074,0.0139 -0.2162,0.0394 -0.01,0.002 -0.01,0.001 -0.2559,0.0442 -0.091,0.0153 -0.1627,0.0261 -0.127,0.0201 -0.2203,0.0332 0,3e-4 -0.1542,0.0221 -0.1151,0.0158 -0.1265,0.0173 -0.172,0.0221 -0.091,0.0117 0,2e-4 -0.082,0.01 -0.1868,0.0221 -0.037,0.004 -0.1411,0.0154 -0.1698,0.0178 -0.055,0.005 -0.2248,0.0215 -0.033,0.003 0,3e-4 -0.2846,0.0238 -0.054,0.004 -0.2268,0.0167 -0.06,0.005 -0.018,0.001 -0.2772,0.017 -0.052,0.003 -0.214,0.011 -0.1153,0.005 -0.022,10e-4 -0.2279,0.009 -0.019,6e-4 -3e-4,0 -0.2889,0.008 -0.051,0.001 -0.2613,0.004 -0.032,6e-4 -0.032,3e-4 -0.2288,0.001 -0.056,0 -0.048,-3e-4 -0.2469,-0.002 -0.035,-5e-4 -0.2622,-0.005 -0.037,-9e-4 -0.01,0 -0.063,-0.002 -0.2228,-0.007 -0.065,-0.003 -0.2783,-0.0125 -0.01,-5e-4 c -0.095,-0.005 -0.1913,-0.01 -0.2868,-0.0162 l -0.1061,-0.007 -0.1868,-0.013 -0.092,-0.007 -0.2364,-0.0193 -0.04,-0.003 -0.01,-8e-4 -0.2682,-0.0258 -0.1074,-0.0111 -0.1534,-0.017 -0.1522,-0.0173 0,-3e-4 -0.2271,-0.028 -0.1043,-0.0139 -0.2044,-0.0284 -0.063,-0.009 -0.2338,-0.0355 -0.049,-0.007 -0.023,-0.004 -0.2628,-0.0437 -0.071,-0.0125 -0.2256,-0.0411 -0.069,-0.0127 -0.2166,-0.0425 -0.1559,-0.0321 -0.1661,-0.0351 -0.1012,-0.0224 -0.2094,-0.0476 -0.048,-0.0111 -0.036,-0.009 -0.2202,-0.0538 -0.013,-0.003 -0.1165,-0.0297 -0.157,-0.0411 -0.1154,-0.0309 c -0.085,-0.023 -0.1698,-0.0465 -0.254,-0.0709 -2.6989,-0.7747 -8.0064,-2.5089 -10.8907,-3.5235 -8.8064,-3.0985 -17.4158,-4.2086 -26.5861,-6.2461 l -24.1838,-10.0899 -8.1681,-5.1251 -7.207,-5.4453 -8.0079,-6.8868 -6.2462,-5.2852 -4.6445,-3.043 -3.6836,-2.7226 c -0.5349,-1.872 0.4841,-3.7545 2.2209,-5.1384 -0.056,0.0442 -0.1103,0.089 -0.1644,0.1344 -0.9473,-1.4537 -2.2263,-3.0932 -2.8245,-4.3512 -1.7648,-3.712 0.4777,-4.5579 3.1539,-6.6538 l 0.083,0.0978 c 0.2903,0.3694 0.5837,0.7359 0.8805,1.0998 -10.9111,-13.4529 -17.4651,-30.6785 -17.4651,-49.455503 0,-18.3333 6.2478,-35.187499 16.6986,-48.495599 l -0.059,0.0694 c -2.6762,-2.0959 -4.9187,-2.9418 -3.1538,-6.6538 0.5981,-1.258 1.8771,-2.8975 2.8244,-4.3511 -1.6358,-1.37 -2.5744,-3.1918 -2.0565,-5.004 l 3.6836,-2.7227 4.6446,-3.043 6.2461,-5.2852 8.0079,-6.8868 7.2071,-5.4453001 8.168,-5.12510002 1.6977,-0.7083 z M -817.88989,150.14106 c -2.8293,-0.9479 -6.2487,0.007 -8.4819,1.7872 2.2335,-1.7793 5.6535,-2.7348 8.4827,-1.7864 l -8e-4,-8e-4 z m -4.3776,-110.260902 0.01,-0.004 -0.01,0.004 z m -0.623,-4.6398 -0.051,-0.0159 c -0.069,-0.0212 -0.1372,-0.0425 -0.205,-0.0652 l -0.01,-0.002 c -0.078,-0.0261 -0.1568,-0.0536 -0.2342,-0.0814 l -0.01,-0.004 c -0.071,-0.0258 -0.1425,-0.0521 -0.2131,-0.0793 0.071,0.0275 0.1417,0.0535 0.2131,0.0793 z m -0.9842,-0.3537 c -0.069,-0.0287 -0.1375,-0.0582 -0.2055,-0.0885 0.068,0.0303 0.1366,0.0598 0.2055,0.0885 z m -0.4728,-0.2112 c -0.065,-0.0309 -0.1296,-0.0624 -0.1937,-0.0947 l 0.1937,0.0947 z m -0.6645,-0.3467 c -0.059,-0.0335 -0.1171,-0.0678 -0.1752,-0.1023 0.058,0.0345 0.1163,0.0688 0.1752,0.1023 z m -0.6154,-0.381 c -0.064,-0.0431 -0.1273,-0.0867 -0.1899,-0.1309 0.062,0.0442 0.1258,0.0878 0.1899,0.1309 z m -0.2044,-0.1411 c -0.059,-0.0423 -0.1185,-0.0851 -0.1763,-0.1285 0.058,0.0431 0.1168,0.0862 0.1763,0.1285 z m -0.2086,-0.1526 c -0.054,-0.0408 -0.108,-0.0819 -0.161,-0.1238 0.053,0.0419 0.1066,0.083 0.161,0.1238 z m 2.8871,1.503 c -0.078,-0.0261 -0.1565,-0.0533 -0.2342,-0.0814 z m 125.7763,22.4753 c 0.1846,0.3694 0.3663,0.7401 0.5451,1.1126 -0.1794,-0.3722 -0.3605,-0.7435 -0.5451,-1.1126 z"
       style="fill:#000000;fill-rule:evenodd;fill-opacity:0.11764706"
       id="path70"
       inkscape:connector-curvature="0" />
    <path
       d="m -764.22099,21.577358 a 66.6434,66.6434 0 0 1 66.6433,66.643399 66.6434,66.6434 0 1 1 -66.6433,-66.643399 z"
       style="fill:#443a39;fill-rule:evenodd"
       id="path72"
       inkscape:connector-curvature="0" />
    <path
       d="m -585.96599,0.04735788 0,83.37939912 63.9907,0 0,-83.37939912 -63.9907,0 z"
       style="fill:#e4c64d;fill-rule:evenodd"
       id="path74"
       inkscape:connector-curvature="0" />
    <path
       d="m -585.96599,92.006457 0,83.379403 63.9907,0 0,-83.379403 -63.9907,0 z"
       style="fill:#e4c64d;fill-rule:evenodd"
       id="path76"
       inkscape:connector-curvature="0" />
    <path
       d="m -585.96599,5.5213579 0,9.2974001 63.9907,0 0,-9.2974001 -63.9907,0 z"
       style="fill:#fcdf69;fill-rule:evenodd"
       id="path78"
       inkscape:connector-curvature="0" />
    <path
       d="m -585.96599,162.63586 0,9.2974 63.9907,0 0,-9.2974 -63.9907,0 z"
       style="fill:#fcdf69;fill-rule:evenodd"
       id="path80"
       inkscape:connector-curvature="0" />
    <path
       d="m -585.96599,80.541457 0,-7.0532 63.9907,0 0,7.0532 -63.9907,0 z"
       style="fill:#dcbf4d;fill-rule:evenodd"
       id="path82"
       inkscape:connector-curvature="0" />
    <path
       d="m -585.96599,102.31656 0,-7.053103 63.9907,0 0,7.053103 -63.9907,0 z"
       style="fill:#dcbf4d;fill-rule:evenodd"
       id="path84"
       inkscape:connector-curvature="0" />
    <path
       d="m -581.72139,82.099857 c -5.4346,3.3965 -9.9482,4.8345 -15.5101,4.3895 -8.9668,-0.7177 -22.9286,-5.2773 -22.7676,-15.440299 l 0.961,-60.6997 c 5.773,-14.6928001 29.5993,-16.1666001 39.6286,-6.1852001 0.084,0.0865 0.1689,0.1712 0.2506,0.2594 0.072,0.0782 0.1437,0.159 0.214,0.2423 0.07,0.0834 0.1395,0.1693 0.2078,0.2577 0.068,0.0884 0.1355,0.1791 0.2018,0.2727 0.066,0.0935 0.1315,0.1896 0.1959,0.288 0.064,0.0984 0.1275,0.1993 0.1899,0.3024 0.062,0.1035 0.1236,0.2092 0.1843,0.3172 l 2e-4,0 c 0.06,0.108 0.1199,0.2186 0.1786,0.3311 0.059,0.1128 0.1162,0.2282 0.1732,0.3456 0.057,0.1173 0.1126,0.2372 0.1675,0.3591 0.055,0.1219 0.1095,0.2464 0.1625,0.3728 0.053,0.1264 0.1051,0.2548 0.1567,0.3858 l 3e-4,0 c 0.051,0.1309 0.1021,0.2639 0.1517,0.3991 0.05,0.1352 0.099,0.2727 0.1465,0.4121 l 3e-4,0 c 0.048,0.1395 0.095,0.2812 0.1414,0.4247 0.046,0.1437 0.092,0.2891 0.1367,0.4368 0.045,0.1477 0.089,0.2974 0.1318,0.4490001 0.043,0.1517 0.086,0.3056 0.127,0.4612 0.042,0.1556 0.082,0.3129 0.1224,0.4725 0.04,0.1596 0.079,0.3209 0.1177,0.4842 0.038,0.1633 0.076,0.3285 0.1131,0.4955 l 3e-4,0 c 0.037,0.167 0.073,0.3356 0.1085,0.5063 l 3e-4,0 c 0.035,0.1706 0.07,0.343 0.1043,0.517 0.034,0.174 0.068,0.3501 0.1004,0.5275 0.033,0.1775 0.065,0.3569 0.096,0.5378 0.031,0.1808 0.062,0.3636 0.092,0.5479 l 3e-4,0 c 0.03,0.1842 0.059,0.3702 0.088,0.5576 l 0.084,0.5672 3e-4,0 c 0.028,0.1905 0.054,0.3827 0.08,0.5766 l 0.077,0.5856 c 0.025,0.1967 0.049,0.3949 0.073,0.5944 l 2e-4,0 c 0.024,0.1996 0.046,0.4008 0.069,0.6032 0.023,0.2024 0.045,0.4062 0.066,0.6115 l 0.062,0.6196 3e-4,0 0.059,0.6276 0.056,0.6352 0.053,0.6429 3e-4,0 0.05,0.6497 0.047,0.6571 0.044,0.6636 2e-4,0 0.041,0.6701 3e-4,0 0.039,0.6764 0.036,0.6825 0.033,0.6883 3e-4,0 0.031,0.6936 0.029,0.6993 0.027,0.7042 0.024,0.7092 0.023,0.7138 0.02,0.718 0.019,0.7222 0.017,0.7263 0.015,0.7299 0.014,0.7333 0.012,0.7367 0.01,0.7396 0.01,0.7424 0.01,0.7447 0.01,0.7472 0.01,0.7492 0,0.7509 0,0.7526 0,0.7537 0,0.7552 0,0.7557 c 0.025,17.5127 -0.7526,35.494799 -6.188,39.722099 l -1.4414,1.1211 z"
       style="fill:#e98e38;fill-rule:evenodd"
       id="path86"
       inkscape:connector-curvature="0" />
    <path
       d="m -579.13619,173.81896 c -5.6879,3.5179 -10.4119,5.0073 -16.2331,4.5464 -9.3848,-0.7434 -23.9975,-5.466 -23.829,-15.9925 l 1.0058,-62.870303 c 6.0421,-15.2182 30.9792,-16.7447 41.476,-6.4064 0.088,0.0896 0.1769,0.1774 0.2623,0.2687 0.076,0.081 0.1504,0.1647 0.224,0.251 0.074,0.0863 0.146,0.1753 0.2175,0.2669 0.071,0.0916 0.1418,0.1855 0.2112,0.2824 0.069,0.0969 0.1377,0.1964 0.205,0.2983 0.067,0.1019 0.1335,0.2064 0.1988,0.3133 0.065,0.1072 0.1293,0.2167 0.1928,0.3285 l 3e-4,0 c 0.063,0.1119 0.1255,0.2264 0.1869,0.343 0.061,0.1168 0.1217,0.2363 0.1813,0.3579 0.059,0.1215 0.1178,0.2457 0.1753,0.372 0.058,0.1262 0.1146,0.2551 0.17,0.386 0.056,0.131 0.1101,0.264 0.1641,0.3996 l 3e-4,0 c 0.054,0.1357 0.1068,0.2734 0.1587,0.4134 0.052,0.1401 0.1033,0.2825 0.1534,0.4269 l 3e-4,0 c 0.05,0.1445 0.1,0.2913 0.148,0.4398 0.049,0.1489 0.096,0.2995 0.143,0.4525 0.047,0.1529 0.093,0.308 0.138,0.465 0.045,0.1571 0.09,0.3165 0.1329,0.4777 0.044,0.1612 0.086,0.3242 0.1282,0.489503 0.042,0.1653 0.083,0.3323 0.1231,0.5014 0.04,0.1691 0.08,0.3403 0.1184,0.5132 l 3e-4,0 c 0.039,0.173 0.076,0.3477 0.1136,0.5244 l 3e-4,0 c 0.037,0.1768 0.074,0.3553 0.1092,0.5355 0.036,0.1803 0.071,0.3626 0.105,0.5464 0.034,0.1838 0.068,0.3697 0.1006,0.557 0.033,0.1873 0.065,0.3767 0.096,0.5675 l 3e-4,0 c 0.031,0.1909 0.062,0.3835 0.092,0.5775 l 0.088,0.5875 3e-4,0 c 0.029,0.1973 0.057,0.3964 0.084,0.5972 l 0.08,0.6066 c 0.026,0.2038 0.052,0.409 0.076,0.6157 l 3e-4,0 c 0.025,0.2067 0.049,0.4151 0.072,0.6248 0.024,0.2096 0.047,0.4207 0.069,0.6333 l 0.065,0.6418 3e-4,0 0.062,0.65 0.059,0.658 0.055,0.6659 3e-4,0 0.052,0.6729 0.049,0.6806 0.046,0.6873 3e-4,0 0.043,0.6941 3e-4,0 0.04,0.7005 0.038,0.707 0.035,0.7128 3e-4,0 0.033,0.7185 0.03,0.7243 0.028,0.7293 0.025,0.7346 0.024,0.7393 0.021,0.7437 0.02,0.7481 0.017,0.7522 0.016,0.756 0.014,0.7596 0.013,0.763 0.011,0.766 0.01,0.769 0.01,0.7713 0.01,0.7739 0.01,0.776 0,0.7777 0,0.7795 0,0.7807 0,0.7822 0,0.7827 c 0.026,18.139 -0.7877,36.7642 -6.4766,41.1427 l -1.5086,1.1612 z"
       style="fill:#e98e38;fill-rule:evenodd"
       id="path88"
       inkscape:connector-curvature="0" />
    <path
       d="m -606.90669,11.209958 c 2.7527,-0.5689 8.369,-0.9488 13.6553,-0.8909 5.084,0.0555 11.6164,3.0611 12.5618,-0.1849 2.0049,-6.8822001 -22.2585,-6.5369001 -26.3044,-4.5796001 -4.0459,1.9573 -2.6654,6.2243001 0.087,5.6554001 z"
       style="fill:#f2ad51;fill-rule:evenodd"
       id="path90"
       inkscape:connector-curvature="0" />
    <path
       d="m -605.95059,98.833657 c 2.7528,-0.5689 8.369,-0.9487 13.6554,-0.8909 5.0839,0.0555 11.6163,3.061103 12.5617,-0.1848 2.0049,-6.8823 -22.2585,-6.537 -26.3044,-4.5797 -4.0459,1.9573 -2.6654,6.2243 0.087,5.6554 z"
       style="fill:#f2ad51;fill-rule:evenodd"
       id="path92"
       inkscape:connector-curvature="0" />
    <path
       d="m -607.98979,76.471757 c 2.7527,0.5689 8.369,0.9487 13.6553,0.8909 5.084,-0.0556 11.6164,-3.0612 12.5618,0.1848 2.0049,6.8822 -22.2585,6.537 -26.3044,4.5797 -4.0459,-1.9574 -2.6654,-6.2244 0.087,-5.6554 z"
       style="fill:#f2ad51;fill-rule:evenodd"
       id="path94"
       inkscape:connector-curvature="0" />
    <path
       d="m -607.03369,164.09546 c 2.7527,0.5689 8.369,0.9487 13.6554,0.8909 5.0839,-0.0556 11.6163,-3.0611 12.5617,0.1848 2.0049,6.8823 -22.2585,6.537 -26.3044,4.5797 -4.0459,-1.9574 -2.6654,-6.2243 0.087,-5.6554 z"
       style="fill:#f2ad51;fill-rule:evenodd"
       id="path96"
       inkscape:connector-curvature="0" />
    <path
       d="m -607.50929,20.782558 c 2.7527,-0.5689 8.369,-0.9488 13.6553,-0.8909 5.0839,0.0555 11.6164,3.0611 12.5617,-0.1849 2.005,-6.8822 -22.2585,-6.5369 -26.3043,-4.5796 -4.0459,1.9573 -2.6655,6.2243 0.087,5.6554 z"
       style="fill:#f2ad51;fill-rule:evenodd"
       id="path98"
       inkscape:connector-curvature="0" />
    <path
       d="m -606.55319,108.40626 c 2.7527,-0.5689 8.369,-0.9488 13.6553,-0.8909 5.084,0.0555 11.6164,3.0611 12.5618,-0.1848 2.0049,-6.8823 -22.2585,-6.537 -26.3044,-4.5797 -4.0459,1.9573 -2.6654,6.2243 0.087,5.6554 z"
       style="fill:#f2ad51;fill-rule:evenodd"
       id="path100"
       inkscape:connector-curvature="0" />
    <path
       d="m -607.18899,68.143558 c 2.7527,0.5689 8.369,0.9487 13.6553,0.8909 5.0839,-0.0556 11.6164,-3.0611 12.5617,0.1848 2.005,6.882199 -22.2584,6.536999 -26.3043,4.579699 -4.0459,-1.957399 -2.6655,-6.224299 0.087,-5.655399 z"
       style="fill:#f2ad51;fill-rule:evenodd"
       id="path102"
       inkscape:connector-curvature="0" />
    <path
       d="m -606.23289,155.76726 c 2.7527,0.5689 8.369,0.9487 13.6553,0.8909 5.084,-0.0555 11.6164,-3.0611 12.5618,0.1848 2.0049,6.8823 -22.2585,6.537 -26.3044,4.5797 -4.0459,-1.9573 -2.6654,-6.2243 0.087,-5.6554 z"
       style="fill:#f2ad51;fill-rule:evenodd"
       id="path104"
       inkscape:connector-curvature="0" />
    <path
       d="m -608.55909,30.925558 c 2.9959,-0.6664 9.1083,-1.1113 14.8616,-1.0436 5.533,0.0651 12.6425,3.5858 13.6713,-0.2165 2.1821,-8.0617 -24.2246,-7.6573 -28.6279,-5.3645 -4.4033,2.2928 -2.9008,7.2911 0.095,6.6246 z"
       style="fill:#f2ad51;fill-rule:evenodd"
       id="path106"
       inkscape:connector-curvature="0" />
    <path
       d="m -607.60289,118.54936 c 2.9958,-0.6665 9.1082,-1.1114 14.8615,-1.0437 5.533,0.0651 12.6425,3.5858 13.6713,-0.2165 2.1821,-8.0617 -24.2246,-7.6573 -28.6279,-5.3645 -4.4032,2.2928 -2.9008,7.2911 0.095,6.6247 z"
       style="fill:#f2ad51;fill-rule:evenodd"
       id="path108"
       inkscape:connector-curvature="0" />
    <path
       d="m -607.91559,57.500458 c 2.9959,0.6664 9.1083,1.1113 14.8615,1.0436 5.5331,-0.0651 12.6425,-3.5858 13.6714,0.2165 2.182,8.0618 -24.2246,7.6573 -28.6279,5.3645 -4.4033,-2.2927 -2.9009,-7.291 0.095,-6.6246 z"
       style="fill:#f2ad51;fill-rule:evenodd"
       id="path110"
       inkscape:connector-curvature="0" />
    <path
       d="m -606.95949,145.12416 c 2.9959,0.6664 9.1083,1.1114 14.8616,1.0436 5.533,-0.0651 12.6424,-3.5858 13.6713,0.2165 2.1821,8.0618 -24.2246,7.6573 -28.6279,5.3646 -4.4033,-2.2928 -2.9009,-7.2911 0.095,-6.6247 z"
       style="fill:#f2ad51;fill-rule:evenodd"
       id="path112"
       inkscape:connector-curvature="0" />
    <path
       d="m -609.11859,41.769558 c 2.9959,-0.0303 9.1085,0.1445 14.8615,0.2025 5.5327,0.0557 12.7499,1.9812 13.7787,-1.2891 2.1814,-6.935 -24.332,-6.5845 -28.7352,-4.6122 -4.4033,1.9723 -2.9009,5.7291 0.095,5.6988 z"
       style="fill:#f2ad51;fill-rule:evenodd"
       id="path114"
       inkscape:connector-curvature="0" />
    <path
       d="m -608.16249,129.39326 c 2.9959,-0.0303 9.1086,0.1445 14.8615,0.2025 5.5328,0.0557 12.7499,1.9812 13.7787,-1.2891 2.1815,-6.935 -24.3319,-6.5845 -28.7352,-4.6122 -4.4033,1.9724 -2.9009,5.7291 0.095,5.6988 z"
       style="fill:#f2ad51;fill-rule:evenodd"
       id="path116"
       inkscape:connector-curvature="0" />
    <path
       d="m -607.64889,54.089158 c 2.9959,-0.0302 9.1086,0.1446 14.8616,0.2026 5.5327,0.0557 12.7498,1.9811 13.7787,-1.2891 2.1814,-6.935 -24.332,-6.5846 -28.7353,-4.6122 -4.4033,1.9723 -2.9008,5.729 0.095,5.6987 z"
       style="fill:#f2ad51;fill-rule:evenodd"
       id="path118"
       inkscape:connector-curvature="0" />
    <path
       d="m -606.69269,141.71296 c 2.9958,-0.0303 9.1085,0.1445 14.8615,0.2025 5.5327,0.0557 12.7498,1.9812 13.7787,-1.2891 2.1814,-6.935 -24.332,-6.5846 -28.7353,-4.6122 -4.4032,1.9723 -2.9008,5.729 0.095,5.6988 z"
       style="fill:#f2ad51;fill-rule:evenodd"
       id="path120"
       inkscape:connector-curvature="0" />
    <path
       d="m -619.15749,17.877358 c -11.4052,0.2454 -18.1547,-3.9127 -28.3887,-8.9694001 -16.8876,-7.97760002 -34.1197,-15.5733 -50.6097,-24.3439999 -6.2788,-3.3395 -8.657,-5.517 -13.1329,-8.0078 -4.4759,-2.4908 -12.1522,-3.9274 -18.5783,-2.0821 -2.6989,0.7747 -8.0065,2.509 -10.8907,3.5235 -8.8064,3.0985 -17.4158,4.2086 -26.5862,6.2461 l -24.1837,10.0898999 -8.1681,5.12509998 -7.2071,5.44530002 -8.0078,6.8868001 -6.2462,5.2852 -4.6445,3.043 -3.6837,2.7227 c -1.2274,4.2967 5.7311,8.6479 10.7666,6.9052 13.655,-12.6542 31.8274,-20.3755001 51.7751,-20.3755001 31.1377,0 57.9532,18.8099001 70.0055,45.8371001 1.1957,1.0627 1.3604,1.3485 3.5867,3.1881 2.2263,1.8397 6.6399,5.6277 9.7696,7.8478 3.1297,2.22 5.7314,3.7865 8.9688,5.4453 14.279,7.316199 25.6706,5.521899 41.0003,3.363299 l 13.7404,-2.1869 0.7146,-54.988699 z"
       style="fill:#f7b594;fill-rule:evenodd"
       id="path122"
       inkscape:connector-curvature="0" />
    <path
       d="m -619.10419,156.48666 c -11.4052,-0.2455 -18.3461,3.9339 -28.58,8.9907 -16.8877,7.9775 -34.1198,15.5732 -50.6098,24.3439 -6.2787,3.3395 -8.657,5.5171 -13.1329,8.0079 -4.4759,2.4908 -12.1521,3.9274 -18.5783,2.082 -2.6988,-0.7747 -8.0064,-2.5089 -10.8907,-3.5234 -8.8064,-3.0986 -17.4157,-4.2086 -26.5861,-6.2462 l -24.1838,-10.0899 -8.168,-5.125 -7.2071,-5.4454 -8.0079,-6.8868 -6.2461,-5.2852 -4.6446,-3.043 -3.6836,-2.7226 c -1.2274,-4.2968 5.7311,-8.648 10.7665,-6.9052 13.6551,12.6541 31.8274,20.3754 51.7751,20.3754 31.1378,0 57.9532,-18.8099 70.0056,-45.8371 1.1956,-1.0627 1.3603,-1.3484 3.5867,-3.1881 2.2263,-1.8397 6.6398,-5.6276 9.7696,-7.8477 3.1297,-2.2201 5.7313,-3.7865 8.9688,-5.4454 14.2789,-7.316203 25.6705,-5.521903 41.0003,-3.363303 l 15.5256,2.184703 -0.8793,54.9697 z"
       style="fill:#f7b594;fill-rule:evenodd"
       id="path124"
       inkscape:connector-curvature="0" />
    <path
       d="m -766.94359,9.3713579 a 76.7955,77.9054 0 0 1 76.7956,77.9054991 76.7955,77.9054 0 1 1 -76.7956,-77.9054991 z"
       style="fill:#aedde9;fill-rule:evenodd"
       id="path126"
       inkscape:connector-curvature="0" />
    <path
       d="m -651.71029,31.009658 c 1.1316,0.6233 2.1654,0.4782 2.8829,0 2.5256,-1.6838 -2.7882,-4.7707 -3.7627,-5.3637 -25.9702,-15.8097001 -59.5894,-16.9515001 -85.9255,-33.8749001 -0.6406,-0.2134 -1.8318,-0.932 -2.0622,-0.299 -0.2546,0.699 5.7316,6.766 14.6577,10.4754 20.6288,8.5725001 57.5161,19.8672001 74.2098,29.0622001 z"
       style="fill:#fed1bf;fill-rule:evenodd"
       id="path128"
       inkscape:connector-curvature="0" />
    <path
       d="m -651.84829,143.37556 c 1.1316,-0.6233 2.1654,-0.4782 2.8828,0 2.5257,1.6838 -2.7881,4.7707 -3.7627,5.3637 -25.9701,15.8097 -59.5893,16.9515 -85.9255,33.8749 -0.6406,0.2135 -1.8317,0.932 -2.0622,0.2991 -0.2545,-0.6991 5.7317,-6.766 14.6577,-10.4755 20.6289,-8.5725 57.5161,-19.8671 74.2099,-29.0622 z"
       style="fill:#fed1bf;fill-rule:evenodd"
       id="path130"
       inkscape:connector-curvature="0" />
    <path
       d="m -619.79869,67.206058 c -5.8926,0.4267 -11.4774,1.067 -17.8177,1.2805 -6.3402,0.2134 -15.0874,0.3483 -20.34,0 -5.2526,-0.3484 -7.0809,-0.5967 -11.0509,-2.0821 -8.3449,-3.1221 -17.2196,-9.4773 -23.7033,-15.5353 -3.6689,-3.4279 -7.3369,-7.6303 -10.7305,-11.6915 -8.1678,-9.7752 -15.4398,-16.6351 -22.9025,-21.4611 -6.0214,-3.8939 -13.2682,-7.5081 -17.7775,-13.2930001 -2.338,-2.9997 -1.1035,-4.91560002 0.4805,-7.6876 0.7789,-1.2739 1.9646,-2.8976 2.3366,-3.8222 1.241,-3.0854999 -6.0342,4.4523 -6.7777,6.0304 -1.8014,3.8225 -1.038,7.5676 1.1631,10.8147 l 2.6444,3.0637001 0,0.003 c 21.1102,6.6101 38.3372,22.2054 47.3349,42.383 1.1957,1.0627 1.3604,1.3485 3.5867,3.1881 2.2263,1.8397 6.6399,5.6277 9.7696,7.8478 3.1297,2.22 5.7314,3.7865 8.9688,5.4453 14.279,7.316199 25.6706,5.521899 41.0003,3.363299 l 13.7404,-2.1869 0.073,-5.659999 z"
       style="fill:#dea686;fill-rule:evenodd"
       id="path132"
       inkscape:connector-curvature="0" />
    <path
       d="m -618.31269,107.01526 c -5.8927,-0.4266 -13.1015,-0.9031 -19.4417,-1.1165 -6.3403,-0.2135 -15.0874,-0.3484 -20.34,0 -5.2526,0.3484 -7.081,0.5967 -11.0509,2.082 -8.3449,3.1221 -17.2196,9.4774 -23.7033,15.5353 -3.6689,3.4279 -7.3369,7.6303 -10.7306,11.6915 -8.1677,9.7753 -15.4397,16.6351 -22.9025,21.4611 -6.0213,3.894 -13.2681,7.5081 -17.7775,13.2931 -2.338,2.9996 -1.1035,4.9155 0.4805,7.6875 0.779,1.2739 1.9647,2.8976 2.3366,3.8223 1.241,3.0855 -6.0341,-4.4524 -6.7776,-6.0305 -1.8015,-3.8225 -1.0381,-7.5676 1.163,-10.8147 l 2.6445,-3.0637 0,-0.003 c 21.1102,-6.6101 38.3371,-22.2055 47.3349,-42.3831 1.1956,-1.0627 1.3603,-1.3484 3.5867,-3.1881 2.2263,-1.8397 6.6398,-5.6276 9.7696,-7.8477 3.1297,-2.2201 5.7313,-3.7865 8.9688,-5.4454 14.2789,-7.316203 25.6705,-5.521903 41.0003,-3.363303 l 15.5256,2.184703 -0.088,5.4983 z"
       style="fill:#dea686;fill-rule:evenodd"
       id="path134"
       inkscape:connector-curvature="0" />
    <path
       d="m -619.22829,23.321558 -7.3372,0.481 c -2.2955,-0.1601 -4.4414,0.003 -6.8868,-0.4805 -2.4455,-0.4835 -4.2554,-0.8203 -7.6876,-2.4023 -20.3283,-9.3699 -40.5164,-20.30400012 -59.0981,-32.8323 -3.524,-2.376 -6.298,-4.8694 -8.8086,-6.2461 -2.5107,-1.3768 -4.3141,-1.6767 -6.086,-1.9219 -6.715,-0.9292 -13.4158,4.9362 -19.2189,7.2071 -9.4657,3.7036999 -23.3289,3.7606999 -32.152,5.2281999 -17.524,2.9151 -33.7283,11.7433 -41.3603,18.6352001 -6.9517,6.2773 -12.403,12.6749 -21.9416,12.9728 l 0.3203,-1.1211 3.6837,-2.7227 4.6445,-3.043 6.2462,-5.2852 8.0078,-6.8868001 7.2071,-5.44530002 8.1681,-5.12509998 24.1837,-10.0898999 c 9.1704,-2.0375 17.7798,-3.1476 26.5862,-6.2461 2.8842,-1.0145 8.1918,-2.7488 10.8907,-3.5235 6.4261,-1.8453 14.1024,-0.4087 18.5783,2.0821 4.4759,2.4908 6.8541,4.6683 13.1329,8.0078 16.49,8.7706999 33.7221,16.36639988 50.6097,24.3439999 10.234,5.0567001 16.9835,9.2148001 28.3887,8.9694001 l -0.069,5.3478 0,0.0964 z"
       style="fill:#fed1bf;fill-rule:evenodd"
       id="path136"
       inkscape:connector-curvature="0" />
    <path
       d="m -619.01629,150.98326 -7.6873,-0.4006 c -2.2977,-0.1193 -4.4413,-0.003 -6.8867,0.4805 -2.4455,0.4836 -4.2554,0.8203 -7.6876,2.4023 -20.3284,9.37 -40.5164,20.304 -59.0981,32.8323 -3.524,2.376 -6.298,4.8694 -8.8087,6.2462 -2.5106,1.3768 -4.314,1.6767 -6.086,1.9219 -6.715,0.9292 -13.4158,-4.9363 -19.2189,-7.2071 -9.4657,-3.7038 -23.3288,-3.7607 -32.1519,-5.2282 -17.5241,-2.9152 -33.7283,-11.7434 -41.3603,-18.6353 -6.9517,-6.2773 -12.403,-12.6748 -21.9416,-12.9727 l 0.3203,1.1211 3.6836,2.7226 4.6446,3.043 6.2461,5.2852 8.0079,6.8868 7.2071,5.4454 8.168,5.125 24.1838,10.0899 c 9.1704,2.0376 17.7797,3.1476 26.5861,6.2462 2.8843,1.0145 8.1919,2.7487 10.8907,3.5234 6.4262,1.8454 14.1024,0.4088 18.5783,-2.082 4.4759,-2.4908 6.8542,-4.6684 13.1329,-8.0079 16.49,-8.7707 33.7221,-16.3664 50.6098,-24.3439 10.2339,-5.0568 17.1748,-9.2362 28.58,-8.9907 l 0.079,-4.9442 0.01,-0.5592 z"
       style="fill:#fed1bf;fill-rule:evenodd"
       id="path138"
       inkscape:connector-curvature="0" />
    <path
       d="m -715.69249,-25.235942 c -4.2638,-1.2453 -9.5436,-1.6197 -14.1746,-0.29 -2.6989,0.7747 -8.0065,2.509 -10.8907,3.5235 -8.8064,3.0985 -17.4158,4.2086 -26.5862,6.2461 l -18.7109,7.8065999 9.1199,-0.7812 c 18.3473,-1.8246999 34.2539,-2.9513999 49.6409,-13.5092999 2.1898,-1.5024 4.6854,-2.7692 7.3542,-3.1176 1.3918,-0.1817 2.8315,0.0814 4.2474,0.1219 z"
       style="fill:#f4caaf;fill-rule:evenodd"
       id="path140"
       inkscape:connector-curvature="0" />
    <path
       d="m -715.83049,199.62116 c -4.2639,1.2453 -9.5437,1.6198 -14.1747,0.29 -2.6988,-0.7747 -8.0064,-2.5089 -10.8907,-3.5234 -8.8064,-3.0986 -17.4157,-4.2086 -26.5861,-6.2462 l -18.7109,-7.8066 9.1199,0.7812 c 18.3472,1.8247 34.2538,2.9515 49.6409,13.5094 2.1897,1.5023 4.6853,2.7691 7.3542,3.1175 1.3918,0.1817 2.8315,-0.0813 4.2474,-0.1219 z"
       style="fill:#f4caaf;fill-rule:evenodd"
       id="path142"
       inkscape:connector-curvature="0" />
    <path
       d="m -827.42849,27.845658 c -0.9474,1.4536 -2.2264,3.0931 -2.8245,4.3512 -1.7648,3.7119 0.4777,4.5578 3.1539,6.6537 l 0.083,-0.0978 c 1.1611,-1.4774 2.3743,-2.9106 3.6363,-4.2976 l 0.083,-0.0986 0.013,-0.007 c 1.4587,-1.5974 2.9806,-3.1346 4.5652,-4.6032 -2.9118,1.0077 -6.4667,-0.0221 -8.71,-1.9012 z"
       style="fill:#e49a85;fill-rule:evenodd"
       id="path144"
       inkscape:connector-curvature="0" />
    <path
       d="m -827.56659,146.53966 c -0.9473,-1.4536 -2.2263,-3.0932 -2.8244,-4.3512 -1.7649,-3.712 0.4776,-4.5578 3.1538,-6.6538 l 0.083,0.0978 c 1.1611,1.4774 2.3743,2.9106 3.6363,4.2976 l 0.083,0.0987 0.013,0.006 c 1.4588,1.5973 2.9807,3.1345 4.5652,4.6032 -2.9117,-1.0078 -6.4666,0.0221 -8.71,1.9012 z"
       style="fill:#e49a85;fill-rule:evenodd"
       id="path146"
       inkscape:connector-curvature="0" />
    <path
       d="m -786.56599,11.939258 -2.2391,-12.32050012 c -0.7747,-5.55269998 -3.285,-14.24629988 -0.2795,-19.46009988 7.8058,-13.5405 18.6415,-6.3451 21.7406,4.085 l 2.6082,25.1619999 c -0.7336,-0.0212 -1.4689,-0.0343 -2.2076,-0.0343 -6.7796,0 -13.3526,0.8961001 -19.6149,2.5699001 l -0.01,-0.002 z"
       style="fill:#95d0d2;fill-rule:evenodd"
       id="path148"
       inkscape:connector-curvature="0" />
    <path
       d="m -764.22099,30.118458 c 30.9977,0 56.1353,26.0188 56.1353,58.102199 0,32.083603 -25.1376,58.102403 -56.1353,58.102403 -30.9974,0 -56.1351,-26.0188 -56.1351,-58.102403 0,-32.083399 25.1377,-58.102199 56.1351,-58.102199 z"
       style="fill:none"
       id="path150"
       inkscape:connector-curvature="0" />
    <path
       d="m -764.22099,30.118458 c 30.9977,0 56.1353,26.0186 56.1353,58.102299 0,32.083603 -25.1376,58.102303 -56.1353,58.102303 -30.9974,0 -56.1351,-26.0187 -56.1351,-58.102303 0,-32.083699 25.1377,-58.102299 56.1351,-58.102299 z"
       style="fill:none"
       id="path152"
       inkscape:connector-curvature="0" />
    <path
       d="m -764.22099,23.477758 c 34.5405,0 62.5512,28.9925 62.5512,64.742799 0,35.750703 -28.0107,64.743203 -62.5512,64.743203 -34.5403,0 -62.551,-28.9925 -62.551,-64.743203 0,-35.750299 28.0107,-64.742799 62.551,-64.742799 z"
       style="fill:#95cfd3;fill-rule:evenodd"
       id="path154"
       inkscape:connector-curvature="0" />
    <path
       d="m -764.22099,30.118458 c 30.9977,0 56.1353,26.0186 56.1353,58.102299 0,32.083603 -25.1376,58.102303 -56.1353,58.102303 -30.9974,0 -56.1351,-26.0187 -56.1351,-58.102303 0,-32.083699 25.1377,-58.102299 56.1351,-58.102299 z"
       style="fill:#5c5152;fill-rule:evenodd"
       id="path156"
       inkscape:connector-curvature="0" />
    <path
       d="m -764.22099,30.118458 c 21.8942,0 40.8628,12.9818 50.1171,31.9116 -16.6204,19.449099 -53.6485,34.007499 -97.2372,35.883199 -2.7567,0.1185 -5.4907,0.1831 -8.2009,0.1979 -0.5332,-3.2148 -0.8141,-6.5186 -0.8141,-9.8904 0,-32.083699 25.1377,-58.102299 56.1351,-58.102299 z"
       style="fill:#443a39;fill-rule:evenodd"
       id="path158"
       inkscape:connector-curvature="0" />
    <path
       d="m -716.82229,69.127758 a 3.1175,3.1175 0 0 1 3.1175,3.1175 3.1175,3.1175 0 1 1 -3.1175,-3.1175 z"
       style="fill:#443a39;fill-rule:evenodd"
       id="path160"
       inkscape:connector-curvature="0" />
    <path
       d="m -713.38509,82.796957 a 3.1175,3.1175 0 0 1 3.1176,3.1175 3.1175,3.1175 0 1 1 -3.1176,-3.1175 z"
       style="fill:#443a39;fill-rule:evenodd"
       id="path162"
       inkscape:connector-curvature="0" />
    <path
       d="m -719.30039,91.989657 a 3.1175,3.1175 0 0 1 3.1175,3.1176 3.1175,3.1175 0 1 1 -3.1175,-3.1176 z"
       style="fill:#443a39;fill-rule:evenodd"
       id="path164"
       inkscape:connector-curvature="0" />
    <path
       d="m -716.18289,105.73886 a 3.1175,3.1175 0 0 1 3.1176,3.1175 3.1175,3.1175 0 1 1 -3.1176,-3.1175 z"
       style="fill:#443a39;fill-rule:evenodd"
       id="path166"
       inkscape:connector-curvature="0" />
    <path
       d="m -722.89759,116.21066 a 3.1175,3.1175 0 0 1 3.1176,3.1175 3.1175,3.1175 0 1 1 -3.1176,-3.1175 z"
       style="fill:#443a39;fill-rule:evenodd"
       id="path168"
       inkscape:connector-curvature="0" />
    <path
       d="m -738.24549,128.84066 a 3.1175,3.1175 0 0 1 3.1176,3.1175 3.1175,3.1175 0 1 1 -3.1176,-3.1175 z"
       style="fill:#443a39;fill-rule:evenodd"
       id="path170"
       inkscape:connector-curvature="0" />
    <path
       d="m -780.13249,133.63686 a 3.1175,3.1175 0 0 1 3.1176,3.1176 3.1175,3.1175 0 1 1 -3.1176,-3.1176 z"
       style="fill:#443a39;fill-rule:evenodd"
       id="path172"
       inkscape:connector-curvature="0" />
    <path
       d="m -802.83459,116.21066 a 3.1175,3.1175 0 0 1 3.1176,3.1175 3.1175,3.1175 0 1 1 -3.1176,-3.1175 z"
       style="fill:#443a39;fill-rule:evenodd"
       id="path174"
       inkscape:connector-curvature="0" />
    <path
       d="m -795.16519,126.47996 a 1.9998,1.9998 0 0 1 1.9999,1.9998 1.9998,1.9998 0 1 1 -1.9999,-1.9998 z"
       style="fill:#443a39;fill-rule:evenodd"
       id="path176"
       inkscape:connector-curvature="0" />
    <path
       d="m -769.26099,135.71386 a 1.9998,1.9998 0 0 1 1.9998,1.9998 1.9998,1.9998 0 1 1 -1.9998,-1.9998 z"
       style="fill:#443a39;fill-rule:evenodd"
       id="path178"
       inkscape:connector-curvature="0" />
    <path
       d="m -755.19209,131.47716 a 1.9998,1.9998 0 0 1 1.9998,1.9998 1.9998,1.9998 0 1 1 -1.9998,-1.9998 z"
       style="fill:#443a39;fill-rule:evenodd"
       id="path180"
       inkscape:connector-curvature="0" />
    <path
       d="m -748.95699,135.39406 a 1.9998,1.9998 0 0 1 1.9998,1.9999 1.9998,1.9998 0 1 1 -1.9998,-1.9999 z"
       style="fill:#443a39;fill-rule:evenodd"
       id="path182"
       inkscape:connector-curvature="0" />
    <path
       d="m -730.34759,119.33866 a 1.9998,1.9998 0 0 1 1.9999,1.9998 1.9998,1.9998 0 1 1 -1.9999,-1.9998 z"
       style="fill:#443a39;fill-rule:evenodd"
       id="path184"
       inkscape:connector-curvature="0" />
    <path
       d="m -717.53499,111.65106 a 1.9998,1.9998 0 0 1 1.9999,1.9999 1.9998,1.9998 0 1 1 -1.9999,-1.9999 z"
       style="fill:#443a39;fill-rule:evenodd"
       id="path186"
       inkscape:connector-curvature="0" />
    <path
       d="m -711.28879,95.955657 a 1.9998,1.9998 0 0 1 1.9998,1.9998 1.9998,1.9998 0 1 1 -1.9998,-1.9998 z"
       style="fill:#443a39;fill-rule:evenodd"
       id="path188"
       inkscape:connector-curvature="0" />
    <path
       d="m -757.77389,15.976958 c 16.1745,1.4253 30.8253,8.1649 42.1982,18.4587 0.6157,0.5573 0.9323,1.2719 0.9323,2.1021 -2e-4,0.8306 -0.3177,1.5449 -0.9337,2.1019 l -0.1613,0.1463 c -1.0839,0.9802 -2.7184,0.9802 -3.8024,-3e-4 -10.4462,-9.4479 -23.8992,-15.6348 -38.7507,-16.9447 -0.7784,-0.0686 -1.4244,-0.4056 -1.9259,-1.0054 -0.5014,-0.5998 -0.7186,-1.2949 -0.6483,-2.0733 l 0.02,-0.2168 c 0.1403,-1.5528 1.5191,-2.7054 3.0722,-2.5685 z m 55.6773,34.8089 c 6.6018,10.9287 10.4037,23.737899 10.4037,37.434899 0,8.4603 -1.4525,16.581003 -4.1171,24.129903 -0.2644,0.7498 -0.7648,1.2986 -1.487,1.6314 -0.722,0.3325 -1.4644,0.356 -2.2059,0.07 l -0.2022,-0.078 c -1.4298,-0.5513 -2.1631,-2.1427 -1.6531,-3.5878 2.4466,-6.9347 3.7805,-14.394003 3.7805,-22.165503 0,-12.5804 -3.4908,-24.345599 -9.5521,-34.384799 -0.7861,-1.302 -0.4051,-2.9917 0.8637,-3.8302 l 0.1803,-0.1193 c 0.6681,-0.4414 1.4051,-0.5763 2.186,-0.4 0.7813,0.176 1.389,0.614 1.8032,1.2994 z m -12.557,90.369402 c -8.7786,8.2244 -19.6041,14.292 -31.6289,17.3525 -0.7699,0.1959 -1.5035,0.0848 -2.1807,-0.3302 -0.6772,-0.4153 -1.1095,-1.0185 -1.2841,-1.7935 l -0.047,-0.2109 c -0.3373,-1.4961 0.5797,-2.9917 2.0659,-3.3701 11.0444,-2.8131 20.9877,-8.3863 29.0517,-15.9404 1.1333,-1.0618 2.9197,-1.0108 3.9907,0.114 l 0.1476,0.1551 c 0.5412,0.5683 0.8031,1.2515 0.7804,2.0358 -0.022,0.7841 -0.3226,1.4513 -0.8952,1.9877 z m -49.1689,19.5925 c -0.1324,5e-4 -0.2656,0.001 -0.3985,0.001 -40.0493,0 -72.5281,-32.4788 -72.5281,-72.528103 0,-34.379399 23.9352,-63.175199 56.0457,-70.640499 0.7742,-0.18 1.5058,-0.0527 2.1745,0.377 0.669,0.4297 1.0879,1.0431 1.2458,1.8224 l 0.043,0.2117 c 0.3042,1.5021 -0.6435,2.9756 -2.1362,3.3228 -29.4998,6.8635 -51.4882,33.3201 -51.4882,64.906599 0,36.799903 29.8434,66.643403 66.6434,66.643403 0.1204,0 0.2409,-6e-4 0.3614,-0.001 1.5539,-0.009 2.8301,1.2433 2.8508,2.797 l 0,0.2151 c 0.01,0.7841 -0.2613,1.4627 -0.8104,2.0225 -0.5491,0.5599 -1.222,0.8453 -2.0061,0.8502 z"
       style="fill:#f6f7f7;fill-rule:evenodd"
       id="path190"
       inkscape:connector-curvature="0" />
    <path
       d="m -784.77049,11.486658 c -0.186,-2.0495001 -0.8753,-4.2038001 -0.5579,-6.1487001 1.7272,-10.5803 15.7918,-9.7798 18.8652,-0.5595 l 0.72,4.6037 0,0.004 c -0.3991,-0.006 -0.7974,-0.0153 -1.1979,-0.0153 -6.1373,0 -12.1051,0.7351001 -17.8268,2.1155001 l -3e-4,-2e-4 z"
       style="fill:#8ac0c2;fill-rule:evenodd"
       id="path192"
       inkscape:connector-curvature="0" />
    <path
       d="m -787.16119,-15.553642 c 2.3244,-3.3245 4.3032,-4.4025 8.63,-4.9606 2.306,-0.2974 4.707,-0.2115 6.9302,0.2182 0.1559,0.0301 0.2792,0.1126 0.3662,0.2452 0.087,0.1327 0.114,0.2787 0.08,0.4337 l -0.096,0.4352 c -0.1293,0.5859 -0.69,0.9686 -1.2827,0.8756 -3.9827,-0.6245 -10.8933,-0.4575 -12.619,3.3208 -0.082,0.1805 -0.1644,0.36 -0.2554,0.5385 -0.076,0.1497 -0.1998,0.2492 -0.3626,0.2914 -0.1627,0.0426 -0.3191,0.0159 -0.4586,-0.0776 l -0.7829,-0.5244 c -0.1313,-0.0882 -0.2126,-0.2112 -0.2415,-0.3668 -0.029,-0.1554 0,-0.2997 0.093,-0.4292 z"
       style="fill:#f6f7f7;fill-rule:evenodd"
       id="path194"
       inkscape:connector-curvature="0" />
  </g>
</svg>
