<?xml version="1.0" encoding="UTF-8" standalone="no"?>
<!-- Created with Inkscape (http://www.inkscape.org/) -->

<svg
   xmlns:dc="http://purl.org/dc/elements/1.1/"
   xmlns:cc="http://creativecommons.org/ns#"
   xmlns:rdf="http://www.w3.org/1999/02/22-rdf-syntax-ns#"
   xmlns:svg="http://www.w3.org/2000/svg"
   xmlns="http://www.w3.org/2000/svg"
   xmlns:sodipodi="http://sodipodi.sourceforge.net/DTD/sodipodi-0.dtd"
   xmlns:inkscape="http://www.inkscape.org/namespaces/inkscape"
   width="43.586849mm"
   height="100.88309mm"
   viewBox="0 0 154.44159 357.45976"
   id="svg6631"
   version="1.1"
   inkscape:version="0.91 r13725"
   sodipodi:docname="coin-arm.svg">
  <defs
     id="defs6633" />
  <sodipodi:namedview
     id="base"
     pagecolor="#ffffff"
     bordercolor="#666666"
     borderopacity="1.0"
     inkscape:pageopacity="0.0"
     inkscape:pageshadow="2"
     inkscape:zoom="1.979899"
     inkscape:cx="-4.2512393"
     inkscape:cy="175.33703"
     inkscape:document-units="px"
     inkscape:current-layer="layer1"
     showgrid="false"
     fit-margin-top="0"
     fit-margin-left="0"
     fit-margin-right="0"
     fit-margin-bottom="0"
     inkscape:window-width="1280"
     inkscape:window-height="962"
     inkscape:window-x="-8"
     inkscape:window-y="462"
     inkscape:window-maximized="1" />
  <metadata
     id="metadata6636">
    <rdf:RDF>
      <cc:Work
         rdf:about="">
        <dc:format>image/svg+xml</dc:format>
        <dc:type
           rdf:resource="http://purl.org/dc/dcmitype/StillImage" />
        <dc:title></dc:title>
      </cc:Work>
    </rdf:RDF>
  </metadata>
  <g
     inkscape:label="Layer 1"
     inkscape:groupmode="layer"
     id="layer1"
     transform="translate(-259.92207,-253.63232)">
    <path
       d="m 300.31824,458.11569 7.1781,0 0,-19.4896 8.4884,0 0,-4.4845 c 0,-1.4952 -1.3059,-2.133 -2.5625,-3.6836 -1.2566,-1.5505 -2.6802,-4.119 -4.9649,-5.6055 -2.2848,-1.4865 -5.8717,-2.0818 -8.3282,-3.043 -2.4565,-0.9612 -4.508,-2.0276 -6.4063,-2.7227 -4.3798,-1.6035 -4.7381,-1.2931 -8.168,-4.4844 -3.0694,-2.8562 -9.8643,-9.7163 -15.215,-14.0938 -8.3529,-6.8341 -2.2742,-9.2792 4.3441,-9.8827 -3.5039,-3.4232 -6.1058,-16.0858 -6.1058,-31.182 0,-17.723 3.5861,-32.0955 8.0078,-32.0955 l 7.6473,0 c -0.9853,-0.3892 -1.6866,-0.8235 -2.6804,-1.3559 -1.5012,-0.8041 -3.1184,-1.4059 -4.4884,-2.8853 -1.37,-1.4794 -2.351,-3.8472 -3.5266,-5.7708 l -0.3206,-3.8472 c -0.1811,-2.1736 19.1373,-4.5592 22.7625,-5.1296 7.7692,-1.2226 15.2694,-3.8613 22.7625,-1.2824 3.265,1.124 8.5238,2.4979 14.1063,5.4502 5.5826,2.9523 14.7447,9.1888 19.236,12.1827 4.4912,2.994 5.4737,3.4416 7.6943,5.7708 2.22069,2.3292 3.63349,5.3433 5.45019,8.015 l 3.52661,-12.1828 c 5.6248,-15.2212 -1.1886,-28.6605 -4.46541,-47.9179 -0.792,-4.6559 -0.169,-7.6468 0.2398,-10.0721 0.4087,-2.4253 0.9827,-3.1295 2.15831,-4.1567 6.7699,-5.9165 9.0742,-4.8419 13.3494,2.8777 0.7728,2.105 1.5455,4.21 2.3182,6.315 l 3.5172,-4.6363 c 6.6598,-6.0256 10.3882,-4.4527 11.7508,3.9968 0.5329,8.8197 1.0658,17.6395 1.5987,26.4592 l 0.631,-0.7577 c 32.6367,-38.6172 0.8683,52.804 -5.1259,62.0291 -5.9218,9.1137 -7.6376,11.4917 -11.8652,20.6464 -3.6349,7.871 -5.2818,17.2525 -4.9646,29.1858 0.2423,9.125 -0.811,17.8331 -0.4862,28.3437 l 6.6399,0 0,19.4896 5.4323,0 0,152.9764 -89.1657,0 0,-152.9764 z m -17.5493,-67.4144 c -0.051,-0.0474 -0.1018,-0.097 -0.1525,-0.1486 0.051,0.0516 0.1014,0.1007 0.1525,0.1486 z m -0.1633,-0.1596 c -0.052,-0.053 -0.1032,-0.1075 -0.1542,-0.1641 0.051,0.0566 0.1029,0.1114 0.1542,0.1641 z m -0.3283,-0.3663 c -0.044,-0.0535 -0.088,-0.1088 -0.1321,-0.1655 0.044,0.0567 0.088,0.1122 0.1321,0.1655 z m -0.1729,-0.2182 c -0.042,-0.0547 -0.084,-0.1109 -0.1253,-0.1684 0.041,0.0575 0.083,0.1137 0.1253,0.1684 z m -0.1655,-0.2251 c -0.042,-0.0592 -0.084,-0.1196 -0.1259,-0.1817 0.042,0.0621 0.084,0.1222 0.1259,0.1817 z m -0.4658,-0.7228 -0.1122,-0.1951 c 0.037,0.0661 0.075,0.1313 0.1122,0.1951 z m -2.8391,-8.1329 -0.1078,-0.4901 0.045,0.2066 0.063,0.2835 z m -0.4224,-2.0492 -0.041,-0.216 0.016,0.0853 0,0.0154 0.022,0.1153 z m -0.3623,-2.0783 -0.043,-0.2696 0.019,0.1222 0.01,0.0476 0,8e-4 0.016,0.099 z m -0.089,-0.5675 -0.032,-0.2095 -0.064,-0.4323 -0.041,-0.2872 0.012,0.0874 0,0.0121 0.026,0.1792 z m -0.1771,-1.2198 -0.03,-0.2214 0.01,0.0661 0,0.0107 0.02,0.1446 z m -0.03,-0.2214 -0.072,-0.5448 0.051,0.3841 0.022,0.1607 z m -0.08,-0.6049 -0.073,-0.5825 0.052,0.4192 0.021,0.1633 z m -0.073,-0.5825 -0.016,-0.1295 -0.01,-0.0423 0,-0.0235 -0.01,-0.0768 -0.059,-0.5052 0,-0.0232 0,-0.0295 -0.018,-0.1576 0,-0.009 -9e-4,-0.009 0,-0.009 -9e-4,-0.009 0,-0.009 -8e-4,-0.009 0,-0.009 -8e-4,-0.009 0,-0.009 -8e-4,-0.009 0,-0.009 -9e-4,-0.009 -0.033,-0.2953 -0.01,-0.072 -8e-4,-0.009 0,-0.009 -9e-4,-0.009 0,-0.009 -9e-4,-0.009 0,0.0178 z m -0.1735,-1.5157 0,-0.0181 8e-4,0.009 0,0.009 z m 0,-0.0269 0,-0.0182 8e-4,0.009 0,0.009 z m -0.1301,-1.3068 -0.021,-0.2251 0,0.0539 0.016,0.1712 z m -0.1581,-1.8632 -0.043,-0.5718 0.01,0.0726 0.037,0.4992 z m -0.1333,-1.9715 -0.02,-0.3393 0.01,0.102 0,0.0601 0,0.0627 0.01,0.1145 z m -0.042,-0.7503 -0.015,-0.2843 0,0.0773 0,0.0329 0.01,0.1741 z m -0.015,-0.2843 -0.023,-0.4814 0.023,0.4757 3e-4,0.006 z m -0.1137,-2.962 -0.01,-0.3968 0.01,0.2497 3e-4,0.017 0,0.1301 z m -0.032,-1.5576 0,-0.2446 3e-4,0.0255 0,0.009 0,0.2106 z m 0.01,-4.2843 0.01,-0.4572 -0.01,0.2613 0,0.1406 -9e-4,0.0553 z m 0.045,-1.7716 8e-4,-0.023 -5e-4,0.0116 -3e-4,0.0114 z m 0,-0.0343 9e-4,-0.0227 -6e-4,0.0113 -3e-4,0.0114 z m 0,-0.057 0.01,-0.2665 -0.01,0.2549 -3e-4,0.0116 z m 0.051,-1.3181 0.026,-0.5533 -0.019,0.3906 0,0.0768 0,0.0343 0,0.0516 z m 0.037,-0.7807 0.025,-0.4646 -0.015,0.2818 0,0.0907 0,0.0921 z m 0.043,-0.7945 0.02,-0.3331 -0.013,0.2194 0,0.036 0,0.0309 0,0.0468 z m 0.045,-0.7512 0.022,-0.3339 -0.011,0.1689 0,0.0658 0,0.0408 0,0.0584 z m 0.05,-0.7569 0.029,-0.4036 -0.019,0.261 0,0.0241 -9e-4,0.0111 0,0.0488 0,0.0586 z m 0.057,-0.7758 0.029,-0.3685 -0.015,0.1859 -0.014,0.1826 z m 0.058,-0.7183 0.029,-0.3405 -0.012,0.1387 -0.01,0.081 -0.01,0.0788 0,0.042 z m 0.067,-0.7657 0.033,-0.356 -0.023,0.2401 0,0.0193 -6e-4,0.007 -0.01,0.0901 z m 0.064,-0.6868 0.048,-0.4773 -0.027,0.2667 0,0.015 -0.01,0.0527 -0.011,0.1163 0,0.0266 z m 0.068,-0.676 0.047,-0.4445 -0.019,0.176 -0.018,0.1695 -0.01,0.099 z m 0.082,-0.7592 0.042,-0.3705 -0.016,0.1392 -0.01,0.0839 -0.01,0.0511 -0.011,0.0963 z m 0.082,-0.7117 0.052,-0.4264 -0.016,0.1293 -0.019,0.155 0,0.0207 -0.01,0.0876 0,0.0338 z m 0.075,-0.6126 0.066,-0.5179 -0.027,0.2018 -0.012,0.0899 -0.016,0.1298 -0.012,0.0964 z m 0.1009,-0.779 0.06,-0.443 -0.016,0.1117 -0.01,0.0635 -0.036,0.2678 z m 0.076,-0.5544 0.068,-0.4737 -0.01,0.0669 -0.034,0.2378 -0.024,0.169 z m 0.1086,-0.7467 0.062,-0.4062 -0.025,0.1616 0,0.008 0,0.0162 0,0.008 0,0.008 0,0.008 0,0.019 -0.026,0.1771 z m 0.1004,-0.6548 0.071,-0.4405 -0.023,0.1395 -0.01,0.0411 -0.032,0.2038 0,0.008 0,0.008 0,0.008 0,0.008 0,0.008 0,0.008 0,0.008 z m 0.083,-0.5165 0.082,-0.4912 -0.01,0.0584 0,0.0122 -0.038,0.2236 -0.01,0.038 -0.026,0.159 z m 0.2359,-1.3558 0.077,-0.4141 -0.029,0.1502 -0.038,0.2081 -0.01,0.0558 z m 0.091,-0.4853 0.09,-0.4651 -0.054,0.2778 -0.011,0.053 -0.025,0.1343 z m 0.1241,-0.6341 0.094,-0.4603 0,0.021 -0.048,0.2304 0,0.009 -0.04,0.1998 z m 0.1233,-0.5981 0.085,-0.3943 -0.049,0.2228 -0.036,0.1715 z m 0.085,-0.3943 0.042,-0.1927 -0.028,0.1267 -0.014,0.066 z m 0.042,-0.1927 0.093,-0.4139 -0.011,0.0488 -0.057,0.254 -0.025,0.1111 z m 0.1202,-0.531 0.089,-0.3775 -0.047,0.1984 0,0.0176 -0.037,0.1615 z m 0.2551,-1.0539 0.093,-0.3597 -0.035,0.1346 0,0.007 0,0.007 0,0.007 0,0.007 0,0.007 0,0.007 0,0.007 0,0.007 0,0.007 0,0.007 0,0.007 0,0.007 -0.035,0.1383 z m 0.093,-0.3597 0.042,-0.159 0,-0.007 0,-0.007 0,-0.007 0,-0.007 0,-0.007 0,-0.007 0,-0.007 0,-0.007 0,-0.007 0,-0.007 0,-0.007 0.033,-0.123 0.01,-0.0212 0.056,-0.2058 0.01,-0.0182 -0.1,0.3682 z m 0.3192,-1.1562 0.1275,-0.4284 -0.05,0.1676 0,0.007 0,0.007 0,0.007 0,0.007 0,0.007 0,0.007 0,0.007 0,0.007 0,0.007 0,0.007 0,0.007 0,0.007 0,0.007 0,0.007 0,0.007 0,0.007 0,0.007 0,0.007 -0.035,0.1176 -0.01,0.0216 z m 0.1499,-0.5015 0.01,-0.0198 0,0.007 0,0.006 0,0.007 z m 0.01,-0.0264 0.085,-0.2712 -0.039,0.1236 0,0.0124 -0.03,0.0956 0,0.006 0,0.007 0,0.007 0,0.007 0,0.007 0,0.006 z m 0.1449,-0.4597 0.1066,-0.326 -0.067,0.2046 -0.018,0.0562 -0.021,0.0652 z m 0.1312,-0.4003 c 0.048,-0.1448 0.097,-0.2869 0.1469,-0.4269 l -0.048,0.1372 -0.01,0.0156 -0.067,0.1945 -0.011,0.0317 -0.016,0.0479 z m 0.1483,-0.4311 0.1346,-0.3725 -0.05,0.1355 0,0.0133 -0.068,0.1891 -0.012,0.0346 z m 0.1675,-0.4615 c 0.044,-0.1191 0.089,-0.2367 0.1341,-0.3527 l -0.046,0.1185 -0.062,0.1619 -0.027,0.0723 z m 0.1502,-0.3943 c 0.049,-0.1247 0.098,-0.2472 0.1475,-0.368 l -0.028,0.0686 -0.095,0.2376 -0.024,0.0618 z m 0.163,-0.4059 c 0.049,-0.1182 0.098,-0.2347 0.1474,-0.349 l -0.034,0.0797 -0.08,0.1902 -0.033,0.0791 z m 0.161,-0.3802 c 1.0914,-2.5086 2.3437,-4.0172 3.6794,-4.2137 l 0,-10e-4 -0.098,0.0167 -0.022,0.005 c -0.062,0.013 -0.1244,0.0289 -0.1862,0.0473 l -0.01,0.002 -9e-4,0 -0.01,0.003 c -0.062,0.0196 -0.1245,0.0417 -0.1863,0.0666 l -0.017,0.007 c -0.061,0.0252 -0.1216,0.053 -0.1822,0.0836 l -0.015,0.008 c -0.064,0.0329 -0.1282,0.0683 -0.1917,0.1074 l 0,9e-4 0,10e-4 c -0.062,0.0377 -0.123,0.0785 -0.1845,0.1222 l -0.027,0.0195 c -0.057,0.0417 -0.1148,0.0856 -0.172,0.1321 l -0.016,0.0131 c -0.059,0.0487 -0.1185,0.1003 -0.1774,0.1547 l -0.024,0.0227 c -0.055,0.0516 -0.1103,0.1052 -0.165,0.1613 l -0.032,0.0337 c -0.052,0.0539 -0.1032,0.1097 -0.1542,0.1673 l -0.032,0.0357 c -0.052,0.0595 -0.1034,0.121 -0.155,0.1848 l -0.044,0.0553 c -0.05,0.0635 -0.1004,0.1284 -0.1503,0.1956 l -0.031,0.0417 c -0.051,0.0697 -0.1015,0.1414 -0.1519,0.2148 l -0.028,0.0408 c -0.051,0.076 -0.1026,0.154 -0.1536,0.2342 l -0.04,0.0638 c -0.046,0.0728 -0.091,0.1471 -0.1363,0.2231 l -0.048,0.0813 -0.1239,0.2171 -0.048,0.0862 c -0.041,0.0751 -0.082,0.1514 -0.1225,0.2291 l -0.069,0.1326 -0.1142,0.2276 -0.062,0.1279 -0.1012,0.2143 -0.051,0.1091 -0.1068,0.239 -0.037,0.0864 z m -1.2404,3.517 -0.046,0.1593 0,0.0108 0,0.013 -0.083,0.2945 z m -0.2727,0.9839 -0.03,0.1162 z m -0.1363,0.5264 -0.05,0.2001 -0.078,0.3189 z m -1.2093,39.5475 0,0.0202 z m 4.542,14.04 c 0.05,0.0593 0.099,0.1168 0.1485,0.1721 z m 2.4565,1.3303 c 5.5014,2.5254 10.4354,5.2884 15.6937,8.4966 7.0631,0.5168 12.6031,1.4329 18.8986,-2.4024 4.1556,-2.5316 11.9591,-9.178 17.0271,-14.246 2.5163,-2.5164 4.2197,-3.7029 5.1296,-6.0914 0.9099,-2.3885 0.322,-4.5811 0,-7.3738 -0.322,-2.7927 -0.6871,-5.7486 -1.9236,-9.2973 -1.2365,-3.5487 -3.1161,-8.4425 -5.4502,-11.8622 -2.334,-3.4197 -5.2897,-5.3966 -8.3355,-8.3355 -3.0458,-2.939 -7.2791,-7.3435 -9.9386,-9.2974 -2.6594,-1.9539 -2.1347,-1.9188 -5.7707,-2.2442 -3.636,-0.3254 -11.6884,0.4814 -15.7094,0.3206 -3.969,-0.1587 -6.1262,-0.7293 -8.2522,-1.2617 3.6899,2.8644 6.4772,15.8825 6.4772,31.5071 0,17.5065 -3.4988,31.7418 -7.846,32.0876 z"
       style="fill:#000000;fill-rule:evenodd;fill-opacity:0.11764706"
       id="path386"
       inkscape:connector-curvature="0" />
    <path
       d="m 293.96294,451.36349 0,159.7286 89.1657,0 0,-159.7286 -89.1657,0 z"
       style="fill:#364656;fill-rule:evenodd"
       id="path388"
       inkscape:connector-curvature="0" />
    <path
       d="m 383.12864,451.36349 0,159.7286 -16.6784,0 0,-159.7286 16.6784,0 z"
       style="fill:#4a5968;fill-rule:evenodd"
       id="path390"
       inkscape:connector-curvature="0" />
    <path
       d="m 301.14114,451.36349 0,-19.4896 76.5552,0 0,19.4896 -76.5552,0 z"
       style="fill:#f5f7ea;fill-rule:evenodd"
       id="path392"
       inkscape:connector-curvature="0" />
    <path
       d="m 371.05654,431.87389 c -0.3249,-10.5106 0.7285,-19.2186 0.4861,-28.3436 -0.3172,-11.9333 1.3297,-21.3148 4.9646,-29.1858 4.2276,-9.1548 5.9434,-11.5327 11.8653,-20.6464 5.9941,-9.2251 37.7625,-100.6464 5.1258,-62.0291 l -0.6309,0.7577 c -0.533,-8.8198 -1.0659,-17.6395 -1.5988,-26.4592 -1.3626,-8.4495 -5.091,-10.0225 -11.7507,-3.9968 l -3.5173,4.6363 c -0.7727,-2.105 -1.5454,-4.21 -2.3181,-6.315 -4.2752,-7.7196 -6.5795,-8.7942 -13.34951,-2.8778 -1.17549,1.0273 -1.74959,1.7314 -2.15829,4.1568 -0.4088,2.4253 -1.0318,5.4161 -0.2398,10.072 3.27679,19.2575 10.0902,32.6968 4.46539,47.918 l -3.52659,12.1828 c -1.8167,-2.6717 -3.2295,-5.6858 -5.4502,-8.015 -2.2206,-2.3292 -3.2031,-2.7768 -7.6943,-5.7708 -4.4912,-2.9939 -13.6534,-9.2304 -19.2359,-12.1827 -5.5826,-2.9523 -10.8414,-4.3263 -14.1064,-5.4502 -7.4931,-2.579 -14.9932,0.0598 -22.7624,1.2824 -3.6253,0.5703 -22.9437,2.956 -22.7625,5.1296 0.1068,1.2824 -0.3368,2.2033 0.3206,3.8472 0.6573,1.6438 2.1566,4.2913 3.5265,5.7707 1.37,1.4794 2.9872,2.0812 4.4884,2.8854 1.5013,0.8042 2.3352,1.3853 4.4884,1.9236 2.1532,0.5383 4.3146,1.1217 8.3356,1.2824 4.0209,0.1607 12.0733,-0.646 15.7093,-0.3206 3.636,0.3254 3.1113,0.2903 5.7708,2.2442 2.6594,1.9539 6.8927,6.3584 9.9385,9.2973 3.0458,2.939 6.0015,4.9159 8.3356,8.3356 2.334,3.4197 4.2137,8.3135 5.4501,11.8621 1.2365,3.5487 1.6016,6.5047 1.9236,9.2974 0.322,2.7927 0.91,4.9853 0,7.3738 -0.9099,2.3884 -2.6132,3.575 -5.1295,6.0913 -5.0681,5.0681 -12.8716,11.7145 -17.0272,14.2461 -6.2955,3.8353 -11.8355,2.9191 -18.8986,2.4024 -5.8136,-3.5473 -11.2308,-6.5498 -17.4571,-9.2892 -5.8995,-0.8427 -24.9713,-0.3095 -12.6525,9.7696 5.3507,4.3776 12.1456,11.2377 15.215,14.0939 3.4299,3.1913 3.7882,2.8809 8.168,4.4844 1.8984,0.6951 3.9498,1.7615 6.4063,2.7227 2.4565,0.9612 6.0435,1.5565 8.3282,3.043 2.2847,1.4865 3.7083,4.0549 4.9649,5.6055 1.2566,1.5505 2.5625,2.1883 2.5625,3.6836 l 0,4.4844 61.4271,0 z"
       style="fill:#efb47c;fill-rule:evenodd"
       id="path394"
       inkscape:connector-curvature="0" />
    <path
       d="m 263.98454,393.75639 c 3.8977,3.189 8.5612,7.6947 11.9934,11.0109 0.2169,-0.3526 0.3387,-0.8124 0.3387,-1.4014 0,-4.4753 -0.9844,-10.4338 -3.8437,-13.2931 -2.1963,-2.1963 -5.8564,-3.2893 -8.5669,-1.3598 -1.186,0.8442 -1.8142,3.3086 0.079,5.0434 z"
       style="fill:#fcc99b;fill-rule:evenodd"
       id="path396"
       inkscape:connector-curvature="0" />
    <path
       d="m 377.79334,371.60769 c 3.3596,-7.0076 5.2945,-9.7767 10.5792,-17.9096 5.055,-7.78 28.4402,-74.018 16.0681,-71.4183 -0.4796,3.8457 -0.5312,6.6738 -1.4394,11.5384 -0.9082,4.8651 -2.4344,11.8037 -4.0039,17.6173 l -4.3243,16.0158 c -1.548,5.1783 -3.0656,11.2263 -4.6445,15.5352 -1.5789,4.309 -3.3101,7.1802 -4.8048,10.2501 -1.4947,3.0699 -2.7759,5.4454 -4.1641,8.168 l -3.0809,7.1907 -0.1854,3.0124 z"
       style="fill:#fcc99b;fill-rule:evenodd"
       id="path398"
       inkscape:connector-curvature="0" />
    <path
       d="m 392.86744,292.42669 c -0.533,-8.8198 -1.0659,-17.6395 -1.5988,-26.4592 -0.9663,-5.9927 -3.1235,-8.5252 -6.6719,-7.342 -0.058,2.8154 -0.3053,6.0681 -0.1738,8.4464 0.4607,8.331 2.8307,17.1887 3.6837,25.6252 0.4269,4.5377 1.0411,10.1681 1.2812,13.6134 0.2401,3.4452 0.9862,5.2191 0.561,7.5294 -1.1208,6.0857 -1.8785,11.8819 -3.7641,17.7754 l -2.5625,8.0079 -4.2843,19.2288 c 1.6951,-4.5411 3.3823,-8.3052 5.085,-13.6233 1.7028,-5.318 3.657,-13.1062 5.1251,-18.2579 1.468,-5.1517 3.0373,-8.3424 3.6836,-12.6525 0.6463,-4.31 0.1066,-8.6485 0.1602,-12.9727 l -0.5244,-8.9189 z"
       style="fill:#fcc99b;fill-rule:evenodd"
       id="path400"
       inkscape:connector-curvature="0" />
    <path
       d="m 371.05654,431.87389 c -0.3249,-10.5106 0.7285,-19.2186 0.4861,-28.3436 -0.3172,-11.9333 1.3297,-21.3148 4.9646,-29.1858 0.5105,-1.1055 0.9839,-2.1112 1.4332,-3.0427 l 0.076,-5.4128 c 0.043,-3.0458 1.1744,-5.9791 1.7618,-8.9688 1.2812,-5.7656 2.8556,-12.0353 3.8438,-17.297 0.9881,-5.2616 1.5216,-10.3569 2.082,-14.254 0.5604,-3.8971 1.0409,-6.2946 1.2813,-9.129 0.5853,-6.9091 0.1715,-12.1762 -1.6016,-18.7384 l -3.8438,-11.3712 c -1.2813,-4.2707 -2.9205,-9.5581 -3.8438,-12.8126 -0.9232,-3.2544 -1.1304,-4.4739 -1.6957,-6.711 -0.7727,-2.105 -1.5454,-4.21 -2.3181,-6.315 -1.5869,-2.8656 -2.8525,-4.7537 -4.1814,-5.7164 l -1.4358,-0.6735 0,-3e-4 c -0.5792,0.76 -1.4069,1.0993 -1.738,2.2794 -0.331,1.18 -0.3486,2.8672 -0.1601,4.4844 0.1885,1.6171 0.5193,3.5195 1.2812,5.125 0.762,1.6056 1.4392,1.582 3.2032,4.3243 1.764,2.7422 2.3664,6.0857 3.8438,10.7305 2.109,6.6308 7.5421,22.1035 7.3672,33.7933 -0.053,3.5693 -0.5873,6.2183 -1.2812,10.8907 -0.694,4.6723 -1.8139,12.1127 -2.8829,17.1368 -1.0689,5.0241 -2.2121,9.2631 -2.9619,13.0932 -0.7498,3.8302 -1.2022,6.4996 -1.5225,9.8093 l -0.8008,-2.2422 -3.3633,-9.4493 c -1.7084,-3.9503 -3.42901,-8.1618 -5.12501,-11.8516 -1.696,-3.6899 -3.3659,-6.8545 -5.04909,-10.2818 -1.8167,-2.6717 -3.2295,-5.6858 -5.4502,-8.015 -2.2206,-2.3292 -3.2031,-2.7768 -7.6943,-5.7708 -4.4912,-2.9939 -13.6534,-9.2304 -19.2359,-12.1827 -5.5826,-2.9523 -10.8414,-4.3263 -14.1064,-5.4502 -7.4931,-2.579 -14.9932,0.0598 -22.7624,1.2824 -2.8367,0.4462 -15.2819,2.0041 -20.4747,3.7021 0.3901,1.5908 0.9734,3.0288 1.8816,4.0439 4.9102,5.4881 11.5314,-1.2731 16.0158,-2.5626 1.9619,-0.5641 7.3035,-1.8178 12.9801,-2.2039 14.4119,-0.786 23.228,5.5548 31.0632,10.0517 7.8352,4.4968 6.8777,3.7306 9.6094,5.6055 2.7318,1.8748 4.7586,3.4217 6.7267,5.6055 1.9681,2.1838 2.4259,2.8505 4.9648,7.3672 2.539,4.5167 7.4143,13.2786 10.25009,19.6994 2.8358,6.4207 4.36761,10.4754 6.72661,18.7384 2.359,8.263 -0.583,12.8109 -1.6015,22.4221 -0.8017,7.5656 -2.0288,25.1983 -3.04301,37.7971 l 6.33291,0 z"
       style="fill:#fcc99b;fill-rule:evenodd"
       id="path402"
       inkscape:connector-curvature="0" />
    <path
       d="m 298.78774,416.62979 c 1.2124,0.3977 2.3738,0.8586 3.3143,1.4706 2.2847,1.4865 3.7083,4.0549 4.9649,5.6055 1.2566,1.5505 2.5625,2.1883 2.5625,3.6836 l 0,4.4844 16.49,0 c -0.1724,-1.8887 -0.559,-3.9002 -0.559,-5.6327 0,-2.2731 -7.7686,-4.3072 -9.5925,-4.7163 -5.8699,-1.3167 -11.5225,-4.6207 -17.1802,-4.8951 z"
       style="fill:#dfa47b;fill-rule:evenodd"
       id="path404"
       inkscape:connector-curvature="0" />
    <path
       d="m 335.29034,364.26389 c 0.3127,2.2876 0.646,4.2067 -0.1409,6.2723 -0.9099,2.3884 -2.6132,3.575 -5.1295,6.0913 -5.0681,5.0681 -12.8716,11.7145 -17.0272,14.2461 -6.2938,3.8342 -11.8327,2.9197 -18.8929,2.4027 l 0,2e-4 c 9.8002,1.1537 19.6319,4.4181 28.8227,-1.6021 6.7036,-4.3914 13.8923,-16.5478 12.9727,-25.465 -0.08,-0.7728 -0.2908,-1.4137 -0.6049,-1.9455 z"
       style="fill:#dfa47b;fill-rule:evenodd"
       id="path406"
       inkscape:connector-curvature="0" />
    <path
       d="m 278.23854,320.59619 a 8.0079,32.0957 0 0 1 8.0079,32.0957 8.0079,32.0957 0 1 1 -8.0079,-32.0957 z"
       style="fill:#ffd87b;fill-rule:evenodd"
       id="path408"
       inkscape:connector-curvature="0" />
    <path
       d="m 273.23624,327.63209 -0.029,0.0955 0,0.007 0,0.007 0,0.007 0,0.006 0,0.007 0,0.006 0,0.007 0,0.007 0,0.007 0,0.007 0,0.007 0,0.007 0,0.0133 0,0.007 0,0.007 0,0.007 -0.01,0.0201 0,0.007 -0.05,0.1675 0,0.007 0,0.007 0,0.007 0,0.007 0,0.007 0,0.006 0,0.007 0,0.007 0,0.007 0,0.007 0,0.007 0,0.007 0,0.007 0,0.007 0,0.007 0,0.007 0,0.007 0,0.007 -0.035,0.1177 -0.01,0.0215 -0.062,0.2155 0,0.0107 0,0.0131 -0.083,0.2965 0,0.015 -0.01,0.0181 -0.056,0.2058 -0.01,0.0213 -0.033,0.123 0,0.007 0,0.007 0,0.007 0,0.007 0,0.007 0,0.007 0,0.007 0,0.007 0,0.007 0,0.007 0,0.007 0,0.007 0,0.007 0,0.007 0,0.0142 0,0.007 -0.066,0.2508 0,0.007 0,0.007 0,0.007 0,0.007 0,0.007 0,0.007 0,0.007 0,0.007 0,0.007 0,0.007 0,0.007 0,0.007 -0.035,0.1383 -0.01,0.0255 -0.056,0.2251 -0.078,0.3189 -0.01,0.0278 -0.066,0.2775 0,0.0175 -0.076,0.3274 -0.057,0.254 -0.053,0.2379 -0.063,0.2888 -0.07,0.3302 -0.048,0.2305 0,0.009 -0.07,0.3478 0,0.021 -0.054,0.2778 -0.011,0.053 -0.068,0.3557 -0.038,0.2081 -0.059,0.3223 -0.043,0.2435 -0.072,0.413 0,0.0122 -0.038,0.2236 -0.01,0.038 -0.062,0.3745 -0.01,0.0411 -0.032,0.2038 0,0.008 0,0.008 0,0.008 0,0.008 0,0.008 0,0.008 0,0.008 0,0.008 0,0.008 0,0.008 0,0.008 0,0.008 0,0.008 -0.056,0.3623 0,0.008 0,0.0162 0,0.008 0,0.008 0,0.008 0,0.019 -0.077,0.5171 -0.034,0.2378 -0.055,0.392 -0.01,0.0635 -0.036,0.2679 -0.01,0.0641 -0.052,0.3988 -0.012,0.0899 -0.016,0.1298 -0.051,0.4119 -0.019,0.155 0,0.0207 -0.01,0.0876 -0.06,0.5142 -0.01,0.0839 -0.01,0.051 -0.064,0.5871 -0.018,0.1695 -0.058,0.5644 0,0.015 -0.01,0.0527 -0.011,0.1162 -0.057,0.5976 0,0.0193 -6e-4,0.007 -0.058,0.6539 -0.01,0.0811 -0.01,0.0788 -0.047,0.5777 -0.017,0.2205 -0.044,0.5953 0,0.0241 -9e-4,0.0111 0,0.0487 -0.044,0.6506 0,0.0657 0,0.0409 -0.042,0.6959 0,0.036 0,0.0309 -0.036,0.6585 0,0.0907 0,0.0921 -0.029,0.6179 0,0.0769 0,0.0343 -0.031,0.7494 -3e-4,0.01 -3e-4,0.007 -6e-4,0.0113 -3e-4,0.0114 -5e-4,0.0113 -3e-4,0.0113 -0.019,0.5471 -3e-4,0.0117 -8e-4,0.0226 -3e-4,0.0117 -6e-4,0.0113 -3e-4,0.0113 -2e-4,0.0114 -6e-4,0.0116 -3e-4,0.0113 -3e-4,0.0114 -5e-4,0.0116 -3e-4,0.0113 -0.01,0.1644 -0.019,0.6585 0,0.0471 -5e-4,0.0229 -0.014,0.6486 0,0.1406 0,0.0825 -0.011,0.6928 -6e-4,0.0422 -5e-4,0.0457 -0.01,0.7426 -3e-4,0.0349 -3e-4,0.0669 0,0.7614 c 0,0.5539 0,1.1044 0.01,1.6515 l 0,0.008 0.011,0.6783 c 0.01,0.3155 0.012,0.6298 0.02,0.9428 l 3e-4,0.017 0.02,0.6999 0,0.002 c 0.01,0.2967 0.019,0.593 0.031,0.8872 l 8e-4,0.0249 0.027,0.6594 6e-4,0.0113 0.01,0.2112 0,0.0309 0.027,0.5596 0,0.083 0,0.0329 0.037,0.6871 0,0.0601 0,0.0627 0.041,0.6786 0,0.0314 0,0.04 0.043,0.6384 0.01,0.087 0.01,0.1114 0.041,0.5578 0.01,0.0885 0,0.047 0.051,0.6276 0.015,0.1772 0.055,0.6296 9e-4,0.01 0,0.0539 0.056,0.5825 0.023,0.2293 0.043,0.4272 0.023,0.2208 8e-4,0.009 0,0.009 8e-4,0.009 9e-4,0.009 0,0.009 9e-4,0.009 8e-4,0.009 0,0.009 9e-4,0.009 0,0.009 9e-4,0.009 0.04,0.3674 9e-4,0.009 0,0.009 9e-4,0.009 0,0.009 8e-4,0.009 0,0.009 8e-4,0.009 0,0.009 8e-4,0.009 0,0.009 9e-4,0.009 0,0.009 0.018,0.1576 0,0.0295 0.062,0.5283 0.01,0.0769 0.01,0.0657 0.068,0.5488 0.024,0.1843 0,0.0215 0.053,0.4017 0.03,0.2267 0,0.0108 0.073,0.5227 0,0.0122 0.026,0.1792 0.067,0.4532 0.015,0.1012 0.012,0.0757 0.068,0.4402 0.01,0.0477 0,8e-4 0.039,0.2401 0.052,0.3161 0.044,0.2616 0.073,0.4255 0.01,0.0445 3e-4,0.002 0.039,0.2202 0.061,0.3357 0,0.0243 0.033,0.1769 0,0.0153 0.091,0.4737 0.041,0.2081 0,0.0158 0.056,0.2761 0,0.008 0.05,0.2449 0,0.006 0.083,0.3946 0.01,0.0337 0.048,0.2197 0.063,0.2835 0.01,0.0232 0.041,0.182 8e-4,0.004 0,0.007 0,0.007 0,0.007 0,0.007 0,0.007 0,0.0141 0,0.007 0,0.007 0.067,0.2906 0,0.007 0,0.007 0,0.007 0,0.0142 0,0.007 0,0.007 0,0.007 0,0.007 0,0.007 0,0.007 0,0.007 0,0.007 0,0.007 0.034,0.1409 0,0.0144 0.073,0.2982 0,0.0108 0.054,0.2154 0,0.009 0.081,0.3189 3e-4,0 c 1.4412,5.5672 3.3985,8.9926 5.5576,8.9926 l -8.0078,0 c -4.4218,0 -8.0079,-14.3725 -8.0079,-32.0958 0,-17.7231 3.5861,-32.0956 8.0079,-32.0956 l 8.0078,0 c -0.067,0 -0.1332,0.004 -0.1995,0.0102 l -0.017,0.002 c -0.061,0.007 -0.1222,0.0159 -0.1832,0.0278 l -0.022,0.005 c -0.062,0.0131 -0.1244,0.029 -0.1862,0.0474 l -0.01,0.002 -8e-4,0 -0.01,0.003 c -0.062,0.0195 -0.1244,0.0417 -0.1862,0.0666 l -0.017,0.007 c -0.061,0.0252 -0.1216,0.053 -0.1823,0.0836 l -0.015,0.008 c -0.064,0.0328 -0.1281,0.0683 -0.1916,0.1074 l 0,8e-4 0,0.001 c -0.062,0.0377 -0.123,0.0785 -0.1845,0.1222 l -0.027,0.0195 c -0.057,0.0417 -0.1148,0.0856 -0.1721,0.1321 l -0.016,0.013 c -0.059,0.0488 -0.1185,0.1004 -0.1774,0.1548 l -0.024,0.0227 c -0.055,0.0516 -0.1103,0.1052 -0.165,0.1613 l -0.032,0.0337 c -0.052,0.0539 -0.1032,0.1097 -0.1542,0.1673 l -0.032,0.0357 c -0.052,0.0595 -0.1035,0.121 -0.1551,0.1848 l -0.044,0.0553 c -0.05,0.0635 -0.1004,0.1284 -0.1503,0.1956 l -0.031,0.0416 c -0.051,0.0698 -0.1014,0.1415 -0.1519,0.2149 l -0.028,0.0408 c -0.051,0.076 -0.1026,0.1539 -0.1536,0.2342 l -0.04,0.0637 c -0.046,0.0729 -0.091,0.1472 -0.1363,0.2231 l -0.048,0.0814 -0.1239,0.2171 -0.048,0.0862 c -0.041,0.0751 -0.082,0.1514 -0.1225,0.229 l -0.069,0.1327 -0.1142,0.2276 -0.062,0.1279 -0.1012,0.2143 -0.05,0.1091 -0.1069,0.239 -0.086,0.1972 -0.08,0.1902 -0.077,0.1857 -0.095,0.2376 -0.086,0.2219 -0.061,0.1619 -0.1094,0.2968 0,0.0133 -0.068,0.1891 -0.062,0.176 -0.01,0.0156 -0.067,0.1944 -0.011,0.0318 -0.108,0.3268 -0.018,0.0561 -0.1199,0.3773 0,0.0125 z"
       style="fill:#fb8f4a;fill-rule:evenodd"
       id="path410"
       inkscape:connector-curvature="0" />
    <path
       d="m 301.14114,431.87389 0,19.4896 76.5552,0 0,-19.4896 -76.5552,0 z"
       style="fill:none"
       id="path412"
       inkscape:connector-curvature="0" />
    <path
       d="m 280.93234,356.22969 c 0,-0.9541 0.017,-2.6657 0.054,-4.4643 l 0.01,-0.4821 -1.4748,1.4748 c -0.1301,2.5966 -0.2911,5.2416 -0.8014,7.8185 -0.3968,2.0036 -0.8022,3.3234 -1.207,3.9782 -0.3946,0.6386 -0.8926,0.9133 -1.4876,0.8305 -0.5224,-0.0728 -0.9315,-0.4243 -1.2257,-1.0494 -0.379,-0.8044 -0.7075,-2.4185 -0.9745,-4.8058 -0.036,-0.3257 -0.068,-0.6528 -0.096,-0.9802 l -0.3364,0.3364 -1.503,-1.5029 1.7082,-1.7081 c -0.01,-0.8074 0.01,-1.6175 0.044,-2.4285 0.093,-2.0905 0.326,-4.1882 0.6531,-6.2612 l 2.0926,0.3238 c -0.3144,1.9919 -0.5383,4.0116 -0.6282,6.0287 l -0.01,0.184 1.6934,-1.6935 c 0.1885,-3.8324 0.3852,-7.5345 1.6427,-10.7827 0.1752,-0.4527 0.4382,-0.7523 0.7687,-0.915 l 0,0 c 0.6265,-0.307 1.1968,-0.1341 1.6855,0.4331 0.2248,0.26 0.4388,0.6353 0.629,1.0922 0.4309,1.0341 0.8274,2.6873 0.9879,4.4547 l 0.3982,-0.3983 1.503,1.5029 -1.8769,1.8769 c -0.036,0.7764 -0.064,1.7356 -0.084,2.7144 -0.031,1.5143 -0.045,3.2797 -0.045,4.4229 l -2.126,0 z m 0.1783,-8.0663 c 0.057,-1.6914 -0.2064,-3.4526 -0.5678,-4.7313 -0.5009,1.8961 -0.7157,3.9821 -0.8532,6.1523 l 1.421,-1.421 z m -5.3725,8.3784 c 0.031,0.923 0.095,1.8425 0.197,2.7558 0.1108,0.9913 0.2265,1.8202 0.3464,2.484 0.1131,-0.4538 0.2313,-0.9907 0.3543,-1.612 0.3351,-1.6923 0.5134,-3.4263 0.633,-5.1585 l -1.5307,1.5307 z"
       style="fill:#fb8f4a;fill-rule:evenodd"
       id="path414"
       inkscape:connector-curvature="0" />
  </g>
</svg>
