<?xml version="1.0" encoding="UTF-8" standalone="no"?>
<!-- Created with Inkscape (http://www.inkscape.org/) -->

<svg
   xmlns:dc="http://purl.org/dc/elements/1.1/"
   xmlns:cc="http://creativecommons.org/ns#"
   xmlns:rdf="http://www.w3.org/1999/02/22-rdf-syntax-ns#"
   xmlns:svg="http://www.w3.org/2000/svg"
   xmlns="http://www.w3.org/2000/svg"
   xmlns:sodipodi="http://sodipodi.sourceforge.net/DTD/sodipodi-0.dtd"
   xmlns:inkscape="http://www.inkscape.org/namespaces/inkscape"
   width="162.70895mm"
   height="78.92572mm"
   viewBox="0 0 576.52779 279.65806"
   id="svg5373"
   version="1.1"
   inkscape:version="0.91 r13725"
   inkscape:export-filename="D:\OpenServer\domains\naturallook.flat\img\arm\lamp-arm.png"
   inkscape:export-xdpi="96.474106"
   inkscape:export-ydpi="96.474106"
   sodipodi:docname="lamp-arm.svg">
  <defs
     id="defs5375" />
  <sodipodi:namedview
     id="base"
     pagecolor="#ffffff"
     bordercolor="#666666"
     borderopacity="1.0"
     inkscape:pageopacity="0.0"
     inkscape:pageshadow="2"
     inkscape:zoom="0.98994949"
     inkscape:cx="277.49845"
     inkscape:cy="112.36509"
     inkscape:document-units="px"
     inkscape:current-layer="layer1"
     showgrid="false"
     fit-margin-top="0"
     fit-margin-left="0"
     fit-margin-right="0"
     fit-margin-bottom="0"
     inkscape:window-width="1280"
     inkscape:window-height="962"
     inkscape:window-x="-8"
     inkscape:window-y="462"
     inkscape:window-maximized="1" />
  <metadata
     id="metadata5378">
    <rdf:RDF>
      <cc:Work
         rdf:about="">
        <dc:format>image/svg+xml</dc:format>
        <dc:type
           rdf:resource="http://purl.org/dc/dcmitype/StillImage" />
        <dc:title />
      </cc:Work>
    </rdf:RDF>
  </metadata>
  <g
     inkscape:label="Layer 1"
     inkscape:groupmode="layer"
     id="layer1"
     transform="translate(-260.30753,-83.961745)">
    <path
       d="m 357.31422,251.28635 0.8033,-9.1052 c 1.5412,-17.4665 -14.0972,-47.1359 -19.6959,-51.6455 -5.5987,-4.5097 -8.5346,1.7129 -5.8473,3.6839 9.3719,6.8745 21.7819,-8.1604 20.8825,-11.6819 l -1.5284,-5.9825 0.4235,-0.0386 c 0.4731,2.4319 0.4167,3.2678 1.591,5.8303 13.1624,7.3605 30.5819,-4.3112 24.1977,-7.4279 -4.6088,-2.2498 -6.2617,2.8188 -7.3015,15.3459 -1.7121,20.6286 -0.6358,35.5193 4.087,55.2464 -5.4011,3.2137 -11.2833,5.1149 -17.6119,5.7751 z"
       style="fill:none"
       id="path16"
       inkscape:connector-curvature="0" />
    <path
       d="m 349.65892,251.49465 -4.5141,-32.216 c -33.1101,-8.8294 -39.5317,-48.5802 -26.9065,-77.5162 12.6252,-28.9361 49.7795,-30.6556 69.8318,-14.7045 10.2135,8.1247 15.6881,21.8316 16.0889,36.2577 0.4498,16.1855 -5.7549,33.5676 -24.0999,50.6778 l 0.961,12.172 0.6137,14.4578 c -8.9323,7.8157 -19.4607,11.3102 -31.3844,10.8949 l -0.5905,-0.0235 z"
       style="fill:#f9da4e;fill-rule:evenodd"
       id="path18"
       inkscape:connector-curvature="0" />
    <path
       d="m 376.98752,244.20455 -2.609,-15.5611 -1.6016,-18.5783 c 7.6439,-5.2299 11.9514,-8.2482 16.6564,-16.4962 2.2816,-3.9997 4.608,-8.856 6.086,-13.6134 5.3146,-17.1079 2.099,-34.6433 -9.129,-45.6449 -13.2378,-12.9704 -26.3673,-15.5919 -47.5393,-13.3245 l 1.1064,-0.5374 c 15.8456,-6.5047 35.4098,-3.4957 48.1127,6.6092 10.2135,8.1247 15.6881,21.8316 16.0889,36.2577 0.4498,16.1855 -5.7549,33.5676 -24.0999,50.6778 l 0.961,12.172 0.6137,14.4578 c -1.5038,1.3158 -3.053,2.5086 -4.6463,3.5813 z"
       style="fill:#f3cd0d;fill-rule:evenodd"
       id="path20"
       inkscape:connector-curvature="0" />
    <path
       d="m 348.03922,239.93465 -2.8944,-20.656 c -30.2514,-8.0671 -38.2204,-41.9451 -29.7423,-69.8049 2.2374,25.7862 5.8726,54.0828 31.9845,65.6408 l 0.6522,24.8201 z"
       style="fill:#f8e682;fill-rule:evenodd"
       id="path22"
       inkscape:connector-curvature="0" />
    <path
       d="m 346.92242,192.23215 -19.5551,-15.8757 12.172,-2.4024 -1.4415,-15.8556 13.2931,6.2462 3.5235,-16.6564 5.6055,15.0548 14.5743,-13.9337 -2.5625,14.5743 12.6524,-1.6016 -7.9942,12.7647 -0.003,3e-4 c -0.9493,-0.2696 -1.7566,-0.1644 -2.4474,0.3186 l -6e-4,0 -5e-4,9e-4 c -0.6931,0.4847 -1.2694,1.3504 -1.7572,2.596 l -0.002,0.003 -10e-4,0.005 c -0.4935,1.2637 -0.8966,2.9191 -1.2364,4.9672 l -0.002,0.007 -0.0122,0.0771 c -0.0377,0.2299 -0.0749,0.4643 -0.1112,0.7041 l -0.009,0.057 c -5.0752,1.8425 -11.793,2.3482 -17.6653,-0.9355 -1.1743,-2.5625 -1.1179,-3.3984 -1.591,-5.8303 l -0.4235,0.0386 1.5284,5.9825 c 0.4476,1.7529 -2.4029,6.3584 -6.5344,9.6945 z"
       style="fill:#faeb9c;fill-rule:evenodd"
       id="path24"
       inkscape:connector-curvature="0" />
    <path
       d="m 357.31422,251.28635 0.8033,-9.1052 c 1.5412,-17.4665 -14.0972,-47.1359 -19.6959,-51.6455 -5.5987,-4.5097 -8.5346,1.7129 -5.8473,3.6839 9.3719,6.8745 21.7819,-8.1604 20.8825,-11.6819 l -1.5284,-5.9825 0.4235,-0.0386 c 0.4731,2.4319 0.4167,3.2678 1.591,5.8303 13.1624,7.3605 30.5819,-4.3112 24.1977,-7.4279 -4.6088,-2.2498 -6.2617,2.8188 -7.3015,15.3459 -1.7121,20.6286 -0.6358,35.5193 4.087,55.2464 -5.4011,3.2137 -11.2833,5.1149 -17.6119,5.7751 z"
       style="fill:none;stroke:#d79c07;stroke-width:2.12599993;stroke-linecap:butt;stroke-linejoin:miter;stroke-dasharray:none"
       id="path26"
       inkscape:connector-curvature="0" />
    <path
       d="m 357.31422,251.28635 0.8033,-9.1052 c 1.5412,-17.4665 -14.0972,-47.1359 -19.6959,-51.6455 -5.5987,-4.5097 -8.5346,1.7129 -5.8473,3.6839 9.3719,6.8745 21.7819,-8.1604 20.8825,-11.6819 l -1.5284,-5.9825 0.4235,-0.0386 c 0.4731,2.4319 0.4167,3.2678 1.591,5.8303 13.1624,7.3605 30.5819,-4.3112 24.1977,-7.4279 -4.6088,-2.2498 -6.2617,2.8188 -7.3015,15.3459 -1.7121,20.6286 -0.6358,35.5193 4.087,55.2464 -5.4011,3.2137 -11.2833,5.1149 -17.6119,5.7751 z"
       style="fill:#f9e682;fill-rule:evenodd;stroke:#d79c07;stroke-width:2.12599993;stroke-linecap:butt;stroke-linejoin:miter;stroke-dasharray:none"
       id="path28"
       inkscape:connector-curvature="0" />
    <path
       d="m 804.62892,325.10875 c -123.2747,0.43 -246.5495,0.86 -369.8243,1.2903 -7.3,0.7299 -11.3706,2.2691 -16.3505,8.0149 -1.3966,1.6115 -2.6172,3.5249 -3.8472,5.4502 -1.2299,1.9253 -2.351,4.0609 -3.5266,6.0914 -3.8803,6.3496 -11.1719,15.1404 -18.5947,17.3123 -2.3867,0.6979 -5.6423,0.3507 -7.7442,-0.9774 -0.9213,-0.5819 -1.5562,-1.4414 -1.4236,-2.5931 0.2721,-2.3641 1.9559,-2.7199 3.9702,-2.9954 8.4799,-1.1599 18.0224,-23.4723 5.3104,-20.2272 -6.2503,1.5957 -11.1835,9.9644 -18.3877,12.1893 -3.8764,1.1974 -12.4781,4.195 -16.2241,1.1985 -1.7589,-1.4069 -1.4655,-5.2016 0.2806,-6.4395 5.2072,-3.6913 10.6427,-2.5781 16.1827,-7.3862 2.4052,-2.0877 3.7624,-4.4606 4.7968,-7.3571 -4.2846,-0.1712 -7.367,0.6231 -10.0721,1.1192 -6.218,1.1401 -14.9901,0.3132 -19.8243,-4.0768 -1.3289,-1.2065 -2.5354,-2.8744 -3.4373,-4.4765 -0.902,-1.6021 -1.5024,-3.3848 -1.9185,-5.036 -0.6143,-2.4373 -0.7727,-5.273 -0.3192,-7.7511 0.534,-2.9123 4.7628,-2.6013 5.9947,-0.7223 1.2988,1.9817 1.1225,4.3388 4.8762,6.9546 2.6762,1.8646 11.137,2.0593 13.9889,1.279 0.921,-0.2518 2.6408,-1.1447 3.1176,-2.1583 2.4488,-5.2081 -4.3594,-5.7935 -7.5141,-8.6332 -1.6055,-1.4449 -3.0747,-2.6102 -5.5157,-5.7555 -2.4409,-3.1453 -4.5946,-9.3438 -5.036,-14.8683 -0.1596,-1.9995 -0.3605,-4.1306 -0.2398,-5.9153 0.1208,-1.7847 0.5023,-3.3452 0.9593,-4.7163 1.0808,-3.2445 4.1394,-5.8717 7.516,-5.5636 l -0.6188,-2.8238 -2.2382,0 -0.7195,-4.2367 -2.2382,-0.3997 -0.5596,-6.6348 c 12.1669,0.5531 17.1063,-5.6967 26.1857,-13.6411 l 6.9919,9.8918 -0.2336,1.4932 c 5.0003,-3.4925 15.7643,2.3256 18.3535,5.211 1.9976,2.226 4.8892,4.7531 6.4743,6.3918 3.7508,3.8767 6.0985,4.9655 11.431,5.7555 l 35.8917,1.0392 347.1066,-0.0902 -3.0203,54.7932 z m -438.6004,-53.4119 c 0.3602,1.8848 -0.1284,4.2446 -0.0513,5.9831 0.1896,4.2503 0.7134,6.4335 2.3181,10.3119 10.9996,13.951 34.9127,8.9133 32.9341,-10.0721 -0.3067,-2.9452 -1.6277,-6.7464 -3.4373,-9.1128 -2.4894,-3.2553 -8.4181,-4.3203 -10.8768,-7.3576 l -0.4516,2.8871 -1.8385,0.3198 -0.2399,5.036 -5.5955,1.0392 -12.7613,0.9654 z"
       style="fill:#000000;fill-rule:evenodd;fill-opacity:0.11764706"
       id="path30"
       inkscape:connector-curvature="0" />
    <path
       d="m 381.63382,240.62325 1.2027,7.122 -2.162,13.8215 -1.8385,0.3197 -0.2399,5.0361 -5.5955,1.0391 -13.5108,1.0222 -2.7964,-0.3827 -1.279,-5.8354 -2.2382,0 -0.7195,-4.2366 -2.2382,-0.3997 -0.5596,-6.6348 c 12.1669,0.553 22.8955,-2.927 31.9749,-10.8714 z"
       style="fill:#d6d5d3;fill-rule:evenodd"
       id="path32"
       inkscape:connector-curvature="0" />
    <path
       d="m 381.63382,240.62325 1.2027,7.122 -2.162,13.8215 -1.8385,0.3197 -0.2399,5.0361 -2.7977,0.5195 -15.1464,1.069 0.006,-0.2514 15.1784,-1.6172 0.1581,-3.3588 c -5.0281,0.3492 -9.8572,0.8575 -14.879,0.4422 5.3319,-0.8799 10.646,-1.8402 16.1223,-3.2564 l 0.1202,-3.5379 c -6.6161,0.496 -13.828,1.6577 -20.4134,0.8444 6.6764,-0.7118 13.7055,-2.1438 19.6514,-4.3824 l -0.684,-8.4863 0,-3e-4 c 1.9741,-1.247 3.8818,-2.6736 5.7221,-4.2837 z"
       style="fill:#7e8ca6;fill-rule:evenodd"
       id="path34"
       inkscape:connector-curvature="0" />
    <path
       d="m 797.42352,321.62545 c -123.2747,0.4301 -246.5495,0.8601 -369.8243,1.2904 -7.3,0.7299 -11.3706,2.2691 -16.3505,8.0149 -1.3966,1.6115 -2.6172,3.5249 -3.8472,5.4502 -1.2299,1.9253 -2.351,4.0609 -3.5266,6.0914 -3.8803,6.3496 -11.1719,15.1404 -18.5947,17.3123 -2.3867,0.6979 -5.6423,0.3506 -7.7442,-0.9774 -0.9213,-0.5819 -1.5562,-1.4414 -1.4236,-2.5931 0.2722,-2.3641 1.9559,-2.7199 3.9702,-2.9954 8.4799,-1.1599 18.0224,-23.4723 5.3105,-20.2272 -6.2504,1.5956 -11.1836,9.9644 -18.3878,12.1893 -3.8764,1.1973 -12.4781,4.195 -16.2241,1.1985 -1.7589,-1.4069 -1.4655,-5.2016 0.2806,-6.4395 5.2073,-3.6913 10.6427,-2.5781 16.1827,-7.3862 2.4052,-2.0877 3.7624,-4.4606 4.7968,-7.3571 -4.2846,-0.1712 -7.3669,0.6231 -10.0721,1.1191 -6.218,1.1401 -14.9901,0.3133 -19.8243,-4.0767 -1.3289,-1.2065 -2.5353,-2.8744 -3.4373,-4.4765 -0.902,-1.6022 -1.5024,-3.3849 -1.9185,-5.036 -0.6143,-2.4373 -0.7727,-5.273 -0.3192,-7.7511 0.5341,-2.9123 4.7628,-2.6014 5.9947,-0.7223 1.2989,1.9817 1.1225,4.3387 4.8762,6.9546 2.6762,1.8646 11.137,2.0593 13.989,1.2789 0.9209,-0.2517 2.6407,-1.1446 3.1175,-2.1583 2.4488,-5.208 -4.3594,-5.7934 -7.5141,-8.6331 -1.6055,-1.4449 -3.0747,-2.6102 -5.5156,-5.7555 -2.441,-3.1453 -4.5947,-9.3439 -5.0361,-14.8683 -0.1596,-1.9996 -0.3605,-4.1306 -0.2398,-5.9153 0.1208,-1.7847 0.5023,-3.3452 0.9593,-4.7163 1.3416,-4.0272 5.7302,-7.1048 9.9921,-4.7962 2.8395,1.5378 1.5571,5.8161 1.6787,8.5532 0.1896,4.2503 0.7134,6.4335 2.3181,10.3119 10.9996,13.951 34.9127,8.9133 32.9341,-10.0721 -0.3067,-2.9452 -1.6277,-6.7464 -3.4373,-9.1128 -3.1861,-4.1666 -12.0073,-4.7449 -11.9741,-10.4635 0.0796,-13.7367 17.5326,-4.9076 20.9276,-1.1242 1.9976,2.226 4.8892,4.7531 6.4743,6.3918 3.7508,3.8767 6.0985,4.9655 11.431,5.7555 l 35.8917,1.0392 347.1067,-0.0902 -3.0204,54.7931 z"
       style="fill:#f5bcac;fill-rule:evenodd"
       id="path36"
       inkscape:connector-curvature="0" />
    <path
       d="m 836.83532,328.63815 -11.0231,0 0,7.0563 -28.9958,-3.0555 4.4566,-80.8441 24.344,1.1211 0.1602,3.8438 11.0581,0 0,71.8784 z"
       style="fill:#da6459;fill-rule:evenodd"
       id="path38"
       inkscape:connector-curvature="0" />
    <path
       d="m 825.77712,256.75975 0.0351,71.8784 3.168,0 0,-71.8784 -3.2031,0 z"
       style="fill:#c15d4e;fill-rule:evenodd"
       id="path40"
       inkscape:connector-curvature="0" />
    <path
       d="m 382.83652,247.74525 c 5.4113,-1.5845 14.3722,3.3925 16.7037,5.9908 1.9976,2.226 4.8892,4.7531 6.4743,6.3918 3.7508,3.8767 6.0985,4.9655 11.431,5.7555 l 35.8917,1.0392 347.1067,-0.0902 -0.635,11.5203 -310.6548,0.6412 c -16.1368,-0.3206 -32.2735,-0.6412 -48.4103,-0.9618 -19.3899,-1.9117 -28.5262,-2.1166 -41.1191,-17.2281 -4.1335,-5.3737 -6.6422,-7.7715 -12.5995,-10.876 l -4.1887,-2.1827 z"
       style="fill:#efac9d;fill-rule:evenodd"
       id="path42"
       inkscape:connector-curvature="0" />
    <path
       d="m 797.67212,317.11075 c -124.1608,0.3209 -241.6064,0.6245 -365.7676,0.9456 -13.1678,0.1548 -18.8918,3.2698 -23.4533,9.7892 l -7.2828,10.4083 c 5.3351,-12.8892 9.9828,-22.4544 25.136,-22.5814 l 38.2836,-0.3212 333.3444,-2.9639 -0.2603,4.7234 z"
       style="fill:#f7c4b7;fill-rule:evenodd"
       id="path44"
       inkscape:connector-curvature="0" />
    <path
       d="m 797.96642,311.77285 27.8385,2.2371 0.003,7.0344 -28.2161,-2.48 0.3742,-6.7915 z"
       style="fill:#e36c67;fill-rule:evenodd"
       id="path46"
       inkscape:connector-curvature="0" />
    <path
       d="m 346.92242,192.23215 -19.5551,-15.8757 12.172,-2.4024 -1.4415,-15.8556 13.2931,6.2462 3.5235,-16.6564 5.6055,15.0548 14.5743,-13.9337 -2.5625,14.5743 12.6524,-1.6016 -7.9942,12.7647 -0.003,3e-4 c -0.9493,-0.2696 -1.7566,-0.1644 -2.4474,0.3186 l -6e-4,0 -5e-4,9e-4 c -0.6931,0.4847 -1.2694,1.3504 -1.7572,2.596 l -0.002,0.003 -10e-4,0.005 c -0.4935,1.2637 -0.8966,2.9191 -1.2364,4.9672 l -0.002,0.007 -0.0122,0.0771 c -0.0377,0.2299 -0.0749,0.4643 -0.1112,0.7041 l -0.009,0.057 c -5.0752,1.8425 -11.793,2.3482 -17.6653,-0.9355 -1.1743,-2.5625 -1.1179,-3.3984 -1.591,-5.8303 l -0.4235,0.0386 1.5284,5.9825 c 0.4476,1.7529 -2.4029,6.3584 -6.5344,9.6945 z"
       style="fill:none;stroke:#d79c07;stroke-width:2.12599993;stroke-linecap:butt;stroke-linejoin:miter;stroke-dasharray:none"
       id="path48"
       inkscape:connector-curvature="0" />
    <path
       d="m 357.31422,251.28635 0.8033,-9.1052 c 1.5412,-17.4665 -14.0972,-47.1359 -19.6959,-51.6455 -5.5987,-4.5097 -8.5346,1.7129 -5.8473,3.6839 9.3719,6.8745 21.7819,-8.1604 20.8825,-11.6819 l -1.5284,-5.9825 0.4235,-0.0386 c 0.4731,2.4319 0.4167,3.2678 1.591,5.8303 13.1624,7.3605 30.5819,-4.3112 24.1977,-7.4279 -4.6088,-2.2498 -6.2617,2.8188 -7.3015,15.3459 -1.7121,20.6286 -0.6358,35.5193 4.087,55.2464 -5.4011,3.2137 -11.2833,5.1149 -17.6119,5.7751 z"
       style="fill:none;stroke:#d79c07;stroke-width:2.12599993;stroke-linecap:butt;stroke-linejoin:miter;stroke-dasharray:none"
       id="path50"
       inkscape:connector-curvature="0" />
    <path
       d="m 357.31422,251.28635 0.8033,-9.1052 c 1.5412,-17.4665 -14.0972,-47.1359 -19.6959,-51.6455 -5.5987,-4.5097 -8.5346,1.7129 -5.8473,3.6839 9.3719,6.8745 21.7819,-8.1604 20.8825,-11.6819 l -1.5284,-5.9825 0.4235,-0.0386 c 0.4731,2.4319 0.4167,3.2678 1.591,5.8303 13.1624,7.3605 30.5819,-4.3112 24.1977,-7.4279 -4.6088,-2.2498 -6.2617,2.8188 -7.3015,15.3459 -1.7121,20.6286 -0.6358,35.5193 4.087,55.2464 -5.4011,3.2137 -11.2833,5.1149 -17.6119,5.7751 z"
       style="fill:none"
       id="path52"
       inkscape:connector-curvature="0" />
    <path
       d="m 278.93992,142.15075 -18.2477,-5.146"
       style="fill:none;stroke:#ffffff;stroke-width:2.83459997;stroke-linecap:butt;stroke-linejoin:miter;stroke-dasharray:none"
       id="path54"
       inkscape:connector-curvature="0" />
    <path
       d="m 414.48792,97.456045 13.1096,-12.4702"
       style="fill:#ffffff;fill-rule:evenodd"
       id="path60"
       inkscape:connector-curvature="0" />
    <path
       d="m 413.51332,96.431845 13.1097,-12.4701 1.9491,2.0483 -13.1097,12.4702 -1.9491,-2.0484 z"
       style="fill:#ffffff;fill-rule:evenodd"
       id="path62"
       inkscape:connector-curvature="0" />
    <path
       d="m 439.63772,181.96195 16.8165,4.9649"
       style="fill:#ffffff;fill-rule:evenodd;stroke:#ffffff;stroke-width:2.83459997;stroke-linecap:butt;stroke-linejoin:miter;stroke-dasharray:none"
       id="path64"
       inkscape:connector-curvature="0" />
    <path
       d="m 291.17172,205.82545 -13.9337,13.7735"
       style="fill:none;stroke:#ffffff;stroke-width:2.83459997;stroke-linecap:butt;stroke-linejoin:miter;stroke-dasharray:none"
       id="path66"
       inkscape:connector-curvature="0" />
  </g>
</svg>
