<?xml version="1.0" encoding="UTF-8" standalone="no"?>
<!-- Created with Inkscape (http://www.inkscape.org/) -->

<svg
   xmlns:dc="http://purl.org/dc/elements/1.1/"
   xmlns:cc="http://creativecommons.org/ns#"
   xmlns:rdf="http://www.w3.org/1999/02/22-rdf-syntax-ns#"
   xmlns:svg="http://www.w3.org/2000/svg"
   xmlns="http://www.w3.org/2000/svg"
   xmlns:sodipodi="http://sodipodi.sourceforge.net/DTD/sodipodi-0.dtd"
   xmlns:inkscape="http://www.inkscape.org/namespaces/inkscape"
   width="48.525578mm"
   height="87.680405mm"
   viewBox="0 0 171.94102 310.6786"
   id="svg4727"
   version="1.1"
   inkscape:version="0.91 r13725"
   inkscape:export-filename="D:\OpenServer\domains\naturallook.flat\img\arm\lipstick-arm.png"
   inkscape:export-xdpi="157.03"
   inkscape:export-ydpi="157.03"
   sodipodi:docname="lipstick-arm.svg">
  <defs
     id="defs4729" />
  <sodipodi:namedview
     id="base"
     pagecolor="#ffffff"
     bordercolor="#666666"
     borderopacity="1.0"
     inkscape:pageopacity="0.0"
     inkscape:pageshadow="2"
     inkscape:zoom="0.98994949"
     inkscape:cx="-0.57997237"
     inkscape:cy="139.5012"
     inkscape:document-units="px"
     inkscape:current-layer="layer1"
     showgrid="false"
     fit-margin-top="0"
     fit-margin-left="0"
     fit-margin-right="0"
     fit-margin-bottom="0"
     inkscape:window-width="1280"
     inkscape:window-height="962"
     inkscape:window-x="-8"
     inkscape:window-y="462"
     inkscape:window-maximized="1" />
  <metadata
     id="metadata4732">
    <rdf:RDF>
      <cc:Work
         rdf:about="">
        <dc:format>image/svg+xml</dc:format>
        <dc:type
           rdf:resource="http://purl.org/dc/dcmitype/StillImage" />
        <dc:title></dc:title>
      </cc:Work>
    </rdf:RDF>
  </metadata>
  <g
     inkscape:label="Layer 1"
     inkscape:groupmode="layer"
     id="layer1"
     transform="translate(-228.3152,-194.16576)">
    <path
       d="m 287.9095,245.92916 0,0.06 0,0.06 0,0.06 0,0.06 0,0.059 0,0.059 0,0.059 0,0.059 0,0.059 0,0.059 0,0.059 0,0.059 0,0.058 0,0.058 -0.01,0.1165 0,0.058 0,0.058 0,0.058 0,0.058 -6e-4,0 0,0.054 0,0.058 0,0.058 0,0.057 0,0.057 0,0.057 0,0.057 0,0.057 0,0.057 0,0.057 0,0.056 0,0.057 0,0.056 0,0.056 0,0.056 0,0.056 0,0.056 0,0.056 0,0.056 0,0.056 0,0.056 0,0.056 0,0.055 0,0.055 0,0.055 0,0.055 0,0.055 0,0.055 0,0.055 0,0.055 -5e-4,0.01 0,0.046 0,0.055 0,0.054 0,0.054 0,0.054 0,0.054 0,0.054 0,0.054 0,0.054 0,0.054 0,0.054 0,0.054 0,0.054 0,0.053 -0.027,0.3293 -0.013,0.1486 -0.03,0.3767 -0.041,0.5162 0,3e-4 0,0.042 -0.01,0.094 -0.067,0.8725 0,3e-4 -0.028,0.3855 -0.01,0.1063 0,3e-4 -0.01,0.1306 -0.056,0.8238 0,0.018 0,0.028 -8e-4,0.014 -9e-4,0.014 -8e-4,0.014 0,0.014 -9e-4,0.014 -8e-4,0.014 -9e-4,0.014 -8e-4,0.014 -9e-4,0.014 0,0.014 -9e-4,0.014 -8e-4,0.014 -9e-4,0.014 -8e-4,0.014 -9e-4,0.014 -8e-4,0.014 0,0.028 -9e-4,0.014 -8e-4,0.014 -9e-4,0.014 -8e-4,0.014 -9e-4,0.014 -8e-4,0.014 -9e-4,0.014 -8e-4,0.014 -9e-4,0.014 -8e-4,0.014 -9e-4,0.014 -8e-4,0.014 -9e-4,0.014 -8e-4,0.014 -9e-4,0.014 -8e-4,0.014 -9e-4,0.014 -8e-4,0.014 -9e-4,0.014 -8e-4,0.014 -6e-4,0.014 -8e-4,0.014 -9e-4,0.014 -8e-4,0.014 -9e-4,0.014 -8e-4,0.014 -9e-4,0.014 0,0.028 -9e-4,0.014 -8e-4,0.014 -9e-4,0.014 -8e-4,0.014 -6e-4,0.014 -8e-4,0.014 -9e-4,0.014 -8e-4,0.014 -9e-4,0.014 -5e-4,0.014 -9e-4,0.014 -8e-4,0.014 -9e-4,0.014 -6e-4,0.014 -8e-4,0.014 0,0.027 -0.01,0.1307 -0.017,0.3282 -3e-4,0 -0.021,0.4533 0,3e-4 -0.018,0.4478 -0.015,0.4431 -0.011,0.4385 -0.01,0.3305 0,0 0,0.01 0,0.1911 0,0.2168 0,0.024 -8e-4,0.2203 0,0.1533 8e-4,0.2226 0,0.013 0,0.193 3e-4,0.011 0,0.1848 3e-4,0.015 0,0.1863 0,0.2029 0.011,0.3357 0,0.04 0,0.036 0.017,0.3742 0,0.01 0.02,0.3673 0,0.047 0.01,0.125 0.016,0.2353 0,0.016 0.013,0.1667 9e-4,0.01 0.016,0.2001 3e-4,0 0.019,0.2131 0,0.016 0.016,0.1647 0.021,0.2038 0.019,0.1786 0.024,0.21 0.017,0.1423 0.01,0.047 0.025,0.1953 5e-4,0 0.024,0.1706 8e-4,0.01 0.026,0.1873 0,0.017 0,0.028 0.051,0.3322 0.01,0.037 0.025,0.1496 0.037,0.2206 0.042,0.2316 0.029,0.1564 0.038,0.1951 0.038,0.1902 0.042,0.1998 0.043,0.2027 8e-4,0 0.042,0.1879 0,0.01 0.045,0.1948 0.054,0.2228 0.039,0.1567 0.051,0.2036 0.058,0.2216 0.012,0.043 0.04,0.1491 0,0.01 0.059,0.212 0.058,0.2033 0.049,0.1661 0.071,0.2395 0,0.01 5e-4,0 0,0 0,0.01 0,0.01 0,0.01 0,0.01 0,0.01 0,0.01 0,0.01 0,0.01 0,0.01 0,0.01 0,0.01 0.066,0.2134 0,0.01 0.012,0.038 0,0.01 0,0.01 0,0.01 0,0.01 0,0.01 0,0.01 0,0.01 0,0.01 0,0.01 0,0 9e-4,0 0,0.01 0,0.01 0,0.01 3e-4,6e-4 0.087,0.2681 0,0.01 0,0.01 0,0.01 0,0.01 0,0.01 0,0.01 0,0.012 0,0.01 0,0.01 0,0.01 0,0.01 0,0.01 0,0.01 0,0.01 0,0.01 0,0.01 0.01,0.017 0.053,0.1556 0.01,0.024 0.017,0.05 0.066,0.1927 0.073,0.207 0.075,0.2109 0.082,0.2222 0.079,0.2129 0.08,0.21 0.089,0.2305 0,0.011 0.074,0.1868 0.1012,0.2522 0.086,0.2115 0.084,0.201 0.1004,0.2384 0.1389,0.3234 0.05,0.1145 0.1324,0.298 0.076,0.1703 3e-4,0 0,0.01 0,0.01 0,0.01 0,0.01 0,3e-4 0.1604,0.3507 0,0.01 0,0.01 0.01,0.014 0,0.01 0,0.01 0,0.01 0,0.01 0,0.01 0.023,0.051 3e-4,0 0.081,0.1712 0.1273,0.2702 0.011,0.023 0.09,0.188 0.01,0.016 0.1233,0.2551 0,0.01 0.09,0.1822 0.026,0.053 0.1193,0.2392 0.116,0.2313 2e-4,6e-4 0,0 0.1537,0.3013 0.096,0.188 0.1502,0.2894 0.017,0.033 0.099,0.1886 0.014,0.027 0.1332,0.2506 0.1392,0.2608 0.2203,0.4064 0.05,0.092 0,0.01 0,0.01 0,0.01 0,0.01 0,0.01 0,0.01 0,0.01 0,0.01 0.2429,0.4399 0,0.01 0.01,0.01 0,0.01 0,0.01 0,0.01 c 9.3191,16.7102 31.8157,47.6356 40.3475,59.4592 4.5575,6.3162 9.7344,12.1306 14.8022,18.1542 -4.1604,-4.9453 -8.3942,-9.7494 -12.2984,-14.8062 4.2789,2.6082 8.3999,4.9887 12.8378,7.8248 11.02,7.0424 21.0895,14.8467 31.4578,22.7979 4.8008,3.6819 8.742,6.5047 11.1339,8.483 2.3913,1.978 2.7491,1.9287 3.1808,3.3579 0.432,1.4289 0.1131,3.2448 -0.8836,4.2415 -0.7429,0.7426 -5.5763,2.3196 -7.2456,2.4741 -6.5537,0.6063 -13.9913,-4.5454 -19.6169,-7.2457 5.112,10.023 3.6278,20.1759 3.5345,31.104 l 0.5301,18.9099 c -1.4329,2.4563 -1.118,2.1337 -3.7114,1.0605 -6.0273,-2.4951 -11.2099,-4.4961 -11.664,-11.3105 -0.1772,-2.6561 -0.1772,-8.1885 -0.3535,-11.8409 -0.3033,-6.2793 -0.6806,-10.0086 -3.0041,-15.7289 -1.7405,-4.3509 -3.2194,-8.0147 -5.6554,-12.0175 0.7656,4.4181 1.7376,9.3645 2.2974,13.2545 0.5599,3.8897 0.707,6.7159 1.0602,10.0735 -0.5891,10.0145 -1.3541,24.5291 -1.7671,30.0439 -0.5429,7.2513 -1.1376,15.165 -1.4137,22.9745 -0.9428,0.0589 -1.4218,0.4459 -2.8278,0.1769 -5.921,-1.1325 -11.7578,-5.2473 -12.371,-11.664 -0.3277,-3.4308 0,-10.1328 0,-15.1988 l 0.8836,-24.9189 0,-7.4222 -3.0042,6.7156 c -1.1197,2.6509 -2.1186,5.4442 -3.3579,7.9529 -4.5264,9.1615 -11.6107,15.4984 -18.7333,22.621 l -9.5431,8.6596 c -0.3887,-0.2591 -0.8303,-0.434 -1.2374,-0.6636 l 0,16.3924 0,6.3624 -2.2708,0 0,38.4143 -18.5235,-13.4955 c -0.5742,-9.45463 -1.6834,-19.97933 0,-24.9188 l -2.0036,0 0,-6.3624 0,-41.7413 c -1.1877,1.3723 -3.3539,3.7364 -3.7111,3.9218 -0.9612,0.4983 -1.6495,-0.4714 -2.4741,-0.707 l -5.1253,-8.8367 c -1.944,-3.7704 -3.3276,-6.0662 -5.832,-11.3105 -2.5044,-5.2441 -6.8913,-14.7838 -9.1899,-20.147 -17.9541,-41.8949 -10.1628,-90.8464 -9.2353,-135.032 l -9.3523,0 0,-24.1535 3.5793,0.5242 0,-28.3238 58.0473,0 0,36.8234 -57.428,-8.4089 62.1805,9.1051 0,14.4335 -6.694,0 z m 59.8133,107.5612 c 0.6307,0.7497 1.2595,1.5026 1.8853,2.2603 -0.6258,-0.7577 -1.2549,-1.5106 -1.8853,-2.2603 z m -51.7805,68.0471 0.014,-0.0179 0.016,-0.0196 0.045,-0.0549 0.045,-0.055 0.026,-0.0318 0.019,-0.0235 0.045,-0.0553 0.045,-0.0555 0.023,-0.0281 0.023,-0.0278 0.045,-0.0558 0.046,-0.0559 0.02,-0.0241 0.026,-0.032 0.046,-0.0564 0.046,-0.0564 0.016,-0.0204 0.03,-0.0363 0.047,-0.0567 0.046,-0.057 0.013,-0.0164 0.033,-0.0408 0.047,-0.0573 0.047,-0.0575 0.01,-0.0125 0.037,-0.0454 0.047,-0.0578 0.047,-0.0581 0.01,-0.009 0.041,-0.0499 0.047,-0.0587 0.048,-0.0587 0,-0.004 0.044,-0.0547 0.048,-0.059 0.048,-0.0595 c 2.2972,-2.7686 4.9155,-5.6509 6.8924,-8.3061 4.2559,-5.7178 5.4148,-9.7631 6.8925,-16.6124 3.4171,-16.7817 -1.2799,-43.6544 -18.3413,-47.8041 -9.6934,-2.3578 -16.4744,1.8547 -21.4226,10.5143 -1.1973,2.0957 -1.999,4.2214 -2.651,7.2459 -2.8955,13.4292 0.9128,21.2655 4.5947,33.3193 l 0,-3.9824 22.7979,0 0,27.1449 z"
       style="fill:#000000;fill-opacity:0.11965811;fill-rule:evenodd"
       id="path8"
       inkscape:connector-curvature="0"
       sodipodi:nodetypes="ccccccccccccccccccccccccccccccccccccccccccccccccccccccccccccccccccccccccccccccccccccccccccccccccccccccccccccccccccccccccccccccccccccccccccccccccccccccccccccccccccccccccccccccccccccccccccccccccccccccccccccccccccccccccccccccccccccccccccccccccccccccccccccccccccccccccccccccccccccccccccccccccccccccccccccccccccccccccccccccccccccccccccccccccccccccccccccsccccccccccccccccccccccccccccccccccccccccccccccccccccccccccccccccccccccccccccccccccccccccccccccccccccccc" />
    <path
       d="m 293.9511,246.21476 c -0.9834,12.823 -2.0854,17.8508 4.6553,29.9381 9.3191,16.7103 31.8158,47.6359 40.3475,59.4594 7.2922,10.1064 16.1699,18.9275 23.6478,29.3757 3.2399,5.3019 7.4704,11.4952 9.7201,15.9055 5.1122,10.0232 3.6277,20.1761 3.5345,31.1042 l 0.5302,18.9099 c -1.4329,2.4564 -1.1179,2.1336 -3.7113,1.0604 -6.0275,-2.4949 -11.2099,-4.4958 -11.6641,-11.3106 -0.177,-2.656 -0.177,-8.1883 -0.3534,-11.8408 -0.3034,-6.2793 -0.6806,-10.0085 -3.0044,-15.7288 -1.7404,-4.351 -3.2189,-8.0147 -5.6553,-12.0175 0.7657,4.4182 1.7376,9.3647 2.2975,13.2546 0.5599,3.8899 0.7069,6.7157 1.0603,10.0735 -0.5893,10.0144 -1.3543,24.5289 -1.7672,30.0438 -0.5427,7.2515 -1.1377,15.1651 -1.4139,22.9746 -0.9427,0.0588 -1.4216,0.4458 -2.8276,0.1768 -5.9212,-1.1327 -11.7579,-5.2471 -12.371,-11.6641 -0.3278,-3.4307 0,-10.1326 0,-15.1986 l 0.8837,-24.9187 0,-7.4226 -3.0044,6.7157 c -1.1195,2.6509 -2.1186,5.4445 -3.3579,7.9528 -4.5264,9.1617 -11.6105,15.4986 -18.7331,22.6212 l -9.5434,8.6596 c -0.7069,-0.4713 -1.5899,-0.6643 -2.1207,-1.4138 -2.2415,-3.1645 -3.7738,-7.4792 -3.5346,-11.4873 0.2988,-5.0072 2.6578,-7.417 5.6553,-11.1339 2.2975,-2.7688 4.9159,-5.6509 6.8924,-8.3062 4.2559,-5.7176 5.4151,-9.7632 6.8924,-16.6125 3.4173,-16.7816 -1.2796,-43.6543 -18.3409,-47.8041 -9.6935,-2.3576 -16.4745,1.8548 -21.4229,10.5145 -1.1974,2.0954 -1.9987,4.2212 -2.6509,7.2459 -3.0817,14.2927 1.4304,22.2496 5.3018,35.6991 0.5893,2.5918 1.442,5.6762 1.7673,7.776 0.3253,2.0998 0.4805,3.2821 0.1767,4.7716 -0.3037,1.4896 -1.2493,2.9516 -1.944,3.8881 -0.5383,0.7256 -3.9609,4.5345 -4.4182,4.7716 -0.9612,0.4983 -1.6493,-0.4714 -2.4742,-0.7069 l -5.1251,-8.8364 c -1.944,-3.7704 -3.3278,-6.0663 -5.832,-11.3106 -2.5042,-5.2443 -6.8915,-14.7839 -9.1899,-20.147 -17.954,-41.8949 -10.1629,-90.8464 -9.2352,-135.0322 l 50.3328,0 z"
       style="fill:#f7b594;fill-rule:evenodd"
       id="path324"
       inkscape:connector-curvature="0" />
    <path
       d="m 300.4302,423.80996 c 0.818,-1.12 1.7674,-2.2368 2.7909,-3.5062 2.2972,-2.7686 4.9156,-5.6508 6.8925,-8.3061 4.2559,-5.7177 5.4147,-9.763 6.8924,-16.6124 3.4172,-16.7817 -1.2798,-43.6544 -18.3413,-47.804 -9.6933,-2.3579 -16.4744,1.8547 -21.4225,10.5142 -1.1974,2.0957 -1.999,4.2214 -2.651,7.246 -3.0818,14.2928 1.4304,22.2497 5.3017,35.6992 0.1871,0.8229 0.4008,1.6957 0.6157,2.5707 -4.288,-7.0806 -10.4607,-17.5456 -10.7164,-27.1153 -0.3816,-14.283 6.6237,-33.6629 23.7243,-33.6629 12.1132,0 22.7987,9.9394 25.9684,20.8389 3.9218,13.4859 0.5497,32.4593 -5.6089,45.3637 -2.8471,5.9655 -11.3366,14.1027 -11.8922,18.3368 l 0,-1.825 c 0.2551,-0.5779 -0.4518,-1.1681 -1.5536,-1.7376 z"
       style="fill:#f7b594;fill-rule:evenodd"
       id="path326"
       inkscape:connector-curvature="0" />
    <path
       d="m 301.9838,421.85516 c 0.4011,-0.5099 0.8209,-1.0343 1.2606,-1.5794 2.2972,-2.7686 4.9476,-5.6095 6.9239,-8.2647 4.2559,-5.7172 5.36,-9.7764 6.8377,-16.6258 3.4172,-16.7817 -1.2254,-43.6411 -18.2866,-47.7907 -9.6933,-2.3576 -16.4743,1.8547 -21.4225,10.5143 -1.1974,2.0956 -1.999,4.2213 -2.651,7.2459 -2.8811,13.3628 0.8754,21.1878 4.54,33.1404 l 0,2.8369 c -4.1204,-6.9361 -9.1097,-16.2391 -9.339,-24.8227 -0.3816,-14.2829 6.6237,-33.6628 23.7243,-33.6628 12.1133,0 22.7987,9.9394 25.9684,20.8389 3.9218,13.4858 0.5497,32.4595 -5.6089,45.3636 -2.584,5.4151 -10.1557,12.7679 -11.9469,17.2457 l 0,-4.4396 z"
       style="fill:#dea686;fill-rule:evenodd"
       id="path328"
       inkscape:connector-curvature="0" />
    <path
       d="m 351.998,381.07026 c 0.7657,4.4181 1.7377,9.3646 2.2975,13.2546 0.5599,3.8897 0.707,6.7158 1.0602,10.0734 -0.5891,10.0146 -1.3541,24.5291 -1.7671,30.0439 -0.5429,7.2513 -1.1376,15.1651 -1.4137,22.9745 -0.1757,0.0111 -0.3356,0.0332 -0.4881,0.0607 -0.906,-1.5061 -2.2195,-5.2161 -2.0656,-12.0527 0.1922,-8.5393 1.7592,-16.3899 2.001,-25.4888 0.6361,-23.9411 -0.5301,-39.4478 -9.6282,-61.4027 4.9669,6.9517 8.1213,17.7783 10.004,22.5371 z"
       style="fill:#fed1bf;fill-rule:evenodd"
       id="path330"
       inkscape:connector-curvature="0" />
    <path
       d="m 266.5229,410.13406 c -1.3369,-2.5017 -2.5887,-4.7804 -4.4795,-8.7401 -2.5042,-5.2443 -6.8915,-14.7839 -9.1899,-20.147 -17.954,-41.8949 -10.1629,-90.8464 -9.2352,-135.0322 l 5.0788,0 c -3.5439,22.0848 -3.533,52.6053 -3.533,74.517 0,20.4448 10.4836,66.838 20.4554,82.9087 2.5158,4.0544 2.7545,5.7391 0.9034,6.4936 z"
       style="fill:#dea686;fill-rule:evenodd"
       id="path332"
       inkscape:connector-curvature="0" />
    <path
       d="m 293.9511,246.21476 c -0.098,1.279 -0.1971,2.4792 -0.2896,3.6178 l -4e-4,0 -0.026,0.3293 -0.012,0.1486 -0.03,0.3766 -0.041,0.5161 0,0.042 -0.074,0.9663 -0.029,0.3856 -0.01,0.1064 -0.01,0.131 -0.056,0.8236 0,0.018 c -0.02,0.3037 -0.037,0.6033 -0.054,0.8992 l 0,0.028 -0.01,0.1307 -0.017,0.3281 0,0.084 -0.017,0.3694 -0.018,0.441 0,0.01 -0.013,0.3919 0,0.051 -0.01,0.3444 0,0.094 -0.01,0.2977 -6e-4,0.045 0,0.254 0,0.1539 -9e-4,0.2443 0,0.1535 9e-4,0.2353 0,0.1929 0,0.2109 0,0.1864 0,0.2027 0.011,0.3359 0,0.04 0,0.036 0.017,0.3741 0,0.01 0.02,0.3672 0,0.046 0.01,0.1251 0.016,0.2355 0.015,0.1924 0.016,0.2002 0.021,0.2314 0.012,0.1245 0.025,0.244 0.019,0.1786 0.024,0.2099 0.017,0.1426 0.032,0.2465 0.023,0.1705 0.03,0.2102 0,0.028 0.051,0.3322 0.01,0.037 0.063,0.3701 0.042,0.2318 0.029,0.1564 0.038,0.1948 0.038,0.1902 0.042,0.1999 0.043,0.2027 0.044,0.1964 0.045,0.1949 0.053,0.2227 0.039,0.157 0.058,0.2296 0.051,0.1952 0.053,0.1995 0.059,0.2121 0.057,0.203 0.049,0.1661 0.071,0.2396 0,0.01 0.1216,0.3903 7e-4,0 c 0.041,0.1299 0.084,0.2603 0.1276,0.3913 l 0.01,0.017 0.061,0.1796 0.083,0.243 0.073,0.2068 0.075,0.2111 0.082,0.2221 0.079,0.2127 0.08,0.2102 0.089,0.2305 0.078,0.1974 0.1013,0.2524 0.086,0.2115 0.084,0.2011 0.1001,0.2383 0.1392,0.3231 0.05,0.1148 0.1323,0.2978 0.076,0.1705 3e-4,0 0.2015,0.4405 0.023,0.051 0.081,0.1711 0.1273,0.2703 0.1089,0.2268 0.1235,0.2552 0.1201,0.2443 0.1192,0.2396 0.1164,0.2318 0.1551,0.3046 0.097,0.188 0.1501,0.2893 0.1301,0.2484 0.1333,0.2506 0.1392,0.2608 0.2202,0.4063 0.05,0.092 0.305,0.5518 c 9.3191,16.7103 31.8158,47.6359 40.3475,59.4594 7.2922,10.1064 16.1699,18.9275 23.6478,29.3757 3.2399,5.3019 7.4704,11.4952 9.7201,15.9055 5.1122,10.0232 3.6277,20.1761 3.5345,31.1042 l 0.012,0.4132 c -0.3272,-0.4495 -0.629,-0.9296 -0.9074,-1.4401 -4.7135,-8.6453 4.1967,-18.9096 -12.7514,-39.1836 -39.228,-46.9265 -84.6468,-94.9859 -72.1688,-125.5724 l 3.9108,0 z"
       style="fill:#f7b594;fill-rule:evenodd"
       id="path334"
       inkscape:connector-curvature="0" />
    <path
       d="m 293.9511,246.21476 c -0.098,1.279 -0.1971,2.4792 -0.2896,3.6178 l -4e-4,0 -0.026,0.3293 -0.012,0.1486 -0.03,0.3766 -0.041,0.5161 0,0.042 -0.074,0.9663 -0.029,0.3856 -0.01,0.1064 -0.01,0.131 -0.056,0.8236 0,0.018 c -0.02,0.3037 -0.037,0.6033 -0.054,0.8992 l 0,0.028 -0.01,0.1307 -0.017,0.3281 0,0.084 -0.017,0.3694 -0.018,0.441 0,0.01 -0.013,0.3919 0,0.051 -0.01,0.3444 0,0.094 -0.01,0.2977 -6e-4,0.045 0,0.254 0,0.1539 -9e-4,0.2443 0,0.1535 9e-4,0.2353 0,0.1929 0,0.2109 0,0.1864 0,0.2027 0.011,0.3359 0,0.04 0,0.036 0.017,0.3741 0,0.01 0.02,0.3672 0,0.046 0.01,0.1251 0.016,0.2355 0.015,0.1924 0.016,0.2002 0.021,0.2314 0.012,0.1245 0.025,0.244 0.019,0.1786 0.024,0.2099 0.017,0.1426 0.032,0.2465 0.023,0.1705 0.03,0.2102 0,0.028 0.051,0.3322 0.01,0.037 0.063,0.3701 0.042,0.2318 0.029,0.1564 0.038,0.1948 0.038,0.1902 0.042,0.1999 0.043,0.2027 0.044,0.1964 0.045,0.1949 0.053,0.2227 0.039,0.157 0.058,0.2296 0.051,0.1952 0.053,0.1995 0.059,0.2121 0.057,0.203 0.049,0.1661 0.071,0.2396 0,0.01 0.1216,0.3903 7e-4,0 c 0.041,0.1299 0.084,0.2603 0.1276,0.3913 l 0.01,0.017 0.061,0.1796 0.083,0.243 0.073,0.2068 0.075,0.2111 0.082,0.2221 0.079,0.2127 0.08,0.2102 0.089,0.2305 0.078,0.1974 0.1013,0.2524 0.086,0.2115 0.084,0.2011 0.1001,0.2383 0.1392,0.3231 0.05,0.1148 0.1323,0.2978 0.076,0.1705 3e-4,0 0.2015,0.4405 0.023,0.051 0.081,0.1711 0.1273,0.2703 0.1089,0.2268 0.1235,0.2552 0.1201,0.2443 0.1192,0.2396 0.1164,0.2318 0.1551,0.3046 0.097,0.188 0.1501,0.2893 0.1301,0.2484 0.1333,0.2506 0.1392,0.2608 0.2202,0.4063 0.05,0.092 0.305,0.5518 c 9.3191,16.7103 31.8158,47.6359 40.3475,59.4594 7.2922,10.1064 16.1699,18.9275 23.6478,29.3757 3.2399,5.3019 7.4704,11.4952 9.7201,15.9055 5.1122,10.0232 3.6277,20.1761 3.5345,31.1042 l 0.012,0.4132 c -0.3272,-0.4495 -0.629,-0.9296 -0.9074,-1.4401 -4.7135,-8.6453 4.1967,-18.9096 -12.7514,-39.1836 -39.228,-46.9265 -84.6468,-94.9859 -72.1688,-125.5724 l 3.9108,0 z"
       style="fill:#f7b594;fill-rule:evenodd"
       id="path336"
       inkscape:connector-curvature="0" />
    <path
       d="m 293.6611,249.83256 -0.026,0.3293 -0.012,0.1486 -0.03,0.3766 -0.041,0.5161 0,0.042 -0.074,0.9663 -0.029,0.3856 -0.01,0.1064 -0.01,0.131 -0.056,0.8236 0,0.018 c -0.02,0.3037 -0.037,0.6033 -0.054,0.8992 l 0,0.028 -0.01,0.1307 -0.017,0.3281 0,0.084 -0.017,0.3694 -0.018,0.441 0,0.01 -0.013,0.3919 0,0.051 -0.01,0.3444 0,0.094 -0.01,0.2977 -6e-4,0.045 0,0.254 0,0.1539 -9e-4,0.2443 0,0.1535 9e-4,0.2353 0,0.1929 0,0.2109 0,0.1864 0,0.2027 0.011,0.3359 0,0.04 0,0.036 0.017,0.3741 0,0.01 0.02,0.3672 0,0.046 0.01,0.1251 0.016,0.2355 0.015,0.1924 0.016,0.2002 0.021,0.2314 0.012,0.1245 0.025,0.244 0.019,0.1786 0.024,0.2099 0.017,0.1426 0.032,0.2465 0.023,0.1705 0.03,0.2102 0,0.028 0.051,0.3322 0.01,0.037 0.063,0.3701 0.042,0.2318 0.029,0.1564 0.038,0.1948 0.038,0.1902 0.042,0.1999 0.043,0.2027 0.044,0.1964 0.045,0.1949 0.053,0.2227 0.039,0.157 0.058,0.2296 0.051,0.1952 0.053,0.1995 0.059,0.2121 0.057,0.203 0.049,0.1661 0.071,0.2396 0,0.01 0.1216,0.3903 7e-4,0 c 0.041,0.1299 0.084,0.2603 0.1276,0.3913 l 0.01,0.017 0.061,0.1796 0.083,0.243 0.073,0.2068 0.075,0.2111 0.082,0.2221 0.079,0.2127 0.08,0.2102 0.089,0.2305 0.078,0.1974 0.1013,0.2524 0.086,0.2115 0.084,0.2011 0.1001,0.2383 0.1392,0.3231 0.05,0.1148 0.1323,0.2978 0.076,0.1705 3e-4,0 0.2015,0.4405 0.023,0.051 0.081,0.1711 0.1273,0.2703 0.1089,0.2268 0.1235,0.2552 0.1201,0.2443 0.1192,0.2396 0.1164,0.2318 0.1551,0.3046 0.097,0.188 0.1501,0.2893 0.1301,0.2484 0.1333,0.2506 0.1392,0.2608 0.2202,0.4063 0.05,0.092 0.305,0.5518 c 9.3191,16.7103 31.8158,47.6359 40.3475,59.4594 7.2922,10.1064 16.1699,18.9275 23.6478,29.3757 3.2399,5.3019 7.4704,11.4952 9.7201,15.9055 5.1122,10.0232 3.6277,20.1761 3.5345,31.1042 l 0.012,0.4132 c -0.3272,-0.4495 -1.7279,-0.1658 -2.0063,-0.6763 -0.8229,-9.7306 5.2953,-19.6737 -11.6525,-39.9474 -39.2277,-46.9262 -82.0844,-90.6615 -72.1688,-125.5724 l 3.9108,0 c -0.098,1.279 -0.1971,2.4795 -0.2896,3.6178 l -4e-4,0 z"
       style="fill:#fed1bf;fill-rule:evenodd"
       id="path338"
       inkscape:connector-curvature="0" />
    <path
       d="m 341.4575,338.96046 c 4.2793,2.6081 8.4001,4.9884 12.838,7.8245 11.02,7.0425 21.0894,14.8467 31.4576,22.7979 4.8011,3.6819 8.7422,6.5049 11.1339,8.483 2.3916,1.9781 2.7491,1.9287 3.1811,3.3578 0.4319,1.4292 0.1129,3.2449 -0.8837,4.2415 -0.7429,0.7429 -5.5761,2.3197 -7.2458,2.4742 -6.5534,0.6062 -13.991,-4.5455 -19.6168,-7.2459 -2.2497,-4.4103 -6.4802,-10.6036 -9.7201,-15.9055 -6.6412,-9.279 -14.3857,-17.2752 -21.1442,-26.0275 z"
       style="fill:#f7b594;fill-rule:evenodd"
       id="path340"
       inkscape:connector-curvature="0" />
    <path
       d="m 341.4577,338.96026 c 4.2789,2.6081 8.3999,4.9887 12.8378,7.8247 11.02,7.0424 21.0895,14.8468 31.4578,22.7979 4.8007,3.682 8.742,6.5047 11.1339,8.483 2.3913,1.978 2.749,1.9287 3.1808,3.3579 0.1275,0.4215 0.1896,0.8768 0.1882,1.3349 -12.2253,-6.2589 -26.2162,-17.3141 -28.1931,-19.0866 -8.3166,-7.4565 -20.9676,-15.0001 -26.6823,-19.817 -1.3334,-1.6137 -2.6458,-3.2408 -3.9231,-4.8948 z"
       style="fill:#fed1bf;fill-rule:evenodd"
       id="path342"
       inkscape:connector-curvature="0" />
    <path
       d="m 397.0099,386.73206 c -4.1852,-2.0807 -11.4886,-3.2771 -10.8533,-9.36 0.3184,-3.0494 2.1013,-3.1889 4.4686,-4.106 2.5949,1.9434 4.7416,3.5424 6.2618,4.7998 2.3916,1.9781 2.7491,1.9287 3.1811,3.3578 0.4319,1.4292 0.1129,3.2449 -0.8837,4.2415 -0.278,0.2781 -1.1301,0.6734 -2.1745,1.0669 z"
       style="fill:#df2a2d;fill-rule:evenodd"
       id="path344"
       inkscape:connector-curvature="0" />
    <path
       d="m 387.1519,374.90666 c 0.8096,-0.8124 2.0333,-1.0828 3.4733,-1.6407 2.5948,1.9434 4.7415,3.5425 6.2617,4.7999 2.3916,1.978 2.7493,1.9287 3.1811,3.3579 0.2208,0.7305 0.2454,1.5619 0.084,2.3335 l -12.9997,-8.8506 z"
       style="fill:#f2383b;fill-rule:evenodd"
       id="path346"
       inkscape:connector-curvature="0" />
    <path
       d="m 375.8563,411.99766 c -1.1239,-0.016 -2.3528,-0.5881 -3.3719,-0.0482 -1.0191,0.5399 -1.6465,1.7636 -2.0288,2.9109 -0.984,2.9543 -0.3863,8.3215 -0.5292,11.467 l 0.1905,4.5696 c 0.8273,0.3575 1.6837,0.7091 2.5583,1.071 2.5934,1.0732 2.2784,1.396 3.7113,-1.0604 l -0.5302,-18.9099 z"
       style="fill:#df2a2d;fill-rule:evenodd"
       id="path348"
       inkscape:connector-curvature="0" />
    <path
       d="m 375.8564,411.99766 c -0.65,-0.009 -1.3354,-0.2043 -1.9947,-0.263 l 0,20.7462 c 1.3498,0.5834 1.3617,0.4204 2.5248,-1.5732 l -0.5301,-18.91 z"
       style="fill:#f2383b;fill-rule:evenodd"
       id="path350"
       inkscape:connector-curvature="0" />
    <path
       d="m 353.4697,436.03296 c -0.8064,-0.0597 -1.4529,-0.3437 -2.4198,-0.1792 -0.9668,0.1645 -2.4557,0.4973 -3.2636,1.1467 -2.4214,1.9459 -2.1496,12.4051 -1.864,19.5912 1.1129,0.4445 2.2671,0.7804 3.4248,1.0019 1.406,0.269 1.8849,-0.118 2.8276,-0.1768 0.2562,-7.2421 0.7864,-14.5736 1.295,-21.3838 z"
       style="fill:#df2a2d;fill-rule:evenodd"
       id="path352"
       inkscape:connector-curvature="0" />
    <path
       d="m 353.4698,436.03296 c -0.8065,-0.0598 -1.4531,-0.3439 -2.42,-0.1792 -0.2332,0.0397 -0.4972,0.0893 -0.7744,0.1506 l -3e-4,2e-4 -1.387,21.4952 c 0.1528,0.0331 0.3059,0.0646 0.459,0.0938 1.406,0.269 1.885,-0.1179 2.8275,-0.1769 0.2563,-7.2419 0.7866,-14.5735 1.2952,-21.3837 z"
       style="fill:#f2383b;fill-rule:evenodd"
       id="path354"
       inkscape:connector-curvature="0" />
    <path
       d="m 264.2035,405.75526 c 0.29,-1.5543 2.1949,-3.143 3.843,-2.803 3.8283,0.7902 8.04,9.0235 11.0973,15.4229 -1.1961,1.3785 -3.3159,3.6897 -3.6691,3.8727 -0.9612,0.4983 -1.6493,-0.4714 -2.4742,-0.7069 l -5.1251,-8.8364 c -1.3068,-2.5349 -2.3606,-4.4032 -3.6719,-6.9493 z"
       style="fill:#df2a2d;fill-rule:evenodd"
       id="path356"
       inkscape:connector-curvature="0" />
    <path
       d="m 264.2037,405.75526 c 0.1451,-0.7784 0.6959,-1.5656 1.4162,-2.1147 l 10.9522,17.5646 c -0.5332,0.557 -0.9561,0.9695 -1.0973,1.0426 -0.9612,0.4984 -1.6495,-0.4714 -2.4744,-0.7067 l -5.125,-8.8364 c -1.3068,-2.535 -2.3607,-4.4033 -3.6717,-6.9494 z"
       style="fill:#f2383b;fill-rule:evenodd"
       id="path358"
       inkscape:connector-curvature="0" />
    <path
       d="m 281.1895,491.34856 18.5236,13.4958 0,-38.4144 -18.5236,0 0,24.9186 z"
       style="fill:#e6292c;fill-rule:evenodd"
       id="path360"
       inkscape:connector-curvature="0" />
    <path
       d="m 292.9211,499.89596 3.9693,2.8918 0,-36.3578 -3.9693,0 0,33.466 z"
       style="fill:#e6292c;fill-rule:evenodd"
       id="path362"
       inkscape:connector-curvature="0" />
    <path
       d="m 279.186,466.42996 0,-6.3622 22.7979,0 0,6.3622 -22.7979,0 z"
       style="fill:#23d5dc;fill-rule:evenodd"
       id="path364"
       inkscape:connector-curvature="0" />
    <path
       d="m 296.8904,466.42996 -3.9693,0 0,33.466 3.9693,2.8918 0,-36.3578 z"
       style="fill:#eb5e60;fill-rule:evenodd"
       id="path366"
       inkscape:connector-curvature="0" />
    <path
       d="m 234.2658,246.21476 66.3791,0 0,-14.4335 -66.3791,-9.7201 0,24.1536 z"
       style="fill:#ffffff;fill-rule:evenodd"
       id="path368"
       inkscape:connector-curvature="0" />
    <path
       d="m 237.8451,222.58546 0,-28.3238 58.0475,0 0,36.8236 -58.0475,-8.4998 z"
       style="fill:#f7f7f7;fill-rule:evenodd"
       id="path370"
       inkscape:connector-curvature="0" />
    <path
       d="m 246.0151,232.93956 a 3.0137,3.0137 0 0 1 3.0137,3.0136 3.0137,3.0137 0 1 1 -3.0137,-3.0136 z"
       style="fill:#e2eeec;fill-rule:evenodd"
       id="path372"
       inkscape:connector-curvature="0" />
    <path
       d="m 290.4419,233.32456 0,-39.0629 -4.599,0 0,39.0629 4.599,0 z"
       style="fill:#ffffff;fill-rule:evenodd"
       id="path374"
       inkscape:connector-curvature="0" />
    <path
       d="m 315.7387,428.50956 c 6.6061,-5.7969 10.4071,-10.5648 13.6301,-16.1425 6.7218,-11.6317 10.0346,-20.935 8.0824,-33.6322 -0.3872,-2.5186 -3.6581,-13.4093 -6.1353,-16.1507 8.4489,8.8311 9.0604,27.3617 6.5438,35.8055 0,0 -0.01,0.01 -0.01,0.017 l -2.9965,6.6983 c -1.1197,2.651 -2.1186,5.4442 -3.3579,7.9529 -3.6746,7.4421 -9.0442,13.0235 -14.7498,18.6758 -0.035,-0.269 -0.068,-0.5151 -0.099,-0.7317 -0.1644,-1.152 -0.4794,-1.9618 -0.9102,-2.4927 z"
       style="fill:#fed1bf;fill-rule:evenodd"
       id="path376"
       inkscape:connector-curvature="0" />
    <path
       d="m 316.6489,431.00236 c -1.3791,-9.6575 -13.2211,4.4854 -17.1573,9.2005 0.4739,0.9696 1.0166,1.8861 1.6087,2.7222 0.5308,0.7495 1.4138,0.9425 2.1207,1.4138 l 9.5434,-8.6596 c 1.3347,-1.3347 2.6681,-2.6419 3.9834,-3.945 -0.035,-0.269 -0.068,-0.5155 -0.099,-0.7319 z"
       style="fill:#df2a2d;fill-rule:evenodd"
       id="path378"
       inkscape:connector-curvature="0" />
    <path
       d="m 316.6489,431.00226 c -0.1644,-1.1517 -0.4794,-1.9615 -0.9102,-2.4927 l -14.3402,14.7532 c 0.5272,0.4852 1.2356,0.6848 1.8226,1.0763 l 9.5432,-8.6599 c 1.3348,-1.3345 2.6682,-2.6419 3.9835,-3.945 -0.035,-0.269 -0.068,-0.5153 -0.099,-0.7319 z"
       style="fill:#f2383b;fill-rule:evenodd"
       id="path380"
       inkscape:connector-curvature="0" />
    <path
       d="m 279.186,394.67826 0,65.3895 22.7979,0 0,-65.3895 -22.7979,0 z"
       style="fill:#046085;fill-rule:evenodd"
       id="path382"
       inkscape:connector-curvature="0" />
  </g>
</svg>
