<?xml version="1.0" encoding="UTF-8" standalone="no"?>
<!-- Created with Inkscape (http://www.inkscape.org/) -->

<svg
   xmlns:dc="http://purl.org/dc/elements/1.1/"
   xmlns:cc="http://creativecommons.org/ns#"
   xmlns:rdf="http://www.w3.org/1999/02/22-rdf-syntax-ns#"
   xmlns:svg="http://www.w3.org/2000/svg"
   xmlns="http://www.w3.org/2000/svg"
   xmlns:sodipodi="http://sodipodi.sourceforge.net/DTD/sodipodi-0.dtd"
   xmlns:inkscape="http://www.inkscape.org/namespaces/inkscape"
   width="80.973877mm"
   height="51.968349mm"
   viewBox="0 0 286.91531 184.13982"
   id="svg6006"
   version="1.1"
   inkscape:version="0.91 r13725"
   sodipodi:docname="tatuazh-arm.svg">
  <defs
     id="defs6008" />
  <sodipodi:namedview
     id="base"
     pagecolor="#ffffff"
     bordercolor="#666666"
     borderopacity="1.0"
     inkscape:pageopacity="0.0"
     inkscape:pageshadow="2"
     inkscape:zoom="2.8"
     inkscape:cx="122.27835"
     inkscape:cy="79.017138"
     inkscape:document-units="px"
     inkscape:current-layer="layer1"
     showgrid="false"
     fit-margin-top="0"
     fit-margin-left="0"
     fit-margin-right="0"
     fit-margin-bottom="0"
     inkscape:window-width="1280"
     inkscape:window-height="962"
     inkscape:window-x="-8"
     inkscape:window-y="462"
     inkscape:window-maximized="1" />
  <metadata
     id="metadata6011">
    <rdf:RDF>
      <cc:Work
         rdf:about="">
        <dc:format>image/svg+xml</dc:format>
        <dc:type
           rdf:resource="http://purl.org/dc/dcmitype/StillImage" />
        <dc:title />
      </cc:Work>
    </rdf:RDF>
  </metadata>
  <g
     inkscape:label="Layer 1"
     inkscape:groupmode="layer"
     id="layer1"
     transform="translate(-207.97092,-200.29229)">
    <path
       d="m 287.80142,345.25751 c 0.1202,0.2155 0.2302,0.4292 0.3283,0.6415 3.1654,6.8446 -2.6283,14.0222 -10.3346,12.0337 -1.499,-0.3867 -2.973,-1.463 -4.4595,-2.1943 l -10.6353,-7.1927 c -2.3516,2.0398 -5.7033,2.7125 -9.1482,0.652 -1.2918,-0.7727 -2.6428,-2.3125 -3.964,-3.4688 l -6.1486,-6.5653 c -2.6025,2.3738 -6.8437,3.4679 -9.7523,1.6594 l -2.3624,2.9478 -6.0727,5.8425 -2.3255,-1.4916 -0.01,0.01 1.7682,1.1234 -8.8846,10.0111 -0.4431,-0.3096 -1.6642,2.3828 -0.5984,-0.4181 -0.5808,-0.4155 1.656,-2.3596 -0.4683,-0.3121 5.9953,-11.7479 2.0319,1.2909 0.01,-0.01 -2.3287,-1.4663 3.6083,-8.0966 3.9877,-6.5081 c -1.0842,-1.9069 -2.2062,-3.9909 -3.2989,-5.9371 0.2477,0.029 0.4994,0.055 0.7548,0.08 -0.072,-0.066 -0.1437,-0.1312 -0.2114,-0.1962 -4.0266,-3.0795 -6.9367,-7.7811 -6.0449,-14.938 4.3645,-10.92721 17.2366,-41.22651 27.9935,-45.45691 4.2619,-1.6761 13.0298,-2.0804 22.8714,-2.3034 l 20.7757,-29.9078 0.015,-0.021 0.015,-0.021 0.015,-0.021 2e-4,0 0.014,-0.021 3e-4,0 c 0.2789,-0.421 0.324,-0.8825 0.2327,-1.3649 l -0.01,-0.026 -0.01,-0.026 0,-0.026 0,-0.026 0,-0.026 0,-0.026 0,-3e-4 0,-0.026 0,-3e-4 0,-0.025 0,-0.026 0,-0.026 0,-0.025 0,-0.025 0,-3e-4 0,-0.025 -8e-4,-0.025 -3e-4,-0.025 0,-6e-4 -3e-4,-0.025 0,-3e-4 3e-4,-0.025 0,-3e-4 5e-4,-0.025 0,-5e-4 0,-0.025 0,-6e-4 0,-0.025 0,-9e-4 0,-0.024 0,-8e-4 0,-0.024 0,-8e-4 0,-0.024 0,0 0,-0.024 0,0 0,-0.024 3e-4,0 0,-0.024 0,0 0,-0.023 0,-0.025 3e-4,0 0,-0.023 3e-4,0 0,-0.023 3e-4,0 0.01,-0.022 c 0.061,-0.2721 0.1888,-0.5323 0.3804,-0.7719 l 1.3071,-1.5984 c 0.5771,-0.7421 1.2294,-1.2597 2.1143,-1.6407 0.8896,-0.3957 1.5772,-0.9142 2.1586,-1.671 l 7.8081,-10.054 c 1.7226,-2.1756 4.7157,-2.7635 7.0976,-1.4822 l 0,3e-4 0.1205,0.067 0,3e-4 0.1196,0.07 0.1182,0.073 0.1171,0.077 0.1159,0.08 0.4014,0.2801 0.6965,-1.0684 c 0.4297,-0.6596 1.0372,-1.0726 1.8088,-1.2299 0.7143,-0.1457 1.3844,-0.034 1.9987,0.3311 5.8002,-2.9985 12.3809,-5.2439 18.5848,-6.1714 7.8324,-1.1709 15.6257,-0.536 22.4532,2.2961 6.8513,2.8423 12.7205,7.8908 16.6731,15.5367 2.1489,4.1564 3.7295,9.0791 4.589,14.8286 1.3978,9.3489 -1.6574,19.1461 -4.6791,28.836 -1.7303,5.5491 -3.4501,11.0636 -4.2925,16.3814 -0.7796,4.9204 0.1873,10.0092 1.0431,14.5131 0.6287,3.31001 1.1795,6.69721 0.9862,9.18681 4.5564,2.8704 9.0133,5.1194 13.2089,6.3791 8.0146,2.4063 14.6358,0.1009 22.3367,-2.5259 l 1.0684,-19.37881 26.8903,1.2384 0.1768,4.2458 59.3519,0 0,79.39671 -59.3133,0 0,7.7941 -32.0287,-3.3749 0.6089,-11.0457 c -13.7693,3.3468 -25.9843,4.4846 -40.3118,7.1526 -16.1419,3.0062 -34.5651,-5.8629 -48.8052,-14.1695 l -27.2347,-17.7254 z m 29.9846,-132.53041 c 0.6001,0.4354 0.9734,1.0287 1.1112,1.7677 0.1445,0.7772 -0.012,1.4987 -0.4663,2.1461 l -0.7971,1.137 0.4362,0.3058 c 2.4568,1.7379 3.1471,5.0936 1.5432,7.6195 l -6.7759,10.7331 c -0.5202,0.8431 -0.7691,1.6643 -0.8825,2.6309 l 0,0 c -0.042,0.9601 -0.2775,1.7597 -0.8112,2.5653 l -1.0752,1.7425 c -0.3059,0.4847 -0.7639,0.7988 -1.3105,0.8694 -0.5558,0.087 -0.972,0.3455 -1.2835,0.7911 l -11.7641,16.5838 c 8.3435,-0.3101 15.4908,-0.2083 21.7846,1.6969 8.6799,2.6277 31.7364,29.1792 52.9897,43.07521 0.1789,-2.3122 -0.3977,-4.8364 -1.0071,-8.04701 -0.8768,-4.6145 -1.8672,-9.828 -1.0489,-14.9949 0.8609,-5.4343 2.5937,-10.99 4.3368,-16.5805 2.9735,-9.5354 5.9799,-19.1761 4.6292,-28.2106 -0.8356,-5.5902 -2.3663,-10.3649 -4.445,-14.3853 -3.7865,-7.3244 -9.4039,-12.1586 -15.9588,-14.8779 -6.5789,-2.7289 -14.1142,-3.337 -21.706,-2.202 -6.0162,0.8995 -11.8664,2.7355 -17.4988,5.6339 z m 52.8659,93.77461 c 0.2565,0.167 0.5127,0.3302 0.7687,0.4935 l -0.7687,-0.4935 z m -76.7175,-80.10991 0,0 z"
       style="fill:#000000;fill-rule:evenodd;fill-opacity:0.07843138"
       id="path12"
       inkscape:connector-curvature="0" />
    <path
       d="m 268.28992,322.64081 c 0.1491,1.5157 0.2656,3.0561 0.9245,4.1871 1.4805,2.5417 7.5006,5.7191 9.8392,8.282 1.7288,1.8946 3.6277,3.9944 4.5303,5.9459 3.1654,6.8446 -2.6284,14.0221 -10.3348,12.0336 -1.4989,-0.3868 -2.973,-1.4629 -4.4595,-2.1943 l -10.9316,-7.3929 c 0.3281,-1.5798 0.2798,-3.2737 -0.2525,-4.9239 -0.3581,-1.1101 -0.6918,-1.9754 -1.6988,-3.5392 -1.0071,-1.5638 -3.0673,-4.1522 -4.318,-5.8045 -1.14,-1.5061 -1.9667,-2.5424 -2.9084,-3.7513 -0.5683,0.091 -1.1395,0.1829 -1.7136,0.277 7.5452,-1.2383 14.5728,-2.145 21.3232,-3.1195 z"
       style="fill:#c49579;fill-rule:evenodd"
       id="path276"
       inkscape:connector-curvature="0" />
    <path
       d="m 252.04362,320.35831 c 0.9417,1.2088 1.7684,2.2452 2.9084,3.7513 1.2507,1.6522 3.3109,4.2406 4.318,5.8044 1.007,1.5638 1.3407,2.4291 1.6988,3.5393 2.332,7.2292 -4.6015,15.3037 -11.9628,10.901 -1.2916,-0.7725 -2.6426,-2.3123 -3.9639,-3.4685 l -8.077,-8.6245 c 0.2012,-3.1497 -1.1854,-6.6065 -2.499,-9.2746 l -0.287,0.032 c 4.0272,-0.4436 8.3274,-1.0256 12.0199,-1.6796 1.984,-0.3514 3.9302,-0.6756 5.8446,-0.9806 z m -19.3821,2.8223 -1e-4,-10e-5 c 0.2778,-0.029 0.5574,-0.058 0.8388,-0.088 -0.2813,0.03 -0.561,0.059 -0.8387,0.088 z"
       style="fill:#d19e80;fill-rule:evenodd"
       id="path278"
       inkscape:connector-curvature="0" />
    <path
       d="m 219.16052,320.51651 c 1.4864,2.6472 3.026,5.55 4.4532,7.914 1.452,2.4051 3.0252,4.9917 4.1764,6.3707 3.3855,4.0557 10.5178,1.6308 12.7414,-2.5483 2.0089,-3.7756 0.1095,-8.7898 -1.6569,-12.3778 -3.0667,0.3418 -5.9882,0.6048 -8.3792,0.76 -4.7796,0.3103 -8.3162,0.2268 -11.3349,-0.1186 z"
       style="fill:#dea686;fill-rule:evenodd"
       id="path280"
       inkscape:connector-curvature="0" />
    <path
       d="m 408.49212,304.43311 c -10.3053,3.131 -18.078,7.3454 -27.9761,4.3738 -24.1063,-7.2373 -56.8321,-47.08431 -67.5672,-50.33401 -10.735,-3.2498 -23.9511,-1.2534 -41.3552,-0.9132 -12.5432,0.2453 -24.6778,0.3755 -29.9411,2.4454 -10.7568,4.2303 -23.629,34.5296 -27.9936,45.45691 -2.6773,21.4898 28.907,20.856 22.1453,20.5776 -3.7175,-0.153 0.3423,-3.1981 1.3833,-7.2679 1.528,-5.973 2.747,-13.6657 9.3499,-15.8665 2.7548,-0.9182 6.0033,-2.133 10.7666,-1.7 4.7633,0.433 11.7109,2.8333 17.2831,4.25 5.5723,1.4166 13.0056,3.089 16.1499,4.2499 4.9882,1.8418 -29.0736,12.2301 -29.5769,16.3287 l 49.9707,29.383 c 14.2401,8.3067 32.0228,19.8983 48.1645,16.8924 14.338,-2.6701 26.5604,-3.8075 40.3422,-7.1602 l 8.8546,-60.7159 z"
       style="fill:#f7b594;fill-rule:evenodd"
       id="path282"
       inkscape:connector-curvature="0" />
    <path
       d="m 239.48372,310.57081 c 1.3201,-3.4392 3.3316,-6.425 7.0538,-7.6657 2.7547,-0.9181 6.0032,-2.1328 10.7665,-1.6999 4.7634,0.4331 11.7108,2.8332 17.2831,4.25 1.6186,0.4115 3.3945,0.8444 5.1761,1.2804 3.3528,-0.368 6.6033,-0.6064 9.6942,-0.6064 3.0563,0 10.2365,0.2472 9.6282,-3.7669 3.1113,-1.8814 3.4494,-20.93081 -1.6203,-22.33871 -19.0636,-5.2954 -45.7495,-5.6693 -59.0981,9.4493 -3.5751,4.0487 -15.9177,17.27971 -7.2071,19.69931 2.6563,0.7379 5.4439,1.179 8.3236,1.3986 z"
       style="fill:#dea686;fill-rule:evenodd"
       id="path284"
       inkscape:connector-curvature="0" />
    <path
       d="m 408.49212,304.43301 -0.4813,0.1474 -0.4777,0.1491 -0.4739,0.1502 -0.4708,0.1511 -0.4675,0.1519 -0.4643,0.1525 -0.4612,0.1531 -0.4581,0.1534 -0.4555,0.1536 -0.4527,0.1531 -0.4498,0.1531 -0.4476,0.1525 -0.4451,0.1519 -0.4425,0.1508 -0.4405,0.1499 -0.4385,0.1486 -0.4362,0.1471 0,3e-4 -0.4346,0.1454 -0.4326,0.1437 -0.4311,0.1418 -0.4295,0.1394 -0.4277,0.1372 -0.4266,0.1344 0,3e-4 -0.4255,0.1315 0,3e-4 -0.4241,0.1287 -0.4232,0.1255 0,3e-4 -0.422,0.1222 -0.4213,0.1188 0,2e-4 -0.4206,0.1149 0,2e-4 -0.4201,0.1112 -0.4196,0.1071 -0.4189,0.1026 0,3e-4 -0.419,0.098 0,3e-4 c -0.1394,0.032 -0.2792,0.063 -0.4187,0.093 -0.1394,0.03 -0.2786,0.06 -0.4184,0.089 -0.1394,0.029 -0.2789,0.056 -0.4186,0.084 l 0,3e-4 c -0.1395,0.027 -0.2787,0.053 -0.4184,0.078 -0.1395,0.025 -0.2792,0.05 -0.419,0.073 -0.1397,0.024 -0.2795,0.046 -0.4192,0.067 l 0,3e-4 c -0.1398,0.022 -0.2801,0.042 -0.4198,0.062 l 0,3e-4 c -0.1401,0.02 -0.2798,0.038 -0.4201,0.056 -0.1403,0.018 -0.2807,0.034 -0.421,0.05 l 0,3e-4 c -0.1403,0.016 -0.2809,0.03 -0.4218,0.043 -0.1406,0.013 -0.2815,0.025 -0.4226,0.037 l 0,3e-4 c -0.1409,0.011 -0.2821,0.021 -0.4235,0.03 -0.1415,0.01 -0.2829,0.016 -0.4246,0.023 l 0,3e-4 c -0.1418,0.01 -0.2838,0.012 -0.4258,0.016 -0.1423,0 -0.2846,0.01 -0.4272,0.01 -0.1426,0 -0.2852,0 -0.4283,0 -0.1432,-8e-4 -0.2863,0 -0.43,-0.01 -0.1437,0 -0.2875,-0.01 -0.4317,-0.014 -0.1443,-0.01 -0.2886,-0.013 -0.4335,-0.022 l 0,-3e-4 c -0.1448,-0.01 -0.2897,-0.019 -0.4351,-0.031 -0.1454,-0.012 -0.2914,-0.024 -0.4374,-0.039 l 0,-2e-4 c -0.1459,-0.014 -0.2922,-0.03 -0.439,-0.048 -0.1469,-0.017 -0.294,-0.036 -0.4414,-0.057 -0.1474,-0.02 -0.2954,-0.042 -0.4436,-0.066 -0.1483,-0.024 -0.2968,-0.048 -0.4459,-0.075 -0.1491,-0.027 -0.2988,-0.054 -0.4487,-0.084 -0.15,-0.03 -0.2999,-0.061 -0.451,-0.094 -0.1508,-0.033 -0.3019,-0.067 -0.4536,-0.1037 -0.1516,-0.036 -0.3041,-0.074 -0.4566,-0.1137 -0.1528,-0.04 -0.3059,-0.081 -0.4595,-0.1236 -0.1537,-0.043 -0.3079,-0.088 -0.4624,-0.1341 -24.1064,-7.2371 -56.8323,-47.08431 -67.5671,-50.33391 -10.7351,-3.2497 -23.9514,-1.2535 -41.3553,-0.9131 -12.5433,0.2452 -24.6778,0.3754 -29.9412,2.4452 -0.1681,0.066 -0.3367,0.1386 -0.5057,0.2171 -0.1689,0.079 -0.3387,0.1639 -0.5085,0.2546 -0.1701,0.091 -0.3407,0.1874 -0.5114,0.2903 -0.1709,0.1026 -0.3421,0.2114 -0.5136,0.3257 -0.1715,0.1142 -0.3436,0.2341 -0.5156,0.3594 -0.1724,0.1253 -0.3447,0.2562 -0.5177,0.3926 -0.1729,0.1363 -0.3458,0.2775 -0.519,0.4243 l 0,3e-4 c -0.1732,0.1466 -0.3469,0.2985 -0.5207,0.4553 -0.1738,0.1567 -0.3478,0.3186 -0.5219,0.4853 -0.174,0.1666 -0.3483,0.3381 -0.5227,0.5139 l 0,3e-4 c -0.1743,0.176 -0.3486,0.3566 -0.5232,0.5417 -0.1747,0.1851 -0.3493,0.3747 -0.5239,0.5686 -0.1746,0.1939 -0.3492,0.392 -0.5238,0.5944 -0.1746,0.2024 -0.3493,0.4088 -0.5239,0.6188 l 0,3e-4 c -0.1746,0.2103 -0.3489,0.4246 -0.5235,0.6426 -0.1746,0.218 -0.349,0.44 -0.5233,0.665 l 0,3e-4 c -0.1741,0.2254 -0.3484,0.4544 -0.5221,0.6866 -0.1741,0.2324 -0.3479,0.4682 -0.5213,0.7072 -0.1735,0.239 -0.347,0.4813 -0.5199,0.7268 -0.1732,0.2455 -0.3458,0.4938 -0.5185,0.7452 -0.1726,0.2515 -0.3444,0.5057 -0.5164,0.7626 -0.1721,0.2571 -0.3436,0.5167 -0.5148,0.7786 l 0,3e-4 c -0.1712,0.2622 -0.3422,0.527 -0.5125,0.794 l 0,3e-4 c -0.1704,0.267 -0.3402,0.5366 -0.5097,0.8081 l 0,3e-4 c -0.1695,0.2716 -0.3384,0.5457 -0.5071,0.8215 -0.1687,0.2761 -0.3368,0.5539 -0.5043,0.834 -0.1675,0.2797 -0.3345,0.5615 -0.5009,0.845 -0.1664,0.2834 -0.3322,0.5686 -0.4975,0.8549 l 0,3e-4 c -0.1652,0.2866 -0.3296,0.5746 -0.4937,0.864 -0.1639,0.2894 -0.3272,0.5802 -0.4899,0.8722 -0.1627,0.292 -0.3248,0.5851 -0.4858,0.8793 -0.1613,0.2942 -0.3215,0.589 -0.4811,0.885 l 0,3e-4 c -0.1596,0.2959 -0.3183,0.5924 -0.4765,0.8898 l 0,2e-4 c -0.1579,0.2974 -0.3155,0.5953 -0.4717,0.8938 -0.1564,0.2985 -0.3115,0.5973 -0.4663,0.8966 l 0,3e-4 c -0.1544,0.299 -0.3084,0.5987 -0.4612,0.8983 -0.1527,0.2996 -0.3044,0.5992 -0.4552,0.8991 l 0,3e-4 c -0.1508,0.2996 -0.3008,0.5993 -0.4496,0.8989 l -0.443,0.8974 0,3e-4 c -0.1469,0.2988 -0.2926,0.5976 -0.4371,0.8952 l -0.4303,0.8918 -0.4235,0.8875 -0.4162,0.8819 -0.409,0.8753 -0.4014,0.8677 -0.3934,0.8592 -0.3855,0.8495 -0.377,0.8388 -0.3686,0.8271 -0.3597,0.8144 -0.3509,0.8005 -0.3413,0.7855 -0.3316,0.7699 -0.3221,0.7526 -0.3121,0.735 -0.3016,0.71581 -0.2914,0.6956 -0.2803,0.6746 -0.2696,0.6526 -0.2579,0.6293 -0.2469,0.6052 -0.235,0.5799 -0.2228,0.5536 -0.2109,0.5262 c -0.04,0.3234 -0.072,0.6412 -0.097,0.9547 l -0.01,0.084 c -0.02,0.2637 -0.033,0.5227 -0.042,0.7793 0,0.1094 -0.01,0.2185 -0.01,0.3265 0,0.1534 0,0.3048 0,0.4556 0,0.2049 0.01,0.4079 0.013,0.6088 l 0,0.049 0,0.049 c 8.1088,-12.58131 17.4087,-46.85251 39.1657,-46.81761 20.2,0.032 41.2186,-5.9094 56.5951,0.729 1.1625,0.5018 7.0172,3.7038 7.9546,4.4777 31.4181,25.9438 55.2419,57.27231 86.6517,45.40451 1.3485,-0.434 2.4611,-0.94 3.3775,-1.503 l 1.2277,-6.6265 z"
       style="fill:#fed1bf;fill-rule:evenodd"
       id="path286"
       inkscape:connector-curvature="0" />
    <path
       d="m 296.57502,303.43681 -66.2903,2.6281 c 1.4573,-4.7788 19.8947,-25.54861 28.3749,-25.09601 14.5837,0.7781 40.9156,-3.414 40.0655,6.1821 -0.719,8.1202 1.2368,10.5904 -2.1501,16.28581 z"
       style="fill:#b3876e;fill-rule:evenodd"
       id="path288"
       inkscape:connector-curvature="0" />
    <path
       d="m 310.28942,210.9721 3.2348,2.2683 c 2.4566,1.7379 3.1469,5.0938 1.5431,7.6195 l -6.776,10.7334 c -0.5203,0.8427 -0.769,1.664 -0.8824,2.6306 l 0,0 c -0.041,0.9599 -0.2775,1.7598 -0.8113,2.5654 l -1.0752,1.7424 c -0.3056,0.4846 -0.7639,0.7989 -1.3104,0.8693 -0.5561,0.087 -0.9723,0.3455 -1.2835,0.7913 l -26.9326,37.9673 c -0.4606,0.6365 -0.764,1.2965 -0.9279,2.0872 l -0.2721,1.2806 c -0.1656,0.8056 -0.469,1.4656 -0.9518,2.1401 l -5.4309,7.535 c -0.051,0.1311 -0.1318,0.2359 -0.27,0.3542 l -11.3195,13.45231 -18.5275,19.2556 -5.0955,-3.5454 -5.0905,-3.5675 11.8727,-23.96631 8.8042,-15.253 c 0.086,-0.1245 0.1335,-0.2509 0.2367,-0.3733 l 5.2546,-7.6547 c 0.4627,-0.6768 0.9757,-1.1752 1.692,-1.6115 l 1.0803,-0.7035 c 0.6988,-0.4384 1.2248,-0.8971 1.6855,-1.5565 l 26.5634,-38.2391 c 0.3313,-0.4435 0.424,-0.9302 0.2918,-1.4484 -0.128,-0.5532 0.01,-1.0959 0.3731,-1.5353 l 1.3097,-1.6209 c 0.5771,-0.7421 1.2293,-1.2597 2.1144,-1.6407 l 0,0 c 0.8893,-0.3958 1.5772,-0.9142 2.1585,-1.6711 l 7.8082,-10.0537 c 1.8687,-2.3601 5.2318,-2.8515 7.6888,-1.1161 l 3.2453,2.2645 z"
       style="fill:#abe0ea;fill-rule:evenodd"
       id="path290"
       inkscape:connector-curvature="0" />
    <path
       d="m 291.54712,219.8774 7.8056,-10.0312 c 1.8692,-2.365 5.2344,-2.874 7.6914,-1.1386 l 3.2453,2.2645 -77.0887,109.74711 -5.0905,-3.5675 11.8748,-23.98391 8.8021,-15.2354 c 0.086,-0.1245 0.1335,-0.2509 0.2367,-0.3733 l 5.2546,-7.6547 c 0.4627,-0.6768 0.9757,-1.1752 1.692,-1.6115 l 1.1153,-0.6993 c 0.6611,-0.4201 1.1898,-0.9013 1.6505,-1.5607 l 26.5634,-38.2391 c 0.3313,-0.4435 0.3889,-0.9343 0.2918,-1.4484 -0.128,-0.5532 0.01,-1.0959 0.3757,-1.5578 l 1.3071,-1.5984 c 0.5771,-0.7421 1.2293,-1.2597 2.1144,-1.6407 l 0,0 c 0.8893,-0.3958 1.5772,-0.9142 2.1585,-1.6711 z"
       style="fill:#ddf8f9;fill-rule:evenodd"
       id="path292"
       inkscape:connector-curvature="0" />
    <path
       d="m 237.61992,325.39871 -10.841,13.5288 -6.0727,5.8425 -2.3256,-1.4915 -9.2305,13.2176 -0.5984,-0.418 -0.5808,-0.4159 9.2211,-13.1375 -2.3286,-1.4664 3.6081,-8.0967 8.9992,-14.6867 5.0584,3.5587 5.0908,3.5651 z"
       style="fill:#0c303e;fill-rule:evenodd"
       id="path294"
       inkscape:connector-curvature="0" />
    <path
       d="m 295.63872,229.1237 c 1.7755,0.2083 3.0889,1.845 2.8747,3.6706 -0.2121,1.8081 -1.8711,3.1164 -3.6466,2.9081 -1.8281,-0.2145 -3.1392,-1.8713 -2.9271,-3.6794 0.2142,-1.8256 1.8709,-3.1138 3.699,-2.8993 z"
       style="fill:#fec112;fill-rule:evenodd"
       id="path296"
       inkscape:connector-curvature="0" />
    <path
       d="m 297.14912,229.6868 c 0.9476,0.6875 1.5115,1.8529 1.3643,3.1075 -0.2121,1.8081 -1.8711,3.1164 -3.6466,2.9081 -0.566,-0.066 -1.0862,-0.2849 -1.5257,-0.5852 l 3.808,-5.4304 z"
       style="fill:#f9991c;fill-rule:evenodd"
       id="path298"
       inkscape:connector-curvature="0" />
    <path
       d="m 217.19202,342.52471 -2.3286,-1.4664 3.6081,-8.0967 8.9992,-14.6867 5.0584,3.5587 -14.7688,21.0624 -9.2086,13.1821 -0.5808,-0.4159 9.2211,-13.1375 z"
       style="fill:#2b5770;fill-rule:evenodd"
       id="path300"
       inkscape:connector-curvature="0" />
    <path
       d="m 220.14212,344.41171 -8.8846,10.0111 -1.0415,-0.7276 -1.0573,-0.7045 5.9953,-11.7479 4.9881,3.1689 z"
       style="fill:#eceded;fill-rule:evenodd"
       id="path302"
       inkscape:connector-curvature="0" />
    <path
       d="m 308.74402,298.8361 56.7653,62.46101 c -25.332,4.6864 -57.8168,-26.9811 -84.5182,-35.2291 -13.0635,-4.0355 -37.8266,5.9335 -52.0239,0.075 -3.0816,-1.2716 -9.3696,-5.0115 -10.3018,-7.0444 -2.3746,-5.1786 8.7336,-12.5228 13.5147,-14.667 2.71,-1.2153 8.0269,-2.7572 10.5961,-3.1305 15.344,-2.22921 26.9365,0.577 42.9986,2.1906 7.4704,0.7505 16.3006,-1.2839 22.9692,-4.65551 z"
       style="fill:#f7b594;fill-rule:evenodd"
       id="path304"
       inkscape:connector-curvature="0" />
    <path
       d="m 308.74402,298.836 0.3223,0.7027 c 4.574,9.97231 -42.7283,5.50741 -51.9069,5.50741 -10.089,0 -24.2039,-0.1669 -32.2117,4.9399 l -0.6194,0.5177 c -0.1843,-0.2685 -0.9227,-0.049 -1.0913,-0.3107 2.8819,-2.355 6.8224,-4.8101 8.9433,-5.7614 2.7099,-1.2153 8.0268,-2.7573 10.5959,-3.1306 15.3439,-2.22921 26.9365,0.5771 42.9987,2.1906 7.4704,0.7506 16.3006,-1.2838 22.9691,-4.65561 z"
       style="fill:#fed1bf;fill-rule:evenodd"
       id="path306"
       inkscape:connector-curvature="0" />
    <path
       d="m 365.50922,361.29711 c -25.3318,4.6865 -57.8165,-26.981 -84.518,-35.2293 -13.0635,-4.0354 -37.8267,5.9338 -52.024,0.075 -0.7832,-0.3232 -1.7734,-0.8062 -2.8304,-1.3797 1.9658,-0.2395 4.5581,0.4723 7.8296,0.4723 26.5765,0 42.1823,-11.3428 68.3872,4.4844 12.6533,7.6422 48.8174,31.9859 63.1556,31.5771 z"
       style="fill:#dea686;fill-rule:evenodd"
       id="path308"
       inkscape:connector-curvature="0" />
    <path
       d="m 224.18202,323.64141 c -2.5319,-1.5347 -4.9643,-3.3384 -5.5165,-4.5428 -1.2503,-2.7267 1.2376,-6.0534 4.5715,-8.9056 5.9238,-2.7199 21.8738,-1.7102 20.9795,6.0738 -1.052,9.1547 -14.9891,9.3041 -20.0342,7.3746 l -3e-4,0 z"
       style="fill:#f7d6c9;fill-rule:evenodd"
       id="path310"
       inkscape:connector-curvature="0" />
    <path
       d="m 224.18202,323.64141 c -2.5319,-1.5347 -4.9643,-3.3384 -5.5165,-4.5428 -1.2503,-2.7267 1.2376,-6.0534 4.5715,-8.9056 0.4359,-0.2001 0.9275,-0.3796 1.4612,-0.538 -2.908,3.4123 -5.0607,12.1167 0.2228,14.235 -0.2627,-0.078 -0.5102,-0.1613 -0.7387,-0.2486 l -3e-4,0 z"
       style="fill:#ffffff;fill-rule:evenodd"
       id="path312"
       inkscape:connector-curvature="0" />
    <path
       d="m 494.88622,371.78291 -63.8591,0 0,7.7944 -32.0287,-3.3751 4.9228,-89.30001 26.8902,1.2383 0.177,4.2458 63.8978,0 0,79.39661 z"
       style="fill:#da6459;fill-rule:evenodd"
       id="path314"
       inkscape:connector-curvature="0" />
    <path
       d="m 430.98832,292.3863 0.039,79.39661 3.4994,0 0,-79.39661 -3.5382,0 z"
       style="fill:#c15d4e;fill-rule:evenodd"
       id="path316"
       inkscape:connector-curvature="0" />
    <path
       d="m 400.26872,353.15361 30.7503,2.4711 0,7.7702 -31.1673,-2.7394 0.4133,-7.5019 z"
       style="fill:#e36c67;fill-rule:evenodd"
       id="path318"
       inkscape:connector-curvature="0" />
    <path
       d="m 307.44552,208.9879 0.6965,-1.0687 c 0.4297,-0.6596 1.0372,-1.0726 1.8088,-1.2299 0.7715,-0.1573 1.4918,-0.015 2.1458,0.4241 l 1.0474,0.7032 c 0.6565,0.4408 1.0624,1.0574 1.2073,1.8349 0.1445,0.7773 -0.012,1.4987 -0.4663,2.1461 l -0.7971,1.137 -5.6424,-3.9467 z"
       style="fill:#0c303e;fill-rule:evenodd"
       id="path320"
       inkscape:connector-curvature="0" />
    <path
       d="m 311.94952,207.0204 c 5.8002,-2.9985 12.3808,-5.2438 18.5848,-6.1713 7.8324,-1.171 15.6257,-0.5361 22.4532,2.296 6.8513,2.8423 12.7205,7.8908 16.6731,15.5367 2.1489,4.1565 3.7295,9.0791 4.589,14.8286 1.3978,9.349 -1.6574,19.1461 -4.6792,28.836 -1.7302,5.5491 -3.45,11.0636 -4.2925,16.3814 -0.7795,4.9204 0.1874,10.0092 1.0432,14.5131 0.6287,3.3109 1.1798,6.6986 0.9862,9.18861 l -1.3689,-0.8785 c 0.1797,-2.31311 -0.3971,-4.83821 -1.0069,-8.04981 -0.8767,-4.6146 -1.8671,-9.828 -1.0488,-14.995 0.8609,-5.4343 2.5937,-10.9899 4.3367,-16.5804 2.9736,-9.5355 5.98,-19.1761 4.6293,-28.2107 -0.8356,-5.5902 -2.3664,-10.3649 -4.445,-14.3853 -3.7865,-7.3244 -9.4039,-12.1586 -15.9588,-14.8779 -6.5789,-2.7289 -14.1142,-3.3369 -21.706,-2.2019 -6.0503,0.9045 -11.9324,2.7558 -17.5943,5.6829 l -1.1951,-0.9125 z"
       style="fill:#0c303e;fill-rule:evenodd"
       id="path322"
       inkscape:connector-curvature="0" />
  </g>
</svg>
