<?xml version="1.0" encoding="UTF-8" standalone="no"?>
<svg
   xmlns:dc="http://purl.org/dc/elements/1.1/"
   xmlns:cc="http://creativecommons.org/ns#"
   xmlns:rdf="http://www.w3.org/1999/02/22-rdf-syntax-ns#"
   xmlns:svg="http://www.w3.org/2000/svg"
   xmlns="http://www.w3.org/2000/svg"
   xmlns:sodipodi="http://sodipodi.sourceforge.net/DTD/sodipodi-0.dtd"
   xmlns:inkscape="http://www.inkscape.org/namespaces/inkscape"
   viewBox="0 0 232.12196 149.5078"
   id="svg12"
   height="149.5078"
   width="232.12196"
   version="1.1"
   inkscape:version="0.91 r13725"
   sodipodi:docname="logo.svg">
  <sodipodi:namedview
     pagecolor="#ffffff"
     bordercolor="#666666"
     borderopacity="1"
     objecttolerance="10"
     gridtolerance="10"
     guidetolerance="10"
     inkscape:pageopacity="0"
     inkscape:pageshadow="2"
     inkscape:window-width="1280"
     inkscape:window-height="962"
     id="namedview3344"
     showgrid="false"
     fit-margin-top="0"
     fit-margin-left="0"
     fit-margin-right="0"
     fit-margin-bottom="0"
     inkscape:zoom="0.89916759"
     inkscape:cx="297.63779"
     inkscape:cy="-271.91817"
     inkscape:window-x="-8"
     inkscape:window-y="462"
     inkscape:window-maximized="1"
     inkscape:current-layer="svg12" />
  <metadata
     id="metadata18">
    <rdf:RDF>
      <cc:Work
         rdf:about="">
        <dc:format>image/svg+xml</dc:format>
        <dc:type
           rdf:resource="http://purl.org/dc/dcmitype/StillImage" />
        <dc:title></dc:title>
      </cc:Work>
    </rdf:RDF>
  </metadata>
  <defs
     id="defs16" />
  <path
     id="path2"
     style="fill:#fce2c2;fill-rule:evenodd"
     d="m 15.296354,149.5078 c 3.197,-12.2047 3.918,-36.3866 -0.7506,-53.6983 C 7.2831547,68.8786 -14.592746,53.5232 15.276954,0 c -3.8528,11.7584 -5.9365996,24.3177 -5.9365996,37.3624 0,13.0555 2.0873996,25.6247 5.9462996,37.3915 3.8589,11.7668 5.9463,24.336 5.9463,37.3915 0,13.0447 -2.0838,25.604 -5.9366,37.3624 z"
     inkscape:connector-curvature="0" />
  <path
     id="path4"
     style="fill:#8cbeb3;fill-rule:evenodd"
     d="M 2.1923547,62.9894 C 0.05645462,47.9027 1.4304546,29.4266 15.276954,0 c -17.4156993,36.9075 -8.7272993,56.592 4.0074,90.5053 1.2797,7.0195 1.9486,14.2519 1.9486,21.6401 0,13.0447 -2.0838,25.604 -5.9366,37.3624 3.197,-12.2047 3.918,-36.3866 -0.7506,-53.6983 C 11.372654,84.0429 5.4099547,74.4857 2.1923547,62.9894 Z"
     inkscape:connector-curvature="0" />
  <path
     id="path6"
     style="fill:#8cbeb3;fill-rule:evenodd"
     d="m 50.218754,40.5839 3.8115,0.532 c -0.7824,5.5642 -3.5172,8.343 -8.1989,8.343 -3.0416,0 -5.3073,-1.1642 -6.8032,-3.4988 -1.4896,-2.3344 -2.2342,-5.4576 -2.2342,-9.3691 0,-4.2185 0.7886,-7.4543 2.3658,-9.701 1.5771,-2.2533 3.8491,-3.3735 6.8218,-3.3735 4.5938,0 7.2916,2.8477 8.0864,8.543 l -3.8492,0.5695 c -0.4192,-3.7927 -1.8212,-5.6829 -4.2185,-5.6829 -3.2043,0 -4.8064,3.2922 -4.8064,9.8827 0,6.1333 1.6021,9.2001 4.8064,9.2001 1.2833,0 2.2408,-0.4631 2.8667,-1.4017 0.6321,-0.9326 1.0828,-2.2782 1.3518,-4.0433 z m 9.8638,8.418 0,-15.6404 -4.2373,0 0,-2.8792 12.1734,0 0,2.8792 -4.1057,0 0,15.6404 z m 9.0065,-18.5196 3.8301,0 3.2296,12.7242 3.3171,-12.7242 3.4486,0 -6.0146,19.6901 c -0.4382,1.4331 -0.845,2.4908 -1.2081,3.1731 -0.3691,0.6885 -0.8886,1.2393 -1.5582,1.6585 -0.6761,0.4255 -1.5398,0.6384 -2.6036,0.6384 -0.6384,0 -1.2895,-0.0876 -1.9653,-0.2566 l 0,-3.0481 c 0.4882,0.0876 0.9389,0.1316 1.3394,0.1316 0.9887,0 1.696,-0.2441 2.1093,-0.726 0.413,-0.4819 0.8634,-1.6024 1.339,-3.3673 z m 15.0332,15.6218 3.7426,-15.6218 5.7019,0 3.3545,15.6218 1.3771,0 0,7.2226 -2.5475,0 -0.4569,-4.3248 -9.5381,0 -0.4569,4.3248 -2.5475,0 0,-7.2226 z m 3.3608,0 5.6268,0 -2.4974,-12.6301 -0.513,0 z m 17.161506,1.0077 0,1.8901 -3.8364,0 0,-18.5196 3.8364,0 0,8.03 c 0,1.9715 -0.0437,3.2482 -0.1312,3.8367 0.538,-1.1642 1.1891,-2.3471 1.9462,-3.5612 l 3.7554,-5.902 0,-2.4035 3.8364,0 0,18.5196 -3.8364,0 0,-7.573 c 0,-2.0404 0.0436,-3.3171 0.1312,-3.8305 -0.5255,1.3207 -1.239,2.6725 -2.1467,4.0683 z m 22.1871,1.8901 0,-7.3916 -3.3546,0 -2.8102,7.3916 -3.8866,0 3.5926,-8.1802 c -1.8527,-0.8637 -2.7853,-2.397 -2.7853,-4.6001 0,-1.6647 0.3818,-3.0353 1.1392,-4.1181 0.7572,-1.0829 2.2907,-1.6212 4.6001,-1.6212 l 7.3352,0 0,18.5196 z m 0,-9.9762 0,-5.9585 -2.8602,0 c -0.9198,0 -1.5834,0.2441 -2.0027,0.7322 -0.413,0.4882 -0.6196,1.2833 -0.6196,2.3848 0,0.8323 0.1814,1.5146 0.557,2.0464 0.3756,0.532 1.1455,0.7951 2.3218,0.7951 z"
     inkscape:connector-curvature="0" />
  <path
     id="path8"
     style="fill:#8cbeb3;fill-rule:evenodd"
     d="m 37.638654,62.3131 14.3388,0 0,3.3171 -10.1954,0 0,7.1536 7.9923,0 0,3.336 -7.9923,0 0,7.8296 10.3581,0 0,3.3922 -14.5015,0 z m 29.9605,12.7426 -3.6862,0.4068 c -0.1817,-1.6146 -0.4946,-2.6975 -0.9326,-3.242 -0.4382,-0.538 -1.0641,-0.8135 -1.8714,-0.8135 -1.139,0 -1.959,0.5258 -2.4721,1.5709 -0.5196,1.0452 -0.7761,2.8789 -0.7761,5.5077 0,4.1057 1.0828,6.1586 3.2482,6.1586 1.6648,0 2.5974,-1.3394 2.804,-4.0119 l 3.6862,0.3254 c -0.5006,4.5627 -2.7539,6.8409 -6.7655,6.8409 -2.3723,0 -4.1309,-0.8513 -5.2699,-2.5662 -1.1454,-1.7085 -1.7149,-4.0743 -1.7149,-7.0974 0,-3.1793 0.6196,-5.5953 1.8524,-7.2601 1.2331,-1.6585 3.0294,-2.4908 5.389,-2.4908 3.8052,0 5.9706,2.2218 6.5089,6.6716 z m 4.9133,12.2859 0,-15.6404 -4.2373,0 0,-2.8791 12.1734,0 0,2.8791 -4.1057,0 0,15.6404 z m 23.489,-8.6932 -10.4709,0 c 0,2.5097 0.3382,4.1808 1.0139,5.0193 0.6823,0.8325 1.5336,1.2517 2.56,1.2517 1.715,0 2.7913,-1.1514 3.2482,-3.4611 l 3.4798,0.457 c -0.9139,3.9243 -3.198,5.8833 -6.8533,5.8833 -2.2405,0 -4.0243,-0.8011 -5.3575,-2.4035 -1.3331,-1.5959 -1.9964,-3.943 -1.9964,-7.041 0,-3.1731 0.6695,-5.6327 2.0154,-7.3664 1.3456,-1.7399 3.1417,-2.6036 5.3887,-2.6036 1.5772,0 2.9041,0.4317 3.9804,1.3017 1.0766,0.8637 1.834,2.0092 2.272,3.4174 0.4444,1.4142 0.6823,3.2607 0.7197,5.5452 z m -3.9053,-2.585 c 0,-3.2607 -1.0641,-4.8943 -3.1921,-4.8943 -1.9902,0 -3.0855,1.6336 -3.2794,4.8943 z m 19.908806,-1.0077 -3.6861,0.4068 c -0.1817,-1.6146 -0.4947,-2.6975 -0.9326,-3.242 -0.4383,-0.538 -1.0642,-0.8135 -1.8715,-0.8135 -1.1389,0 -1.959,0.5258 -2.4721,1.5709 -0.5195,1.0452 -0.7761,2.8789 -0.7761,5.5077 0,4.1057 1.0829,6.1586 3.2482,6.1586 1.6648,0 2.5974,-1.3394 2.8041,-4.0119 l 3.6861,0.3254 c -0.5006,4.5627 -2.7538,6.8409 -6.7654,6.8409 -2.3723,0 -4.1309,-0.8513 -5.269901,-2.5662 -1.145505,-1.7085 -1.715005,-4.0743 -1.715005,-7.0974 0,-3.1793 0.6197,-5.5953 1.852506,-7.2601 1.2331,-1.6585 3.0294,-2.4908 5.3889,-2.4908 3.8053,0 5.9706,2.2218 6.5089,6.6716 z m 4.9133,12.2859 0,-15.6404 -4.2372,0 0,-2.8791 12.1734,0 0,2.8791 -4.1057,0 0,15.6404 z m 9.8827,0 0,-18.5195 8.3427,0 c 1.8589,0 3.1294,0.4631 3.8055,1.3957 0.682,0.9264 1.0199,1.9778 1.0199,3.1544 0,1.9902 -1.095,3.4172 -3.2856,4.2871 2.5597,0.745 3.8364,2.2907 3.8364,4.6378 0,1.4958 -0.4068,2.7037 -1.2141,3.6425 -0.8011,0.9326 -1.9466,1.402 -3.4234,1.402 z m 3.8365,-10.5959 3.4423,0 c 1.552,0 2.3344,-0.8699 2.3344,-2.6036 0,-0.9952 -0.1877,-1.6962 -0.5633,-2.1092 -0.369,-0.4193 -0.9637,-0.6259 -1.7711,-0.6259 l -3.4423,0 z m 0,7.6981 3.6989,0 c 1.6149,0 2.4222,-0.9389 2.4222,-2.8228 0,-1.9088 -0.8073,-2.8601 -2.4222,-2.8601 l -3.6989,0 z m 26.8622,-5.7954 -10.4709,0 c 0,2.5097 0.3382,4.1808 1.0139,5.0193 0.6823,0.8325 1.5336,1.2517 2.56,1.2517 1.715,0 2.7913,-1.1514 3.2482,-3.4611 l 3.4798,0.457 c -0.9138,3.9243 -3.198,5.8833 -6.8533,5.8833 -2.2405,0 -4.0243,-0.8011 -5.3575,-2.4035 -1.3331,-1.5959 -1.9964,-3.943 -1.9964,-7.041 0,-3.1731 0.6695,-5.6327 2.0154,-7.3664 1.3456,-1.7399 3.1417,-2.6036 5.3887,-2.6036 1.5772,0 2.9041,0.4317 3.9804,1.3017 1.0766,0.8637 1.834,2.0092 2.272,3.4174 0.4444,1.4142 0.6823,3.2607 0.7197,5.5452 z m -3.9053,-2.585 c 0,-3.2607 -1.0641,-4.8943 -3.1921,-4.8943 -1.9902,0 -3.0855,1.6336 -3.2794,4.8943 z m 7.0724,11.2782 0,-18.5195 3.8364,0 0,7.3539 5.5327,0 0,-7.3539 3.8367,0 0,18.5195 -3.8367,0 0,-8.2865 -5.5327,0 0,8.2865 z m 17.6933,0 0,-18.5195 3.8364,0 0,7.3539 5.5327,0 0,-7.3539 3.8367,0 0,18.5195 -3.8367,0 0,-8.2865 -5.5327,0 0,8.2865 z m 17.6933,0 0,-18.5195 3.8364,0 0,7.0786 4.0306,0 c 1.859,0 3.1734,0.5695 3.9368,1.7025 0.7636,1.139 1.1454,2.4846 1.1454,4.0368 0,3.799 -1.7776,5.7016 -5.3387,5.7016 z m 3.8364,-2.8978 3.098,0 c 1.5024,0 2.2533,-0.97 2.2533,-2.9166 0,-2.0276 -0.7509,-3.0416 -2.2533,-3.0416 l -3.098,0 z m 10.6523,2.8978 0,-18.5195 3.8305,0 0,18.5195 z m 12.1731,-1.8901 0,1.8901 -3.8364,0 0,-18.5195 3.8364,0 0,8.0299 c 0,1.9715 -0.0436,3.2483 -0.1312,3.8367 0.538,-1.1642 1.1891,-2.3471 1.9463,-3.5611 l 3.7553,-5.9021 0,-2.4034 3.8364,0 0,18.5195 -3.8364,0 0,-7.573 c 0,-2.0404 0.0437,-3.3171 0.1313,-3.8305 -0.5256,1.3207 -1.2391,2.6726 -2.1467,4.0683 z m -2.8227,-23.4513 2.5662,0 c 0.3756,1.3705 1.3958,2.0528 3.0606,2.0528 1.6398,0 2.6473,-0.6823 3.0228,-2.0528 l 2.585,0 c -0.6197,2.9854 -2.4911,4.475 -5.6078,4.475 -3.1295,0 -5.0071,-1.4896 -5.6268,-4.475 z"
     inkscape:connector-curvature="0" />
  <path
     id="path10"
     style="fill:#8cbeb3;fill-rule:evenodd"
     d="m 55.520754,113.1636 c 0,4.2811 -0.7637,7.5104 -2.2907,9.701 -1.527,2.1843 -3.7491,3.2797 -6.6592,3.2797 -2.9228,0 -5.1573,-1.0891 -6.7093,-3.2735 -1.5522,-2.1779 -2.3284,-5.4136 -2.3284,-9.7072 0,-4.256 0.7699,-7.4792 2.3094,-9.6696 1.5398,-2.1968 3.7803,-3.2921 6.7093,-3.2921 2.8979,0 5.1197,1.089 6.6595,3.2731 1.5395,2.1782 2.3094,5.4077 2.3094,9.6886 z m -4.3436,0 c 0,-2.9727 -0.3506,-5.3073 -1.0389,-7.0161 -0.6885,-1.7022 -1.8963,-2.5534 -3.6175,-2.5534 -1.7275,0 -2.9291,0.8512 -3.6176,2.5659 -0.6823,1.7087 -1.0264,4.0433 -1.0264,7.0036 0,2.9103 0.3378,5.2324 1.0077,6.9661 0.6758,1.7399 1.9026,2.6036 3.6864,2.6036 1.6773,0 2.8602,-0.8387 3.5612,-2.5222 0.6945,-1.6776 1.0451,-4.0309 1.0451,-7.0475 z m 16.3729,-14.1384 3.8115,0 c -0.0374,0.8198 -0.3129,1.5585 -0.826,2.2218 -0.5134,0.6574 -1.6713,1.2206 -3.4801,1.6838 -1.2016,0.3064 -2.0529,0.6193 -2.5597,0.9385 -0.5068,0.313 -0.9575,0.8637 -1.3456,1.6461 -0.3943,0.7824 -0.6761,1.8213 -0.845,3.117 1.1392,-1.283 2.5223,-1.9216 4.1621,-1.9216 2.0778,0 3.6927,0.8637 4.8504,2.5911 1.1517,1.7337 1.7336,4.087 1.7336,7.0725 0,3.0917 -0.6321,5.4952 -1.8963,7.2037 -1.2705,1.7149 -3.0603,2.5662 -5.3825,2.5662 -1.5896,0 -2.9165,-0.3569 -3.9741,-1.0704 -1.0579,-0.7135 -1.8777,-1.8026 -2.4724,-3.2545 -0.5944,-1.4584 -0.8887,-3.5237 -0.8887,-6.1962 0,-8.5618 2.1342,-13.3997 6.3964,-14.5264 1.1268,-0.294 1.8403,-0.557 2.147,-0.7949 0.3064,-0.2378 0.4943,-0.6633 0.5694,-1.2767 z m -1.9278,10.5834 c -2.272,0 -3.4109,2.3284 -3.4109,6.9849 0,2.2592 0.3129,3.9367 0.9388,5.0255 0.6197,1.0829 1.4647,1.6274 2.5285,1.6274 1.0264,0 1.8337,-0.5508 2.4222,-1.6586 0.5882,-1.1077 0.8762,-2.7788 0.8762,-5.0133 0,-4.6437 -1.114,-6.9659 -3.3548,-6.9659 z m 11.0027,-2.4409 3.5237,0 0,3.0419 c 0.9638,-2.2346 2.4911,-3.3548 4.5814,-3.3548 1.8714,0 3.3797,0.82 4.5312,2.4471 1.1517,1.6336 1.7212,3.962 1.7212,6.9786 0,2.7037 -0.5193,5.0006 -1.5648,6.897 -1.0451,1.8902 -2.6659,2.8415 -4.869,2.8415 -1.7589,0 -3.1357,-0.7509 -4.1247,-2.2592 l 0,8.1986 -3.799,0 z m 3.799,10.7839 c 0,1.1829 0.0878,2.1092 0.263,2.7788 0.1814,0.6636 0.5446,1.233 1.0953,1.7025 0.5508,0.4694 1.1705,0.7072 1.8712,0.7072 2.1719,0 3.261,-2.2844 3.261,-6.8596 0,-4.4248 -1.0642,-6.6342 -3.1921,-6.6342 -0.9389,0 -1.7275,0.4505 -2.3534,1.3519 -0.6321,0.9073 -0.945,2.1968 -0.945,3.8679 z m 17.562,-5.5389 -3.6864,-0.457 c 0.244,-1.6523 1.0077,-2.9353 2.2844,-3.8554 1.2767,-0.9139 2.847705,-1.3705 4.706606,-1.3705 1.6586,0 2.9917,0.3316 3.9867,0.9949 0.9952,0.6699 1.6211,1.4585 1.8777,2.3783 0.2568,0.9139 0.388,2.3034 0.388,4.1621 l 0,6.3088 c 0,2.5537 0.1066,4.2559 0.3254,5.1134 l -3.611,0 c -0.1565,-0.6695 -0.2378,-1.696 -0.2378,-3.0793 -1.158,2.3596 -2.8979,3.5363 -5.207306,3.5363 -1.5647,0 -2.8227,-0.4757 -3.7678,-1.4395 -0.9451,-0.9578 -1.4207,-2.2657 -1.4207,-3.9118 0,-2.0154 0.6948,-3.6113 2.0778,-4.788 1.3895,-1.1704 3.792705,-1.7586 7.216406,-1.7586 0.1752,0 0.4442,0.006 0.8073,0.0187 l 0,-0.7509 c 0,-1.3207 -0.2004,-2.3159 -0.5947,-2.9917 -0.3943,-0.6698 -1.1078,-1.0077 -2.1342,-1.0077 -1.677201,0 -2.678706,0.9638 -3.010406,2.8979 z m 5.739306,4.2559 c -0.4881,-0.0502 -0.8575,-0.0751 -1.1202,-0.0751 -3.323606,0 -4.982206,1.3017 -4.982206,3.9053 0,1.8964 0.8201,2.8414 2.472406,2.8414 0.9638,0 1.815,-0.513 2.541,-1.5395 0.7259,-1.0264 1.089,-2.4409 1.089,-4.2372 z m 11.4596,0.7696 0,-2.4219 c 1.2892,0 2.2156,-0.1942 2.7913,-0.576 0.576,-0.3878 0.8637,-1.1829 0.8637,-2.397 0,-1.8088 -0.6944,-2.7099 -2.0778,-2.7099 -1.4144,0 -2.3031,1.0202 -2.6537,3.0603 l -3.411,-0.6945 c 0.2818,-1.4959 0.9513,-2.6977 2.0092,-3.6176 1.0514,-0.9139 2.4721,-1.3708 4.2432,-1.3708 1.9029,0 3.3735,0.4569 4.4062,1.3646 1.0326,0.9136 1.5522,2.1155 1.5522,3.6238 0,1.9525 -1.0264,3.3797 -3.0793,4.2684 2.3596,0.7824 3.5363,2.2907 3.5363,4.5312 0,1.6648 -0.5383,3.0166 -1.6212,4.0683 -1.0828,1.0513 -2.6223,1.5772 -4.6125,1.5772 -2.1781,0 -3.774,-0.5009 -4.7942,-1.5021 -1.0202,-1.0015 -1.6898,-2.2782 -2.0089,-3.8305 l 3.4483,-0.682 c 0.4632,2.253 1.4522,3.3732 2.973,3.3732 0.826,0 1.4581,-0.3067 1.8964,-0.926 0.4317,-0.6135 0.6508,-1.3709 0.6508,-2.2595 0,-0.7512 -0.1627,-1.3581 -0.4881,-1.8275 -0.3255,-0.4695 -0.7135,-0.7637 -1.1642,-0.8825 -0.4505,-0.1128 -1.2705,-0.1692 -2.4597,-0.1692 z"
     inkscape:connector-curvature="0" />
</svg>
